999
FreeCAD v0.19 14555 (Git shallow)
  0
SECTION
  2
HEADER
  9
$ACADVER
  1
AC1014
  9
$ACADMAINTVER
 70
     9
  9
$DWGCODEPAGE
  3
ANSI_1252
  9
$TEXTSTYLE
  7
STANDARD
  9
$DIMSTYLE
  2
STANDARD
  9
$DIMTXSTY
  7
STANDARD
  9
$CMLSTYLE
  2
STANDARD
  9
$PEXTMAX
 10
50
 20
50
 30
50
  9
$PEXTMIN
 10
0
 20
0
 30
0
  9
$HANDSEED
  5
FFFF
  0
ENDSEC
  0
SECTION
  2
CLASSES
  0
CLASS
  1
ACDBDICTIONARYWDFLT
  2
AcDbDictionaryWithDefault
  3
ObjectDBX Classes
 90
        0
280
     0
281
     0
  0
CLASS
  1
XRECORD
  2
AcDbXrecord
  3
ObjectDBX Classes
 90
        0
280
     0
281
     0
  0
CLASS
  1
LWPOLYLINE
  2
AcDbPolyline
  3
ObjectDBX Classes
 90
        0
280
     0
281
     1
  0
ENDSEC
  0
SECTION
  2
TABLES
  0
TABLE
  2
VPORT
  5
20
330
0
100
AcDbSymbolTable
 70
     1
  0
VPORT
  5
21
330
20
100
AcDbSymbolTableRecord
100
AcDbViewportTableRecord
  2
*ACTIVE
 70
     0
  0
ENDTAB
  0
TABLE
  2
LTYPE
  5
22
330
0
100
AcDbSymbolTable
 70
     1
  0
LTYPE
  5
23
330
21
100
AcDbSymbolTableRecord
100
AcDbLinetypeTableRecord
  2
BYBLOCK
 70
     0
  3

 72
    65
 73
     0
 40
0.0
  0
LTYPE
  5
24
330
21
100
AcDbSymbolTableRecord
100
AcDbLinetypeTableRecord
  2
BYLAYER
 70
     0
  3

 72
    65
 73
     0
 40
0.0
  0
LTYPE
  5
25
330
21
100
AcDbSymbolTableRecord
100
AcDbLinetypeTableRecord
  2
CONTINUOUS
 70
     0
  3
Solid line
 72
    65
 73
     0
 40
0.0
  0
ENDTAB
  0
TABLE
  2
LAYER
  5
D2E
330
0
100
AcDbSymbolTable
 70
9
  0
LAYER
  5
D2F
330
D2E
100
AcDbSymbolTableRecord
100
AcDbLayerTableRecord
  2
0
 70
   0
 62
   7
  6
CONTINUOUS
  0
LAYER
  5
D30
330
D2E
100
AcDbSymbolTableRecord
100
AcDbLayerTableRecord
  2
none
 70
    0
 62
    7
  6
CONTINUOUS
  0
LAYER
  5
D31
330
D2E
100
AcDbSymbolTableRecord
100
AcDbLayerTableRecord
  2
Shape2DView
 70
    0
 62
    7
  6
CONTINUOUS
  0
LAYER
  5
D32
330
D2E
100
AcDbSymbolTableRecord
100
AcDbLayerTableRecord
  2
Shape2DView001
 70
    0
 62
    7
  6
CONTINUOUS
  0
LAYER
  5
D33
330
D2E
100
AcDbSymbolTableRecord
100
AcDbLayerTableRecord
  2
Shape2DView002
 70
    0
 62
    7
  6
CONTINUOUS
  0
LAYER
  5
D34
330
D2E
100
AcDbSymbolTableRecord
100
AcDbLayerTableRecord
  2
Shape2DView003
 70
    0
 62
    7
  6
CONTINUOUS
  0
LAYER
  5
D35
330
D2E
100
AcDbSymbolTableRecord
100
AcDbLayerTableRecord
  2
Shape2DView004
 70
    0
 62
    7
  6
CONTINUOUS
  0
LAYER
  5
D36
330
D2E
100
AcDbSymbolTableRecord
100
AcDbLayerTableRecord
  2
Shape2DView005
 70
    0
 62
    7
  6
CONTINUOUS
  0
LAYER
  5
D37
330
D2E
100
AcDbSymbolTableRecord
100
AcDbLayerTableRecord
  2
Shape2DView006
 70
    0
 62
    7
  6
CONTINUOUS
  0
ENDTAB
  0
TABLE
  2
STYLE
  5
70
330
0
100
AcDbSymbolTable
 70
     2
  0
STYLE
  5
71
330
70
100
AcDbSymbolTableRecord
100
AcDbTextStyleTableRecord
  2
STANDARD
 70
     0
 40
0.0
 41
1.0
 50
0.0
 71
     0
 42
2.5
  3
arial.ttf
  4

  0
STYLE
  5
72
330
70
100
AcDbSymbolTableRecord
100
AcDbTextStyleTableRecord
  2
ANNOTATIVE
 70
     0
 40
0.0
 41
1.0
 50
0.0
 71
     0
 42
2.5
  3
arial.ttf
  4

  0
ENDTAB
  0
TABLE
  2
VIEW
  5
73
330
0
100
AcDbSymbolTable
 70
     0
  0
ENDTAB
  0
TABLE
  2
UCS
  5
74
330
0
100
AcDbSymbolTable
 70
     0
  0
ENDTAB
  0
TABLE
  2
APPID
  5
75
330
0
100
AcDbSymbolTable
 70
     2
  0
APPID
  5
76
330
75
100
AcDbSymbolTableRecord
100
AcDbRegAppTableRecord
  2
ACAD
 70
     0
  0
APPID
  5
77
330
75
100
AcDbSymbolTableRecord
100
AcDbRegAppTableRecord
  2
ACADANNOTATIVE
 70
     0
  0
ENDTAB
  0
TABLE
  2
DIMSTYLE
  5
78
330
0
100
AcDbSymbolTable
 70
     2
  0
DIMSTYLE
105
79
330
78
100
AcDbSymbolTableRecord
100
AcDbDimStyleTableRecord
  2
STANDARD
 70
     0
  3

  4

  5

  6

  7

 40
0.0
 41
2.5
 42
0.625
 43
3.75
 44
1.25
 45
0.0
 46
0.0
 47
0.0
 48
0.0
140
2.5
141
2.5
142
0.0
143
0.03937007874016
144
1.0
145
0.0
146
1.0
147
0.625
 71
     0
 72
     0
 73
     0
 74
     0
 75
     0
 76
     0
 77
     1
 78
     8
170
     0
171
     3
172
     1
173
     0
174
     0
175
     0
176
     0
177
     0
178
     0
270
     2
271
     2
272
     2
273
     2
274
     3
340
71
275
     0
280
     0
281
     0
282
     0
283
     0
284
     8
285
     0
286
     0
287
     3
288
     0
  0
ENDTAB
  0
TABLE
  2
BLOCK_RECORD
  5
A01
330
0
100
AcDbSymbolTable
  70
5
  0
BLOCK_RECORD
  5
A02
330
A01
100
AcDbSymbolTableRecord
100
AcDbBlockTableRecord
  2
*MODEL_SPACE
  0
BLOCK_RECORD
  5
A03
330
A01
100
AcDbSymbolTableRecord
100
AcDbBlockTableRecord
  2
*PAPER_SPACE
  0
ENDTAB
  0
ENDSEC
  0
SECTION
  2
BLOCKS
  0
BLOCK
  5
A04
330
A02
100
AcDbEntity
  8
0
100
AcDbBlockBegin
  2
*MODEL_SPACE
 70
   0
 10
0
 20
0
 30
0
  3
*MODEL_SPACE
  1
 
  0
ENDBLK
  5
A05
330
A02
100
AcDbEntity
  8
0
100
AcDbBlockEnd
  0
BLOCK
  5
A06
330
A03
100
AcDbEntity
 67
1
  8
0
100
AcDbBlockBegin
  2
*PAPER_SPACE
 70
   0
 10
0
 20
0
 30
0
  3
*PAPER_SPACE
  1
 
  0
ENDBLK
  5
A07
330
A03
100
AcDbEntity
 67
    1
  8
0
100
AcDbBlockEnd
  0
ENDSEC
  0
SECTION
  2
ENTITIES
  0
LINE
  5
A08
330
A02
100
AcDbEntity
  8
Shape2DView
100
AcDbLine
 10
3
 20
3
 30
0
 11
3
 21
20.7333
 31
0
  0
LINE
  5
A09
330
A02
100
AcDbEntity
  8
Shape2DView
100
AcDbLine
 10
3
 20
20.7333
 30
0
 11
0
 21
20.7333
 31
0
  0
LINE
  5
A0A
330
A02
100
AcDbEntity
  8
Shape2DView
100
AcDbLine
 10
3
 20
3
 30
0
 11
13.5667
 21
3
 31
0
  0
LINE
  5
A0B
330
A02
100
AcDbEntity
  8
Shape2DView
100
AcDbLine
 10
0
 20
30.9333
 30
0
 11
0
 21
20.7333
 31
0
  0
LINE
  5
A0C
330
A02
100
AcDbEntity
  8
Shape2DView
100
AcDbLine
 10
13.5667
 20
3
 30
0
 11
13.5667
 21
-4.44089e-16
 31
0
  0
LINE
  5
A0D
330
A02
100
AcDbEntity
  8
Shape2DView
100
AcDbLine
 10
3
 20
30.9333
 30
0
 11
0
 21
30.9333
 31
0
  0
LINE
  5
A0E
330
A02
100
AcDbEntity
  8
Shape2DView
100
AcDbLine
 10
3
 20
30.9333
 30
0
 11
3
 21
66.4
 31
0
  0
LINE
  5
A0F
330
A02
100
AcDbEntity
  8
Shape2DView
100
AcDbLine
 10
3
 20
66.4
 30
0
 11
0
 21
66.4
 31
0
  0
LINE
  5
A10
330
A02
100
AcDbEntity
  8
Shape2DView
100
AcDbLine
 10
0
 20
76.6
 30
0
 11
0
 21
66.4
 31
0
  0
LINE
  5
A11
330
A02
100
AcDbEntity
  8
Shape2DView
100
AcDbLine
 10
3
 20
76.6
 30
0
 11
0
 21
76.6
 31
0
  0
LINE
  5
A12
330
A02
100
AcDbEntity
  8
Shape2DView
100
AcDbLine
 10
3
 20
76.6
 30
0
 11
3
 21
112.067
 31
0
  0
LINE
  5
A13
330
A02
100
AcDbEntity
  8
Shape2DView
100
AcDbLine
 10
3
 20
112.067
 30
0
 11
0
 21
112.067
 31
0
  0
LINE
  5
A14
330
A02
100
AcDbEntity
  8
Shape2DView
100
AcDbLine
 10
0
 20
122.267
 30
0
 11
0
 21
112.067
 31
0
  0
LINE
  5
A15
330
A02
100
AcDbEntity
  8
Shape2DView
100
AcDbLine
 10
3
 20
122.267
 30
0
 11
0
 21
122.267
 31
0
  0
LINE
  5
A16
330
A02
100
AcDbEntity
  8
Shape2DView
100
AcDbLine
 10
3
 20
122.267
 30
0
 11
3
 21
157.733
 31
0
  0
LINE
  5
A17
330
A02
100
AcDbEntity
  8
Shape2DView
100
AcDbLine
 10
3
 20
157.733
 30
0
 11
0
 21
157.733
 31
0
  0
LINE
  5
A18
330
A02
100
AcDbEntity
  8
Shape2DView
100
AcDbLine
 10
0
 20
167.933
 30
0
 11
0
 21
157.733
 31
0
  0
LINE
  5
A19
330
A02
100
AcDbEntity
  8
Shape2DView
100
AcDbLine
 10
3
 20
167.933
 30
0
 11
0
 21
167.933
 31
0
  0
LINE
  5
A1A
330
A02
100
AcDbEntity
  8
Shape2DView
100
AcDbLine
 10
3
 20
167.933
 30
0
 11
3
 21
203.4
 31
0
  0
LINE
  5
A1B
330
A02
100
AcDbEntity
  8
Shape2DView
100
AcDbLine
 10
3
 20
203.4
 30
0
 11
0
 21
203.4
 31
0
  0
LINE
  5
A1C
330
A02
100
AcDbEntity
  8
Shape2DView
100
AcDbLine
 10
0
 20
213.6
 30
0
 11
0
 21
203.4
 31
0
  0
LINE
  5
A1D
330
A02
100
AcDbEntity
  8
Shape2DView
100
AcDbLine
 10
3
 20
213.6
 30
0
 11
0
 21
213.6
 31
0
  0
LINE
  5
A1E
330
A02
100
AcDbEntity
  8
Shape2DView
100
AcDbLine
 10
3
 20
213.6
 30
0
 11
3
 21
249.067
 31
0
  0
LINE
  5
A1F
330
A02
100
AcDbEntity
  8
Shape2DView
100
AcDbLine
 10
3
 20
249.067
 30
0
 11
0
 21
249.067
 31
0
  0
LINE
  5
A20
330
A02
100
AcDbEntity
  8
Shape2DView
100
AcDbLine
 10
0
 20
259.267
 30
0
 11
0
 21
249.067
 31
0
  0
LINE
  5
A21
330
A02
100
AcDbEntity
  8
Shape2DView
100
AcDbLine
 10
3
 20
259.267
 30
0
 11
0
 21
259.267
 31
0
  0
LINE
  5
A22
330
A02
100
AcDbEntity
  8
Shape2DView
100
AcDbLine
 10
3
 20
277
 30
0
 11
13.5667
 21
277
 31
0
  0
LINE
  5
A23
330
A02
100
AcDbEntity
  8
Shape2DView
100
AcDbLine
 10
3
 20
259.267
 30
0
 11
3
 21
277
 31
0
  0
LINE
  5
A24
330
A02
100
AcDbEntity
  8
Shape2DView
100
AcDbLine
 10
13.5667
 20
277
 30
0
 11
13.5667
 21
280
 31
0
  0
LINE
  5
A25
330
A02
100
AcDbEntity
  8
Shape2DView
100
AcDbLine
 10
23.7667
 20
280
 30
0
 11
13.5667
 21
280
 31
0
  0
LINE
  5
A26
330
A02
100
AcDbEntity
  8
Shape2DView
100
AcDbLine
 10
23.7667
 20
277
 30
0
 11
23.7667
 21
280
 31
0
  0
LINE
  5
A27
330
A02
100
AcDbEntity
  8
Shape2DView
100
AcDbLine
 10
23.7667
 20
277
 30
0
 11
44.9
 21
277
 31
0
  0
LINE
  5
A28
330
A02
100
AcDbEntity
  8
Shape2DView
100
AcDbLine
 10
44.9
 20
277
 30
0
 11
44.9
 21
280
 31
0
  0
LINE
  5
A29
330
A02
100
AcDbEntity
  8
Shape2DView
100
AcDbLine
 10
55.1
 20
280
 30
0
 11
44.9
 21
280
 31
0
  0
LINE
  5
A2A
330
A02
100
AcDbEntity
  8
Shape2DView
100
AcDbLine
 10
55.1
 20
277
 30
0
 11
55.1
 21
280
 31
0
  0
LINE
  5
A2B
330
A02
100
AcDbEntity
  8
Shape2DView
100
AcDbLine
 10
55.1
 20
277
 30
0
 11
76.2333
 21
277
 31
0
  0
LINE
  5
A2C
330
A02
100
AcDbEntity
  8
Shape2DView
100
AcDbLine
 10
76.2333
 20
277
 30
0
 11
76.2333
 21
280
 31
0
  0
LINE
  5
A2D
330
A02
100
AcDbEntity
  8
Shape2DView
100
AcDbLine
 10
86.4333
 20
280
 30
0
 11
76.2333
 21
280
 31
0
  0
LINE
  5
A2E
330
A02
100
AcDbEntity
  8
Shape2DView
100
AcDbLine
 10
86.4333
 20
277
 30
0
 11
86.4333
 21
280
 31
0
  0
LINE
  5
A2F
330
A02
100
AcDbEntity
  8
Shape2DView
100
AcDbLine
 10
50.2823
 20
143.05
 30
0
 11
57.99
 21
143.05
 31
0
  0
ARC
  5
A30
330
A02
100
AcDbEntity
  8
Shape2DView
100
AcDbCircle
 10
63.865
 20
258.027
 30
0
 40
115.127
100
AcDbArc
 50
-92.9251
 51
-87.0749
  0
LINE
  5
A31
330
A02
100
AcDbEntity
  8
Shape2DView
100
AcDbLine
 10
69.74
 20
143.05
 30
0
 11
77.26
 21
143.05
 31
0
  0
ARC
  5
A32
330
A02
100
AcDbEntity
  8
Shape2DView
100
AcDbCircle
 10
83.135
 20
258.027
 30
0
 40
115.127
100
AcDbArc
 50
-92.9251
 51
-87.0749
  0
LINE
  5
A33
330
A02
100
AcDbEntity
  8
Shape2DView
100
AcDbLine
 10
89.01
 20
143.05
 30
0
 11
97
 21
143.05
 31
0
  0
LINE
  5
A34
330
A02
100
AcDbEntity
  8
Shape2DView
100
AcDbLine
 10
97
 20
143.05
 30
0
 11
97
 21
277
 31
0
  0
LINE
  5
A35
330
A02
100
AcDbEntity
  8
Shape2DView
100
AcDbLine
 10
86.4333
 20
277
 30
0
 11
97
 21
277
 31
0
  0
LINE
  5
A36
330
A02
100
AcDbEntity
  8
Shape2DView
100
AcDbLine
 10
23.7667
 20
-4.44089e-16
 30
0
 11
13.5667
 21
-4.44089e-16
 31
0
  0
LINE
  5
A37
330
A02
100
AcDbEntity
  8
Shape2DView
100
AcDbLine
 10
23.7667
 20
3
 30
0
 11
23.7667
 21
-4.44089e-16
 31
0
  0
LINE
  5
A38
330
A02
100
AcDbEntity
  8
Shape2DView
100
AcDbLine
 10
23.7667
 20
3
 30
0
 11
44.9
 21
3
 31
0
  0
LINE
  5
A39
330
A02
100
AcDbEntity
  8
Shape2DView
100
AcDbLine
 10
44.9
 20
3
 30
0
 11
44.9
 21
-4.44089e-16
 31
0
  0
LINE
  5
A3A
330
A02
100
AcDbEntity
  8
Shape2DView
100
AcDbLine
 10
55.1
 20
-4.44089e-16
 30
0
 11
44.9
 21
-4.44089e-16
 31
0
  0
LINE
  5
A3B
330
A02
100
AcDbEntity
  8
Shape2DView
100
AcDbLine
 10
55.1
 20
3
 30
0
 11
55.1
 21
-4.44089e-16
 31
0
  0
LINE
  5
A3C
330
A02
100
AcDbEntity
  8
Shape2DView
100
AcDbLine
 10
55.1
 20
3
 30
0
 11
76.2333
 21
3
 31
0
  0
LINE
  5
A3D
330
A02
100
AcDbEntity
  8
Shape2DView
100
AcDbLine
 10
76.2333
 20
3
 30
0
 11
76.2333
 21
-4.44089e-16
 31
0
  0
LINE
  5
A3E
330
A02
100
AcDbEntity
  8
Shape2DView
100
AcDbLine
 10
86.4333
 20
-4.44089e-16
 30
0
 11
76.2333
 21
-4.44089e-16
 31
0
  0
LINE
  5
A3F
330
A02
100
AcDbEntity
  8
Shape2DView
100
AcDbLine
 10
86.4333
 20
3
 30
0
 11
86.4333
 21
-4.44089e-16
 31
0
  0
LINE
  5
A40
330
A02
100
AcDbEntity
  8
Shape2DView
100
AcDbLine
 10
97
 20
3
 30
0
 11
97
 21
139.95
 31
0
  0
LINE
  5
A41
330
A02
100
AcDbEntity
  8
Shape2DView
100
AcDbLine
 10
89.01
 20
139.95
 30
0
 11
97
 21
139.95
 31
0
  0
ARC
  5
A42
330
A02
100
AcDbEntity
  8
Shape2DView
100
AcDbCircle
 10
83.135
 20
24.9729
 30
0
 40
115.127
100
AcDbArc
 50
87.0749
 51
92.9251
  0
LINE
  5
A43
330
A02
100
AcDbEntity
  8
Shape2DView
100
AcDbLine
 10
69.74
 20
139.95
 30
0
 11
77.26
 21
139.95
 31
0
  0
ARC
  5
A44
330
A02
100
AcDbEntity
  8
Shape2DView
100
AcDbCircle
 10
63.865
 20
24.9729
 30
0
 40
115.127
100
AcDbArc
 50
87.0749
 51
92.9251
  0
LINE
  5
A45
330
A02
100
AcDbEntity
  8
Shape2DView
100
AcDbLine
 10
50.2823
 20
139.95
 30
0
 11
57.99
 21
139.95
 31
0
  0
LINE
  5
A46
330
A02
100
AcDbEntity
  8
Shape2DView
100
AcDbLine
 10
86.4333
 20
3
 30
0
 11
97
 21
3
 31
0
  0
ARC
  5
A47
330
A02
100
AcDbEntity
  8
Shape2DView
100
AcDbCircle
 10
50.1033
 20
140.053
 30
0
 40
0.206667
100
AcDbArc
 50
180
 51
-30
  0
ARC
  5
A48
330
A02
100
AcDbEntity
  8
Shape2DView
100
AcDbCircle
 10
50.1033
 20
140.053
 30
0
 40
0.206667
100
AcDbArc
 50
120
 51
180
  0
LINE
  5
A49
330
A02
100
AcDbEntity
  8
Shape2DView
100
AcDbLine
 10
50
 20
142.768
 30
0
 11
50
 21
140.232
 31
0
  0
ARC
  5
A4A
330
A02
100
AcDbEntity
  8
Shape2DView
100
AcDbCircle
 10
50.1033
 20
142.947
 30
0
 40
0.206667
100
AcDbArc
 50
180
 51
-120
  0
ARC
  5
A4B
330
A02
100
AcDbEntity
  8
Shape2DView
100
AcDbCircle
 10
50.1033
 20
142.947
 30
0
 40
0.206667
100
AcDbArc
 50
30
 51
180
  0
LINE
  5
A4C
330
A02
100
AcDbEntity
  8
Shape2DView001
100
AcDbLine
 10
110
 20
3
 30
0
 11
110
 21
23.225
 31
0
  0
LINE
  5
A4D
330
A02
100
AcDbEntity
  8
Shape2DView001
100
AcDbLine
 10
110
 20
23.225
 30
0
 11
107
 21
23.225
 31
0
  0
LINE
  5
A4E
330
A02
100
AcDbEntity
  8
Shape2DView001
100
AcDbLine
 10
110
 20
3
 30
0
 11
120.567
 21
3
 31
0
  0
LINE
  5
A4F
330
A02
100
AcDbEntity
  8
Shape2DView001
100
AcDbLine
 10
107
 20
23.225
 30
0
 11
107
 21
33.425
 31
0
  0
LINE
  5
A50
330
A02
100
AcDbEntity
  8
Shape2DView001
100
AcDbLine
 10
120.567
 20
3
 30
0
 11
120.567
 21
-7.10543e-15
 31
0
  0
LINE
  5
A51
330
A02
100
AcDbEntity
  8
Shape2DView001
100
AcDbLine
 10
110
 20
33.425
 30
0
 11
107
 21
33.425
 31
0
  0
LINE
  5
A52
330
A02
100
AcDbEntity
  8
Shape2DView001
100
AcDbLine
 10
110
 20
33.425
 30
0
 11
110
 21
73.875
 31
0
  0
LINE
  5
A53
330
A02
100
AcDbEntity
  8
Shape2DView001
100
AcDbLine
 10
110
 20
73.875
 30
0
 11
107
 21
73.875
 31
0
  0
LINE
  5
A54
330
A02
100
AcDbEntity
  8
Shape2DView001
100
AcDbLine
 10
107
 20
73.875
 30
0
 11
107
 21
84.075
 31
0
  0
LINE
  5
A55
330
A02
100
AcDbEntity
  8
Shape2DView001
100
AcDbLine
 10
110
 20
84.075
 30
0
 11
110
 21
124.525
 31
0
  0
LINE
  5
A56
330
A02
100
AcDbEntity
  8
Shape2DView001
100
AcDbLine
 10
110
 20
84.075
 30
0
 11
107
 21
84.075
 31
0
  0
LINE
  5
A57
330
A02
100
AcDbEntity
  8
Shape2DView001
100
AcDbLine
 10
110
 20
124.525
 30
0
 11
107
 21
124.525
 31
0
  0
LINE
  5
A58
330
A02
100
AcDbEntity
  8
Shape2DView001
100
AcDbLine
 10
107
 20
124.525
 30
0
 11
107
 21
134.725
 31
0
  0
LINE
  5
A59
330
A02
100
AcDbEntity
  8
Shape2DView001
100
AcDbLine
 10
110
 20
134.725
 30
0
 11
110
 21
154.95
 31
0
  0
LINE
  5
A5A
330
A02
100
AcDbEntity
  8
Shape2DView001
100
AcDbLine
 10
110
 20
154.95
 30
0
 11
156.718
 21
154.95
 31
0
  0
ARC
  5
A5B
330
A02
100
AcDbEntity
  8
Shape2DView001
100
AcDbCircle
 10
156.897
 20
155.053
 30
0
 40
0.206667
100
AcDbArc
 50
-150
 51
60
  0
LINE
  5
A5C
330
A02
100
AcDbEntity
  8
Shape2DView001
100
AcDbLine
 10
157
 20
155.232
 30
0
 11
157
 21
157.768
 31
0
  0
ARC
  5
A5D
330
A02
100
AcDbEntity
  8
Shape2DView001
100
AcDbCircle
 10
156.897
 20
157.947
 30
0
 40
0.206667
100
AcDbArc
 50
-60
 51
150
  0
LINE
  5
A5E
330
A02
100
AcDbEntity
  8
Shape2DView001
100
AcDbLine
 10
156.718
 20
158.05
 30
0
 11
110
 21
158.05
 31
0
  0
LINE
  5
A5F
330
A02
100
AcDbEntity
  8
Shape2DView001
100
AcDbLine
 10
110
 20
158.05
 30
0
 11
110
 21
177.775
 31
0
  0
LINE
  5
A60
330
A02
100
AcDbEntity
  8
Shape2DView001
100
AcDbLine
 10
110
 20
134.725
 30
0
 11
107
 21
134.725
 31
0
  0
LINE
  5
A61
330
A02
100
AcDbEntity
  8
Shape2DView001
100
AcDbLine
 10
110
 20
177.775
 30
0
 11
107
 21
177.775
 31
0
  0
LINE
  5
A62
330
A02
100
AcDbEntity
  8
Shape2DView001
100
AcDbLine
 10
107
 20
177.775
 30
0
 11
107
 21
187.975
 31
0
  0
LINE
  5
A63
330
A02
100
AcDbEntity
  8
Shape2DView001
100
AcDbLine
 10
110
 20
187.975
 30
0
 11
110
 21
227.425
 31
0
  0
LINE
  5
A64
330
A02
100
AcDbEntity
  8
Shape2DView001
100
AcDbLine
 10
110
 20
187.975
 30
0
 11
107
 21
187.975
 31
0
  0
LINE
  5
A65
330
A02
100
AcDbEntity
  8
Shape2DView001
100
AcDbLine
 10
110
 20
227.425
 30
0
 11
107
 21
227.425
 31
0
  0
LINE
  5
A66
330
A02
100
AcDbEntity
  8
Shape2DView001
100
AcDbLine
 10
107
 20
227.425
 30
0
 11
107
 21
237.625
 31
0
  0
LINE
  5
A67
330
A02
100
AcDbEntity
  8
Shape2DView001
100
AcDbLine
 10
110
 20
237.625
 30
0
 11
110
 21
277.075
 31
0
  0
LINE
  5
A68
330
A02
100
AcDbEntity
  8
Shape2DView001
100
AcDbLine
 10
110
 20
237.625
 30
0
 11
107
 21
237.625
 31
0
  0
LINE
  5
A69
330
A02
100
AcDbEntity
  8
Shape2DView001
100
AcDbLine
 10
110
 20
277.075
 30
0
 11
107
 21
277.075
 31
0
  0
LINE
  5
A6A
330
A02
100
AcDbEntity
  8
Shape2DView001
100
AcDbLine
 10
107
 20
277.075
 30
0
 11
107
 21
287.275
 31
0
  0
LINE
  5
A6B
330
A02
100
AcDbEntity
  8
Shape2DView001
100
AcDbLine
 10
110
 20
287.275
 30
0
 11
110
 21
307
 31
0
  0
LINE
  5
A6C
330
A02
100
AcDbEntity
  8
Shape2DView001
100
AcDbLine
 10
110
 20
307
 30
0
 11
120.567
 21
307
 31
0
  0
LINE
  5
A6D
330
A02
100
AcDbEntity
  8
Shape2DView001
100
AcDbLine
 10
110
 20
287.275
 30
0
 11
107
 21
287.275
 31
0
  0
LINE
  5
A6E
330
A02
100
AcDbEntity
  8
Shape2DView001
100
AcDbLine
 10
120.567
 20
307
 30
0
 11
120.567
 21
310
 31
0
  0
LINE
  5
A6F
330
A02
100
AcDbEntity
  8
Shape2DView001
100
AcDbLine
 10
120.567
 20
310
 30
0
 11
130.767
 21
310
 31
0
  0
LINE
  5
A70
330
A02
100
AcDbEntity
  8
Shape2DView001
100
AcDbLine
 10
130.767
 20
307
 30
0
 11
151.9
 21
307
 31
0
  0
LINE
  5
A71
330
A02
100
AcDbEntity
  8
Shape2DView001
100
AcDbLine
 10
130.767
 20
307
 30
0
 11
130.767
 21
310
 31
0
  0
LINE
  5
A72
330
A02
100
AcDbEntity
  8
Shape2DView001
100
AcDbLine
 10
151.9
 20
307
 30
0
 11
151.9
 21
310
 31
0
  0
LINE
  5
A73
330
A02
100
AcDbEntity
  8
Shape2DView001
100
AcDbLine
 10
151.9
 20
310
 30
0
 11
162.1
 21
310
 31
0
  0
LINE
  5
A74
330
A02
100
AcDbEntity
  8
Shape2DView001
100
AcDbLine
 10
162.1
 20
307
 30
0
 11
183.233
 21
307
 31
0
  0
LINE
  5
A75
330
A02
100
AcDbEntity
  8
Shape2DView001
100
AcDbLine
 10
162.1
 20
307
 30
0
 11
162.1
 21
310
 31
0
  0
LINE
  5
A76
330
A02
100
AcDbEntity
  8
Shape2DView001
100
AcDbLine
 10
183.233
 20
307
 30
0
 11
183.233
 21
310
 31
0
  0
LINE
  5
A77
330
A02
100
AcDbEntity
  8
Shape2DView001
100
AcDbLine
 10
183.233
 20
310
 30
0
 11
193.433
 21
310
 31
0
  0
LINE
  5
A78
330
A02
100
AcDbEntity
  8
Shape2DView001
100
AcDbLine
 10
193.433
 20
307
 30
0
 11
204
 21
307
 31
0
  0
LINE
  5
A79
330
A02
100
AcDbEntity
  8
Shape2DView001
100
AcDbLine
 10
204
 20
3
 30
0
 11
204
 21
307
 31
0
  0
LINE
  5
A7A
330
A02
100
AcDbEntity
  8
Shape2DView001
100
AcDbLine
 10
193.433
 20
3
 30
0
 11
204
 21
3
 31
0
  0
LINE
  5
A7B
330
A02
100
AcDbEntity
  8
Shape2DView001
100
AcDbLine
 10
193.433
 20
307
 30
0
 11
193.433
 21
310
 31
0
  0
LINE
  5
A7C
330
A02
100
AcDbEntity
  8
Shape2DView001
100
AcDbLine
 10
130.767
 20
-7.10543e-15
 30
0
 11
120.567
 21
-7.10543e-15
 31
0
  0
LINE
  5
A7D
330
A02
100
AcDbEntity
  8
Shape2DView001
100
AcDbLine
 10
130.767
 20
3
 30
0
 11
130.767
 21
-7.10543e-15
 31
0
  0
LINE
  5
A7E
330
A02
100
AcDbEntity
  8
Shape2DView001
100
AcDbLine
 10
130.767
 20
3
 30
0
 11
151.9
 21
3
 31
0
  0
LINE
  5
A7F
330
A02
100
AcDbEntity
  8
Shape2DView001
100
AcDbLine
 10
151.9
 20
3
 30
0
 11
151.9
 21
0
 31
0
  0
LINE
  5
A80
330
A02
100
AcDbEntity
  8
Shape2DView001
100
AcDbLine
 10
162.1
 20
0
 30
0
 11
151.9
 21
0
 31
0
  0
LINE
  5
A81
330
A02
100
AcDbEntity
  8
Shape2DView001
100
AcDbLine
 10
162.1
 20
3
 30
0
 11
162.1
 21
0
 31
0
  0
LINE
  5
A82
330
A02
100
AcDbEntity
  8
Shape2DView001
100
AcDbLine
 10
162.1
 20
3
 30
0
 11
183.233
 21
3
 31
0
  0
LINE
  5
A83
330
A02
100
AcDbEntity
  8
Shape2DView001
100
AcDbLine
 10
183.233
 20
3
 30
0
 11
183.233
 21
7.10543e-15
 31
0
  0
LINE
  5
A84
330
A02
100
AcDbEntity
  8
Shape2DView001
100
AcDbLine
 10
193.433
 20
7.10543e-15
 30
0
 11
183.233
 21
7.10543e-15
 31
0
  0
LINE
  5
A85
330
A02
100
AcDbEntity
  8
Shape2DView001
100
AcDbLine
 10
193.433
 20
3
 30
0
 11
193.433
 21
7.10543e-15
 31
0
  0
LINE
  5
A86
330
A02
100
AcDbEntity
  8
Shape2DView002
100
AcDbLine
 10
100
 20
320
 30
0
 11
100
 21
343.433
 31
0
  0
LINE
  5
A87
330
A02
100
AcDbEntity
  8
Shape2DView002
100
AcDbLine
 10
88.2333
 20
320
 30
0
 11
100
 21
320
 31
0
  0
LINE
  5
A88
330
A02
100
AcDbEntity
  8
Shape2DView002
100
AcDbLine
 10
88.2333
 20
322.759
 30
0
 11
88.2333
 21
320
 31
0
  0
ARC
  5
A89
330
A02
100
AcDbEntity
  8
Shape2DView002
100
AcDbCircle
 10
88.1267
 20
322.943
 30
0
 40
0.213333
100
AcDbArc
 50
-60
 51
150
  0
LINE
  5
A8A
330
A02
100
AcDbEntity
  8
Shape2DView002
100
AcDbLine
 10
78.7248
 20
323.05
 30
0
 11
87.9419
 21
323.05
 31
0
  0
ARC
  5
A8B
330
A02
100
AcDbEntity
  8
Shape2DView002
100
AcDbCircle
 10
78.54
 20
322.943
 30
0
 40
0.213333
100
AcDbArc
 50
30
 51
-120
  0
LINE
  5
A8C
330
A02
100
AcDbEntity
  8
Shape2DView002
100
AcDbLine
 10
78.4333
 20
322.759
 30
0
 11
78.4333
 21
320
 31
0
  0
LINE
  5
A8D
330
A02
100
AcDbEntity
  8
Shape2DView002
100
AcDbLine
 10
54.9
 20
320
 30
0
 11
78.4333
 21
320
 31
0
  0
LINE
  5
A8E
330
A02
100
AcDbEntity
  8
Shape2DView002
100
AcDbLine
 10
54.9
 20
322.759
 30
0
 11
54.9
 21
320
 31
0
  0
ARC
  5
A8F
330
A02
100
AcDbEntity
  8
Shape2DView002
100
AcDbCircle
 10
54.7933
 20
322.943
 30
0
 40
0.213333
100
AcDbArc
 50
-60
 51
150
  0
LINE
  5
A90
330
A02
100
AcDbEntity
  8
Shape2DView002
100
AcDbLine
 10
45.3914
 20
323.05
 30
0
 11
54.6086
 21
323.05
 31
0
  0
ARC
  5
A91
330
A02
100
AcDbEntity
  8
Shape2DView002
100
AcDbCircle
 10
45.2067
 20
322.943
 30
0
 40
0.213333
100
AcDbArc
 50
30
 51
-120
  0
LINE
  5
A92
330
A02
100
AcDbEntity
  8
Shape2DView002
100
AcDbLine
 10
45.1
 20
322.759
 30
0
 11
45.1
 21
320
 31
0
  0
LINE
  5
A93
330
A02
100
AcDbEntity
  8
Shape2DView002
100
AcDbLine
 10
21.5667
 20
320
 30
0
 11
45.1
 21
320
 31
0
  0
LINE
  5
A94
330
A02
100
AcDbEntity
  8
Shape2DView002
100
AcDbLine
 10
21.5667
 20
322.759
 30
0
 11
21.5667
 21
320
 31
0
  0
ARC
  5
A95
330
A02
100
AcDbEntity
  8
Shape2DView002
100
AcDbCircle
 10
21.46
 20
322.943
 30
0
 40
0.213333
100
AcDbArc
 50
-60
 51
150
  0
LINE
  5
A96
330
A02
100
AcDbEntity
  8
Shape2DView002
100
AcDbLine
 10
12.0581
 20
323.05
 30
0
 11
21.2752
 21
323.05
 31
0
  0
ARC
  5
A97
330
A02
100
AcDbEntity
  8
Shape2DView002
100
AcDbCircle
 10
11.8733
 20
322.943
 30
0
 40
0.213333
100
AcDbArc
 50
30
 51
-120
  0
LINE
  5
A98
330
A02
100
AcDbEntity
  8
Shape2DView002
100
AcDbLine
 10
11.7667
 20
322.759
 30
0
 11
11.7667
 21
320
 31
0
  0
LINE
  5
A99
330
A02
100
AcDbEntity
  8
Shape2DView002
100
AcDbLine
 10
0
 20
320
 30
0
 11
11.7667
 21
320
 31
0
  0
LINE
  5
A9A
330
A02
100
AcDbEntity
  8
Shape2DView002
100
AcDbLine
 10
0
 20
630
 30
0
 11
0
 21
320
 31
0
  0
LINE
  5
A9B
330
A02
100
AcDbEntity
  8
Shape2DView002
100
AcDbLine
 10
11.7667
 20
630
 30
0
 11
0
 21
630
 31
0
  0
LINE
  5
A9C
330
A02
100
AcDbEntity
  8
Shape2DView002
100
AcDbLine
 10
11.7667
 20
630
 30
0
 11
11.7667
 21
627.241
 31
0
  0
ARC
  5
A9D
330
A02
100
AcDbEntity
  8
Shape2DView002
100
AcDbCircle
 10
11.8733
 20
627.057
 30
0
 40
0.213333
100
AcDbArc
 50
120
 51
-90
  0
ARC
  5
A9E
330
A02
100
AcDbEntity
  8
Shape2DView002
100
AcDbCircle
 10
11.8733
 20
627.057
 30
0
 40
0.213333
100
AcDbArc
 50
-90
 51
-30
  0
LINE
  5
A9F
330
A02
100
AcDbEntity
  8
Shape2DView002
100
AcDbLine
 10
12.0581
 20
626.95
 30
0
 11
21.2752
 21
626.95
 31
0
  0
ARC
  5
AA0
330
A02
100
AcDbEntity
  8
Shape2DView002
100
AcDbCircle
 10
21.46
 20
627.057
 30
0
 40
0.213333
100
AcDbArc
 50
-150
 51
-90
  0
ARC
  5
AA1
330
A02
100
AcDbEntity
  8
Shape2DView002
100
AcDbCircle
 10
21.46
 20
627.057
 30
0
 40
0.213333
100
AcDbArc
 50
-90
 51
60
  0
LINE
  5
AA2
330
A02
100
AcDbEntity
  8
Shape2DView002
100
AcDbLine
 10
21.5667
 20
630
 30
0
 11
21.5667
 21
627.241
 31
0
  0
LINE
  5
AA3
330
A02
100
AcDbEntity
  8
Shape2DView002
100
AcDbLine
 10
45.1
 20
630
 30
0
 11
21.5667
 21
630
 31
0
  0
LINE
  5
AA4
330
A02
100
AcDbEntity
  8
Shape2DView002
100
AcDbLine
 10
45.1
 20
630
 30
0
 11
45.1
 21
627.241
 31
0
  0
ARC
  5
AA5
330
A02
100
AcDbEntity
  8
Shape2DView002
100
AcDbCircle
 10
45.2067
 20
627.057
 30
0
 40
0.213333
100
AcDbArc
 50
120
 51
-90
  0
ARC
  5
AA6
330
A02
100
AcDbEntity
  8
Shape2DView002
100
AcDbCircle
 10
45.2067
 20
627.057
 30
0
 40
0.213333
100
AcDbArc
 50
-90
 51
-30
  0
LINE
  5
AA7
330
A02
100
AcDbEntity
  8
Shape2DView002
100
AcDbLine
 10
45.3914
 20
626.95
 30
0
 11
54.6086
 21
626.95
 31
0
  0
ARC
  5
AA8
330
A02
100
AcDbEntity
  8
Shape2DView002
100
AcDbCircle
 10
54.7933
 20
627.057
 30
0
 40
0.213333
100
AcDbArc
 50
-150
 51
-90
  0
ARC
  5
AA9
330
A02
100
AcDbEntity
  8
Shape2DView002
100
AcDbCircle
 10
54.7933
 20
627.057
 30
0
 40
0.213333
100
AcDbArc
 50
-90
 51
60
  0
LINE
  5
AAA
330
A02
100
AcDbEntity
  8
Shape2DView002
100
AcDbLine
 10
54.9
 20
630
 30
0
 11
54.9
 21
627.241
 31
0
  0
LINE
  5
AAB
330
A02
100
AcDbEntity
  8
Shape2DView002
100
AcDbLine
 10
78.4333
 20
630
 30
0
 11
54.9
 21
630
 31
0
  0
LINE
  5
AAC
330
A02
100
AcDbEntity
  8
Shape2DView002
100
AcDbLine
 10
78.4333
 20
630
 30
0
 11
78.4333
 21
627.241
 31
0
  0
ARC
  5
AAD
330
A02
100
AcDbEntity
  8
Shape2DView002
100
AcDbCircle
 10
78.54
 20
627.057
 30
0
 40
0.213333
100
AcDbArc
 50
120
 51
-90
  0
ARC
  5
AAE
330
A02
100
AcDbEntity
  8
Shape2DView002
100
AcDbCircle
 10
78.54
 20
627.057
 30
0
 40
0.213333
100
AcDbArc
 50
-90
 51
-30
  0
LINE
  5
AAF
330
A02
100
AcDbEntity
  8
Shape2DView002
100
AcDbLine
 10
78.7248
 20
626.95
 30
0
 11
87.9419
 21
626.95
 31
0
  0
ARC
  5
AB0
330
A02
100
AcDbEntity
  8
Shape2DView002
100
AcDbCircle
 10
88.1267
 20
627.057
 30
0
 40
0.213333
100
AcDbArc
 50
-150
 51
-90
  0
ARC
  5
AB1
330
A02
100
AcDbEntity
  8
Shape2DView002
100
AcDbCircle
 10
88.1267
 20
627.057
 30
0
 40
0.213333
100
AcDbArc
 50
-90
 51
60
  0
LINE
  5
AB2
330
A02
100
AcDbEntity
  8
Shape2DView002
100
AcDbLine
 10
88.2333
 20
630
 30
0
 11
88.2333
 21
627.241
 31
0
  0
LINE
  5
AB3
330
A02
100
AcDbEntity
  8
Shape2DView002
100
AcDbLine
 10
100
 20
630
 30
0
 11
88.2333
 21
630
 31
0
  0
LINE
  5
AB4
330
A02
100
AcDbEntity
  8
Shape2DView002
100
AcDbLine
 10
100
 20
606.567
 30
0
 11
100
 21
630
 31
0
  0
LINE
  5
AB5
330
A02
100
AcDbEntity
  8
Shape2DView002
100
AcDbLine
 10
100
 20
606.567
 30
0
 11
97.2414
 21
606.567
 31
0
  0
ARC
  5
AB6
330
A02
100
AcDbEntity
  8
Shape2DView002
100
AcDbCircle
 10
97.0567
 20
606.46
 30
0
 40
0.213333
100
AcDbArc
 50
30
 51
180
  0
ARC
  5
AB7
330
A02
100
AcDbEntity
  8
Shape2DView002
100
AcDbCircle
 10
97.0567
 20
606.46
 30
0
 40
0.213333
100
AcDbArc
 50
180
 51
-120
  0
LINE
  5
AB8
330
A02
100
AcDbEntity
  8
Shape2DView002
100
AcDbLine
 10
96.95
 20
606.275
 30
0
 11
96.95
 21
597.058
 31
0
  0
ARC
  5
AB9
330
A02
100
AcDbEntity
  8
Shape2DView002
100
AcDbCircle
 10
97.0567
 20
596.873
 30
0
 40
0.213333
100
AcDbArc
 50
120
 51
180
  0
ARC
  5
ABA
330
A02
100
AcDbEntity
  8
Shape2DView002
100
AcDbCircle
 10
97.0567
 20
596.873
 30
0
 40
0.213333
100
AcDbArc
 50
180
 51
-30
  0
LINE
  5
ABB
330
A02
100
AcDbEntity
  8
Shape2DView002
100
AcDbLine
 10
100
 20
596.767
 30
0
 11
97.2414
 21
596.767
 31
0
  0
LINE
  5
ABC
330
A02
100
AcDbEntity
  8
Shape2DView002
100
AcDbLine
 10
100
 20
555.9
 30
0
 11
100
 21
596.767
 31
0
  0
LINE
  5
ABD
330
A02
100
AcDbEntity
  8
Shape2DView002
100
AcDbLine
 10
100
 20
555.9
 30
0
 11
97.2414
 21
555.9
 31
0
  0
ARC
  5
ABE
330
A02
100
AcDbEntity
  8
Shape2DView002
100
AcDbCircle
 10
97.0567
 20
555.793
 30
0
 40
0.213333
100
AcDbArc
 50
30
 51
180
  0
ARC
  5
ABF
330
A02
100
AcDbEntity
  8
Shape2DView002
100
AcDbCircle
 10
97.0567
 20
555.793
 30
0
 40
0.213333
100
AcDbArc
 50
180
 51
-120
  0
LINE
  5
AC0
330
A02
100
AcDbEntity
  8
Shape2DView002
100
AcDbLine
 10
96.95
 20
555.609
 30
0
 11
96.95
 21
546.391
 31
0
  0
ARC
  5
AC1
330
A02
100
AcDbEntity
  8
Shape2DView002
100
AcDbCircle
 10
97.0567
 20
546.207
 30
0
 40
0.213333
100
AcDbArc
 50
120
 51
180
  0
ARC
  5
AC2
330
A02
100
AcDbEntity
  8
Shape2DView002
100
AcDbCircle
 10
97.0567
 20
546.207
 30
0
 40
0.213333
100
AcDbArc
 50
180
 51
-30
  0
LINE
  5
AC3
330
A02
100
AcDbEntity
  8
Shape2DView002
100
AcDbLine
 10
100
 20
546.1
 30
0
 11
97.2414
 21
546.1
 31
0
  0
LINE
  5
AC4
330
A02
100
AcDbEntity
  8
Shape2DView002
100
AcDbLine
 10
100
 20
505.233
 30
0
 11
100
 21
546.1
 31
0
  0
LINE
  5
AC5
330
A02
100
AcDbEntity
  8
Shape2DView002
100
AcDbLine
 10
100
 20
505.233
 30
0
 11
97.2414
 21
505.233
 31
0
  0
ARC
  5
AC6
330
A02
100
AcDbEntity
  8
Shape2DView002
100
AcDbCircle
 10
97.0567
 20
505.127
 30
0
 40
0.213333
100
AcDbArc
 50
30
 51
180
  0
ARC
  5
AC7
330
A02
100
AcDbEntity
  8
Shape2DView002
100
AcDbCircle
 10
97.0567
 20
505.127
 30
0
 40
0.213333
100
AcDbArc
 50
180
 51
-120
  0
LINE
  5
AC8
330
A02
100
AcDbEntity
  8
Shape2DView002
100
AcDbLine
 10
96.95
 20
504.942
 30
0
 11
96.95
 21
495.725
 31
0
  0
ARC
  5
AC9
330
A02
100
AcDbEntity
  8
Shape2DView002
100
AcDbCircle
 10
97.0567
 20
495.54
 30
0
 40
0.213333
100
AcDbArc
 50
120
 51
180
  0
ARC
  5
ACA
330
A02
100
AcDbEntity
  8
Shape2DView002
100
AcDbCircle
 10
97.0567
 20
495.54
 30
0
 40
0.213333
100
AcDbArc
 50
180
 51
-30
  0
LINE
  5
ACB
330
A02
100
AcDbEntity
  8
Shape2DView002
100
AcDbLine
 10
100
 20
495.433
 30
0
 11
97.2414
 21
495.433
 31
0
  0
LINE
  5
ACC
330
A02
100
AcDbEntity
  8
Shape2DView002
100
AcDbLine
 10
100
 20
454.567
 30
0
 11
100
 21
495.433
 31
0
  0
LINE
  5
ACD
330
A02
100
AcDbEntity
  8
Shape2DView002
100
AcDbLine
 10
100
 20
454.567
 30
0
 11
97.2414
 21
454.567
 31
0
  0
ARC
  5
ACE
330
A02
100
AcDbEntity
  8
Shape2DView002
100
AcDbCircle
 10
97.0567
 20
454.46
 30
0
 40
0.213333
100
AcDbArc
 50
30
 51
180
  0
ARC
  5
ACF
330
A02
100
AcDbEntity
  8
Shape2DView002
100
AcDbCircle
 10
97.0567
 20
454.46
 30
0
 40
0.213333
100
AcDbArc
 50
180
 51
-120
  0
LINE
  5
AD0
330
A02
100
AcDbEntity
  8
Shape2DView002
100
AcDbLine
 10
96.95
 20
454.275
 30
0
 11
96.95
 21
445.058
 31
0
  0
ARC
  5
AD1
330
A02
100
AcDbEntity
  8
Shape2DView002
100
AcDbCircle
 10
97.0567
 20
444.873
 30
0
 40
0.213333
100
AcDbArc
 50
120
 51
180
  0
ARC
  5
AD2
330
A02
100
AcDbEntity
  8
Shape2DView002
100
AcDbCircle
 10
97.0567
 20
444.873
 30
0
 40
0.213333
100
AcDbArc
 50
180
 51
-30
  0
LINE
  5
AD3
330
A02
100
AcDbEntity
  8
Shape2DView002
100
AcDbLine
 10
100
 20
444.767
 30
0
 11
97.2414
 21
444.767
 31
0
  0
LINE
  5
AD4
330
A02
100
AcDbEntity
  8
Shape2DView002
100
AcDbLine
 10
100
 20
403.9
 30
0
 11
100
 21
444.767
 31
0
  0
LINE
  5
AD5
330
A02
100
AcDbEntity
  8
Shape2DView002
100
AcDbLine
 10
100
 20
403.9
 30
0
 11
97.2414
 21
403.9
 31
0
  0
ARC
  5
AD6
330
A02
100
AcDbEntity
  8
Shape2DView002
100
AcDbCircle
 10
97.0567
 20
403.793
 30
0
 40
0.213333
100
AcDbArc
 50
30
 51
180
  0
ARC
  5
AD7
330
A02
100
AcDbEntity
  8
Shape2DView002
100
AcDbCircle
 10
97.0567
 20
403.793
 30
0
 40
0.213333
100
AcDbArc
 50
180
 51
-120
  0
LINE
  5
AD8
330
A02
100
AcDbEntity
  8
Shape2DView002
100
AcDbLine
 10
96.95
 20
403.609
 30
0
 11
96.95
 21
394.391
 31
0
  0
ARC
  5
AD9
330
A02
100
AcDbEntity
  8
Shape2DView002
100
AcDbCircle
 10
97.0567
 20
394.207
 30
0
 40
0.213333
100
AcDbArc
 50
120
 51
180
  0
ARC
  5
ADA
330
A02
100
AcDbEntity
  8
Shape2DView002
100
AcDbCircle
 10
97.0567
 20
394.207
 30
0
 40
0.213333
100
AcDbArc
 50
180
 51
-30
  0
LINE
  5
ADB
330
A02
100
AcDbEntity
  8
Shape2DView002
100
AcDbLine
 10
100
 20
394.1
 30
0
 11
97.2414
 21
394.1
 31
0
  0
LINE
  5
ADC
330
A02
100
AcDbEntity
  8
Shape2DView002
100
AcDbLine
 10
100
 20
353.233
 30
0
 11
100
 21
394.1
 31
0
  0
LINE
  5
ADD
330
A02
100
AcDbEntity
  8
Shape2DView002
100
AcDbLine
 10
100
 20
353.233
 30
0
 11
97.2414
 21
353.233
 31
0
  0
ARC
  5
ADE
330
A02
100
AcDbEntity
  8
Shape2DView002
100
AcDbCircle
 10
97.0567
 20
353.127
 30
0
 40
0.213333
100
AcDbArc
 50
30
 51
180
  0
ARC
  5
ADF
330
A02
100
AcDbEntity
  8
Shape2DView002
100
AcDbCircle
 10
97.0567
 20
353.127
 30
0
 40
0.213333
100
AcDbArc
 50
180
 51
-120
  0
LINE
  5
AE0
330
A02
100
AcDbEntity
  8
Shape2DView002
100
AcDbLine
 10
96.95
 20
352.942
 30
0
 11
96.95
 21
343.725
 31
0
  0
ARC
  5
AE1
330
A02
100
AcDbEntity
  8
Shape2DView002
100
AcDbCircle
 10
97.0567
 20
343.54
 30
0
 40
0.213333
100
AcDbArc
 50
120
 51
180
  0
ARC
  5
AE2
330
A02
100
AcDbEntity
  8
Shape2DView002
100
AcDbCircle
 10
97.0567
 20
343.54
 30
0
 40
0.213333
100
AcDbArc
 50
180
 51
-30
  0
LINE
  5
AE3
330
A02
100
AcDbEntity
  8
Shape2DView002
100
AcDbLine
 10
100
 20
343.433
 30
0
 11
97.2414
 21
343.433
 31
0
  0
LINE
  5
AE4
330
A02
100
AcDbEntity
  8
Shape2DView002
100
AcDbLine
 10
23.5667
 20
477.768
 30
0
 11
23.5667
 21
475.232
 31
0
  0
ARC
  5
AE5
330
A02
100
AcDbEntity
  8
Shape2DView002
100
AcDbCircle
 10
23.4633
 20
477.947
 30
0
 40
0.206667
100
AcDbArc
 50
-60
 51
150
  0
LINE
  5
AE6
330
A02
100
AcDbEntity
  8
Shape2DView002
100
AcDbLine
 10
14.049
 20
478.05
 30
0
 11
23.2844
 21
478.05
 31
0
  0
ARC
  5
AE7
330
A02
100
AcDbEntity
  8
Shape2DView002
100
AcDbCircle
 10
13.87
 20
477.947
 30
0
 40
0.206667
100
AcDbArc
 50
30
 51
-120
  0
LINE
  5
AE8
330
A02
100
AcDbEntity
  8
Shape2DView002
100
AcDbLine
 10
13.7667
 20
477.768
 30
0
 11
13.7667
 21
475.232
 31
0
  0
ARC
  5
AE9
330
A02
100
AcDbEntity
  8
Shape2DView002
100
AcDbCircle
 10
13.87
 20
475.053
 30
0
 40
0.206667
100
AcDbArc
 50
120
 51
-90
  0
ARC
  5
AEA
330
A02
100
AcDbEntity
  8
Shape2DView002
100
AcDbCircle
 10
13.87
 20
475.053
 30
0
 40
0.206667
100
AcDbArc
 50
-90
 51
-30
  0
LINE
  5
AEB
330
A02
100
AcDbEntity
  8
Shape2DView002
100
AcDbLine
 10
14.049
 20
474.95
 30
0
 11
23.2844
 21
474.95
 31
0
  0
ARC
  5
AEC
330
A02
100
AcDbEntity
  8
Shape2DView002
100
AcDbCircle
 10
23.4633
 20
475.053
 30
0
 40
0.206667
100
AcDbArc
 50
-150
 51
-90
  0
ARC
  5
AED
330
A02
100
AcDbEntity
  8
Shape2DView002
100
AcDbCircle
 10
23.4633
 20
475.053
 30
0
 40
0.206667
100
AcDbArc
 50
-90
 51
60
  0
LINE
  5
AEE
330
A02
100
AcDbEntity
  8
Shape2DView002
100
AcDbLine
 10
54.9
 20
477.768
 30
0
 11
54.9
 21
475.232
 31
0
  0
ARC
  5
AEF
330
A02
100
AcDbEntity
  8
Shape2DView002
100
AcDbCircle
 10
54.7967
 20
477.947
 30
0
 40
0.206667
100
AcDbArc
 50
-60
 51
150
  0
LINE
  5
AF0
330
A02
100
AcDbEntity
  8
Shape2DView002
100
AcDbLine
 10
45.3823
 20
478.05
 30
0
 11
54.6177
 21
478.05
 31
0
  0
ARC
  5
AF1
330
A02
100
AcDbEntity
  8
Shape2DView002
100
AcDbCircle
 10
45.2033
 20
477.947
 30
0
 40
0.206667
100
AcDbArc
 50
30
 51
-120
  0
LINE
  5
AF2
330
A02
100
AcDbEntity
  8
Shape2DView002
100
AcDbLine
 10
45.1
 20
477.768
 30
0
 11
45.1
 21
475.232
 31
0
  0
ARC
  5
AF3
330
A02
100
AcDbEntity
  8
Shape2DView002
100
AcDbCircle
 10
45.2033
 20
475.053
 30
0
 40
0.206667
100
AcDbArc
 50
120
 51
-90
  0
ARC
  5
AF4
330
A02
100
AcDbEntity
  8
Shape2DView002
100
AcDbCircle
 10
45.2033
 20
475.053
 30
0
 40
0.206667
100
AcDbArc
 50
-90
 51
-30
  0
LINE
  5
AF5
330
A02
100
AcDbEntity
  8
Shape2DView002
100
AcDbLine
 10
45.3823
 20
474.95
 30
0
 11
54.6177
 21
474.95
 31
0
  0
ARC
  5
AF6
330
A02
100
AcDbEntity
  8
Shape2DView002
100
AcDbCircle
 10
54.7967
 20
475.053
 30
0
 40
0.206667
100
AcDbArc
 50
-150
 51
-90
  0
ARC
  5
AF7
330
A02
100
AcDbEntity
  8
Shape2DView002
100
AcDbCircle
 10
54.7967
 20
475.053
 30
0
 40
0.206667
100
AcDbArc
 50
-90
 51
60
  0
LINE
  5
AF8
330
A02
100
AcDbEntity
  8
Shape2DView002
100
AcDbLine
 10
86.2333
 20
477.768
 30
0
 11
86.2333
 21
475.232
 31
0
  0
ARC
  5
AF9
330
A02
100
AcDbEntity
  8
Shape2DView002
100
AcDbCircle
 10
86.13
 20
477.947
 30
0
 40
0.206667
100
AcDbArc
 50
-60
 51
150
  0
LINE
  5
AFA
330
A02
100
AcDbEntity
  8
Shape2DView002
100
AcDbLine
 10
76.7156
 20
478.05
 30
0
 11
85.951
 21
478.05
 31
0
  0
ARC
  5
AFB
330
A02
100
AcDbEntity
  8
Shape2DView002
100
AcDbCircle
 10
76.5367
 20
477.947
 30
0
 40
0.206667
100
AcDbArc
 50
30
 51
-120
  0
LINE
  5
AFC
330
A02
100
AcDbEntity
  8
Shape2DView002
100
AcDbLine
 10
76.4333
 20
477.768
 30
0
 11
76.4333
 21
475.232
 31
0
  0
ARC
  5
AFD
330
A02
100
AcDbEntity
  8
Shape2DView002
100
AcDbCircle
 10
76.5367
 20
475.053
 30
0
 40
0.206667
100
AcDbArc
 50
120
 51
-90
  0
ARC
  5
AFE
330
A02
100
AcDbEntity
  8
Shape2DView002
100
AcDbCircle
 10
76.5367
 20
475.053
 30
0
 40
0.206667
100
AcDbArc
 50
-90
 51
-30
  0
LINE
  5
AFF
330
A02
100
AcDbEntity
  8
Shape2DView002
100
AcDbLine
 10
76.7156
 20
474.95
 30
0
 11
85.951
 21
474.95
 31
0
  0
ARC
  5
B00
330
A02
100
AcDbEntity
  8
Shape2DView002
100
AcDbCircle
 10
86.13
 20
475.053
 30
0
 40
0.206667
100
AcDbArc
 50
-150
 51
-90
  0
ARC
  5
B01
330
A02
100
AcDbEntity
  8
Shape2DView002
100
AcDbCircle
 10
86.13
 20
475.053
 30
0
 40
0.206667
100
AcDbArc
 50
-90
 51
60
  0
LINE
  5
B02
330
A02
100
AcDbEntity
  8
Shape2DView003
100
AcDbLine
 10
210
 20
320
 30
0
 11
210
 21
343.433
 31
0
  0
LINE
  5
B03
330
A02
100
AcDbEntity
  8
Shape2DView003
100
AcDbLine
 10
198.233
 20
320
 30
0
 11
210
 21
320
 31
0
  0
LINE
  5
B04
330
A02
100
AcDbEntity
  8
Shape2DView003
100
AcDbLine
 10
198.233
 20
322.759
 30
0
 11
198.233
 21
320
 31
0
  0
ARC
  5
B05
330
A02
100
AcDbEntity
  8
Shape2DView003
100
AcDbCircle
 10
198.127
 20
322.943
 30
0
 40
0.213333
100
AcDbArc
 50
-60
 51
150
  0
LINE
  5
B06
330
A02
100
AcDbEntity
  8
Shape2DView003
100
AcDbLine
 10
197.942
 20
323.05
 30
0
 11
188.725
 21
323.05
 31
0
  0
ARC
  5
B07
330
A02
100
AcDbEntity
  8
Shape2DView003
100
AcDbCircle
 10
188.54
 20
322.943
 30
0
 40
0.213333
100
AcDbArc
 50
30
 51
-120
  0
LINE
  5
B08
330
A02
100
AcDbEntity
  8
Shape2DView003
100
AcDbLine
 10
188.433
 20
322.759
 30
0
 11
188.433
 21
320
 31
0
  0
LINE
  5
B09
330
A02
100
AcDbEntity
  8
Shape2DView003
100
AcDbLine
 10
164.9
 20
320
 30
0
 11
188.433
 21
320
 31
0
  0
LINE
  5
B0A
330
A02
100
AcDbEntity
  8
Shape2DView003
100
AcDbLine
 10
164.9
 20
322.759
 30
0
 11
164.9
 21
320
 31
0
  0
ARC
  5
B0B
330
A02
100
AcDbEntity
  8
Shape2DView003
100
AcDbCircle
 10
164.793
 20
322.943
 30
0
 40
0.213333
100
AcDbArc
 50
-60
 51
150
  0
LINE
  5
B0C
330
A02
100
AcDbEntity
  8
Shape2DView003
100
AcDbLine
 10
164.609
 20
323.05
 30
0
 11
155.391
 21
323.05
 31
0
  0
ARC
  5
B0D
330
A02
100
AcDbEntity
  8
Shape2DView003
100
AcDbCircle
 10
155.207
 20
322.943
 30
0
 40
0.213333
100
AcDbArc
 50
30
 51
-120
  0
LINE
  5
B0E
330
A02
100
AcDbEntity
  8
Shape2DView003
100
AcDbLine
 10
155.1
 20
322.759
 30
0
 11
155.1
 21
320
 31
0
  0
LINE
  5
B0F
330
A02
100
AcDbEntity
  8
Shape2DView003
100
AcDbLine
 10
131.567
 20
320
 30
0
 11
155.1
 21
320
 31
0
  0
LINE
  5
B10
330
A02
100
AcDbEntity
  8
Shape2DView003
100
AcDbLine
 10
131.567
 20
322.759
 30
0
 11
131.567
 21
320
 31
0
  0
ARC
  5
B11
330
A02
100
AcDbEntity
  8
Shape2DView003
100
AcDbCircle
 10
131.46
 20
322.943
 30
0
 40
0.213333
100
AcDbArc
 50
-60
 51
150
  0
LINE
  5
B12
330
A02
100
AcDbEntity
  8
Shape2DView003
100
AcDbLine
 10
131.275
 20
323.05
 30
0
 11
122.058
 21
323.05
 31
0
  0
ARC
  5
B13
330
A02
100
AcDbEntity
  8
Shape2DView003
100
AcDbCircle
 10
121.873
 20
322.943
 30
0
 40
0.213333
100
AcDbArc
 50
30
 51
-120
  0
LINE
  5
B14
330
A02
100
AcDbEntity
  8
Shape2DView003
100
AcDbLine
 10
121.767
 20
322.759
 30
0
 11
121.767
 21
320
 31
0
  0
LINE
  5
B15
330
A02
100
AcDbEntity
  8
Shape2DView003
100
AcDbLine
 10
110
 20
320
 30
0
 11
121.767
 21
320
 31
0
  0
LINE
  5
B16
330
A02
100
AcDbEntity
  8
Shape2DView003
100
AcDbLine
 10
110
 20
630
 30
0
 11
110
 21
320
 31
0
  0
LINE
  5
B17
330
A02
100
AcDbEntity
  8
Shape2DView003
100
AcDbLine
 10
121.767
 20
630
 30
0
 11
110
 21
630
 31
0
  0
LINE
  5
B18
330
A02
100
AcDbEntity
  8
Shape2DView003
100
AcDbLine
 10
121.767
 20
630
 30
0
 11
121.767
 21
627.241
 31
0
  0
ARC
  5
B19
330
A02
100
AcDbEntity
  8
Shape2DView003
100
AcDbCircle
 10
121.873
 20
627.057
 30
0
 40
0.213333
100
AcDbArc
 50
120
 51
-90
  0
ARC
  5
B1A
330
A02
100
AcDbEntity
  8
Shape2DView003
100
AcDbCircle
 10
121.873
 20
627.057
 30
0
 40
0.213333
100
AcDbArc
 50
-90
 51
-30
  0
LINE
  5
B1B
330
A02
100
AcDbEntity
  8
Shape2DView003
100
AcDbLine
 10
131.275
 20
626.95
 30
0
 11
122.058
 21
626.95
 31
0
  0
ARC
  5
B1C
330
A02
100
AcDbEntity
  8
Shape2DView003
100
AcDbCircle
 10
131.46
 20
627.057
 30
0
 40
0.213333
100
AcDbArc
 50
-150
 51
-90
  0
ARC
  5
B1D
330
A02
100
AcDbEntity
  8
Shape2DView003
100
AcDbCircle
 10
131.46
 20
627.057
 30
0
 40
0.213333
100
AcDbArc
 50
-90
 51
60
  0
LINE
  5
B1E
330
A02
100
AcDbEntity
  8
Shape2DView003
100
AcDbLine
 10
131.567
 20
630
 30
0
 11
131.567
 21
627.241
 31
0
  0
LINE
  5
B1F
330
A02
100
AcDbEntity
  8
Shape2DView003
100
AcDbLine
 10
155.1
 20
630
 30
0
 11
131.567
 21
630
 31
0
  0
LINE
  5
B20
330
A02
100
AcDbEntity
  8
Shape2DView003
100
AcDbLine
 10
155.1
 20
630
 30
0
 11
155.1
 21
627.241
 31
0
  0
ARC
  5
B21
330
A02
100
AcDbEntity
  8
Shape2DView003
100
AcDbCircle
 10
155.207
 20
627.057
 30
0
 40
0.213333
100
AcDbArc
 50
120
 51
-90
  0
ARC
  5
B22
330
A02
100
AcDbEntity
  8
Shape2DView003
100
AcDbCircle
 10
155.207
 20
627.057
 30
0
 40
0.213333
100
AcDbArc
 50
-90
 51
-30
  0
LINE
  5
B23
330
A02
100
AcDbEntity
  8
Shape2DView003
100
AcDbLine
 10
164.609
 20
626.95
 30
0
 11
155.391
 21
626.95
 31
0
  0
ARC
  5
B24
330
A02
100
AcDbEntity
  8
Shape2DView003
100
AcDbCircle
 10
164.793
 20
627.057
 30
0
 40
0.213333
100
AcDbArc
 50
-150
 51
-90
  0
ARC
  5
B25
330
A02
100
AcDbEntity
  8
Shape2DView003
100
AcDbCircle
 10
164.793
 20
627.057
 30
0
 40
0.213333
100
AcDbArc
 50
-90
 51
60
  0
LINE
  5
B26
330
A02
100
AcDbEntity
  8
Shape2DView003
100
AcDbLine
 10
164.9
 20
630
 30
0
 11
164.9
 21
627.241
 31
0
  0
LINE
  5
B27
330
A02
100
AcDbEntity
  8
Shape2DView003
100
AcDbLine
 10
188.433
 20
630
 30
0
 11
164.9
 21
630
 31
0
  0
LINE
  5
B28
330
A02
100
AcDbEntity
  8
Shape2DView003
100
AcDbLine
 10
188.433
 20
630
 30
0
 11
188.433
 21
627.241
 31
0
  0
ARC
  5
B29
330
A02
100
AcDbEntity
  8
Shape2DView003
100
AcDbCircle
 10
188.54
 20
627.057
 30
0
 40
0.213333
100
AcDbArc
 50
120
 51
-90
  0
ARC
  5
B2A
330
A02
100
AcDbEntity
  8
Shape2DView003
100
AcDbCircle
 10
188.54
 20
627.057
 30
0
 40
0.213333
100
AcDbArc
 50
-90
 51
-30
  0
LINE
  5
B2B
330
A02
100
AcDbEntity
  8
Shape2DView003
100
AcDbLine
 10
197.942
 20
626.95
 30
0
 11
188.725
 21
626.95
 31
0
  0
ARC
  5
B2C
330
A02
100
AcDbEntity
  8
Shape2DView003
100
AcDbCircle
 10
198.127
 20
627.057
 30
0
 40
0.213333
100
AcDbArc
 50
-150
 51
-90
  0
ARC
  5
B2D
330
A02
100
AcDbEntity
  8
Shape2DView003
100
AcDbCircle
 10
198.127
 20
627.057
 30
0
 40
0.213333
100
AcDbArc
 50
-90
 51
60
  0
LINE
  5
B2E
330
A02
100
AcDbEntity
  8
Shape2DView003
100
AcDbLine
 10
198.233
 20
630
 30
0
 11
198.233
 21
627.241
 31
0
  0
LINE
  5
B2F
330
A02
100
AcDbEntity
  8
Shape2DView003
100
AcDbLine
 10
210
 20
630
 30
0
 11
198.233
 21
630
 31
0
  0
LINE
  5
B30
330
A02
100
AcDbEntity
  8
Shape2DView003
100
AcDbLine
 10
210
 20
606.567
 30
0
 11
210
 21
630
 31
0
  0
LINE
  5
B31
330
A02
100
AcDbEntity
  8
Shape2DView003
100
AcDbLine
 10
210
 20
606.567
 30
0
 11
207.241
 21
606.567
 31
0
  0
ARC
  5
B32
330
A02
100
AcDbEntity
  8
Shape2DView003
100
AcDbCircle
 10
207.057
 20
606.46
 30
0
 40
0.213333
100
AcDbArc
 50
30
 51
180
  0
ARC
  5
B33
330
A02
100
AcDbEntity
  8
Shape2DView003
100
AcDbCircle
 10
207.057
 20
606.46
 30
0
 40
0.213333
100
AcDbArc
 50
180
 51
-120
  0
LINE
  5
B34
330
A02
100
AcDbEntity
  8
Shape2DView003
100
AcDbLine
 10
206.95
 20
597.058
 30
0
 11
206.95
 21
606.275
 31
0
  0
ARC
  5
B35
330
A02
100
AcDbEntity
  8
Shape2DView003
100
AcDbCircle
 10
207.057
 20
596.873
 30
0
 40
0.213333
100
AcDbArc
 50
120
 51
180
  0
ARC
  5
B36
330
A02
100
AcDbEntity
  8
Shape2DView003
100
AcDbCircle
 10
207.057
 20
596.873
 30
0
 40
0.213333
100
AcDbArc
 50
180
 51
-30
  0
LINE
  5
B37
330
A02
100
AcDbEntity
  8
Shape2DView003
100
AcDbLine
 10
210
 20
596.767
 30
0
 11
207.241
 21
596.767
 31
0
  0
LINE
  5
B38
330
A02
100
AcDbEntity
  8
Shape2DView003
100
AcDbLine
 10
210
 20
555.9
 30
0
 11
210
 21
596.767
 31
0
  0
LINE
  5
B39
330
A02
100
AcDbEntity
  8
Shape2DView003
100
AcDbLine
 10
210
 20
555.9
 30
0
 11
207.241
 21
555.9
 31
0
  0
ARC
  5
B3A
330
A02
100
AcDbEntity
  8
Shape2DView003
100
AcDbCircle
 10
207.057
 20
555.793
 30
0
 40
0.213333
100
AcDbArc
 50
30
 51
180
  0
ARC
  5
B3B
330
A02
100
AcDbEntity
  8
Shape2DView003
100
AcDbCircle
 10
207.057
 20
555.793
 30
0
 40
0.213333
100
AcDbArc
 50
180
 51
-120
  0
LINE
  5
B3C
330
A02
100
AcDbEntity
  8
Shape2DView003
100
AcDbLine
 10
206.95
 20
546.391
 30
0
 11
206.95
 21
555.609
 31
0
  0
ARC
  5
B3D
330
A02
100
AcDbEntity
  8
Shape2DView003
100
AcDbCircle
 10
207.057
 20
546.207
 30
0
 40
0.213333
100
AcDbArc
 50
120
 51
180
  0
ARC
  5
B3E
330
A02
100
AcDbEntity
  8
Shape2DView003
100
AcDbCircle
 10
207.057
 20
546.207
 30
0
 40
0.213333
100
AcDbArc
 50
180
 51
-30
  0
LINE
  5
B3F
330
A02
100
AcDbEntity
  8
Shape2DView003
100
AcDbLine
 10
210
 20
546.1
 30
0
 11
207.241
 21
546.1
 31
0
  0
LINE
  5
B40
330
A02
100
AcDbEntity
  8
Shape2DView003
100
AcDbLine
 10
210
 20
505.233
 30
0
 11
210
 21
546.1
 31
0
  0
LINE
  5
B41
330
A02
100
AcDbEntity
  8
Shape2DView003
100
AcDbLine
 10
210
 20
505.233
 30
0
 11
207.241
 21
505.233
 31
0
  0
ARC
  5
B42
330
A02
100
AcDbEntity
  8
Shape2DView003
100
AcDbCircle
 10
207.057
 20
505.127
 30
0
 40
0.213333
100
AcDbArc
 50
30
 51
180
  0
ARC
  5
B43
330
A02
100
AcDbEntity
  8
Shape2DView003
100
AcDbCircle
 10
207.057
 20
505.127
 30
0
 40
0.213333
100
AcDbArc
 50
180
 51
-120
  0
LINE
  5
B44
330
A02
100
AcDbEntity
  8
Shape2DView003
100
AcDbLine
 10
206.95
 20
495.725
 30
0
 11
206.95
 21
504.942
 31
0
  0
ARC
  5
B45
330
A02
100
AcDbEntity
  8
Shape2DView003
100
AcDbCircle
 10
207.057
 20
495.54
 30
0
 40
0.213333
100
AcDbArc
 50
120
 51
180
  0
ARC
  5
B46
330
A02
100
AcDbEntity
  8
Shape2DView003
100
AcDbCircle
 10
207.057
 20
495.54
 30
0
 40
0.213333
100
AcDbArc
 50
180
 51
-30
  0
LINE
  5
B47
330
A02
100
AcDbEntity
  8
Shape2DView003
100
AcDbLine
 10
210
 20
495.433
 30
0
 11
207.241
 21
495.433
 31
0
  0
LINE
  5
B48
330
A02
100
AcDbEntity
  8
Shape2DView003
100
AcDbLine
 10
210
 20
454.567
 30
0
 11
210
 21
495.433
 31
0
  0
LINE
  5
B49
330
A02
100
AcDbEntity
  8
Shape2DView003
100
AcDbLine
 10
210
 20
454.567
 30
0
 11
207.241
 21
454.567
 31
0
  0
ARC
  5
B4A
330
A02
100
AcDbEntity
  8
Shape2DView003
100
AcDbCircle
 10
207.057
 20
454.46
 30
0
 40
0.213333
100
AcDbArc
 50
30
 51
180
  0
ARC
  5
B4B
330
A02
100
AcDbEntity
  8
Shape2DView003
100
AcDbCircle
 10
207.057
 20
454.46
 30
0
 40
0.213333
100
AcDbArc
 50
180
 51
-120
  0
LINE
  5
B4C
330
A02
100
AcDbEntity
  8
Shape2DView003
100
AcDbLine
 10
206.95
 20
445.058
 30
0
 11
206.95
 21
454.275
 31
0
  0
ARC
  5
B4D
330
A02
100
AcDbEntity
  8
Shape2DView003
100
AcDbCircle
 10
207.057
 20
444.873
 30
0
 40
0.213333
100
AcDbArc
 50
120
 51
180
  0
ARC
  5
B4E
330
A02
100
AcDbEntity
  8
Shape2DView003
100
AcDbCircle
 10
207.057
 20
444.873
 30
0
 40
0.213333
100
AcDbArc
 50
180
 51
-30
  0
LINE
  5
B4F
330
A02
100
AcDbEntity
  8
Shape2DView003
100
AcDbLine
 10
210
 20
444.767
 30
0
 11
207.241
 21
444.767
 31
0
  0
LINE
  5
B50
330
A02
100
AcDbEntity
  8
Shape2DView003
100
AcDbLine
 10
210
 20
403.9
 30
0
 11
210
 21
444.767
 31
0
  0
LINE
  5
B51
330
A02
100
AcDbEntity
  8
Shape2DView003
100
AcDbLine
 10
210
 20
403.9
 30
0
 11
207.241
 21
403.9
 31
0
  0
ARC
  5
B52
330
A02
100
AcDbEntity
  8
Shape2DView003
100
AcDbCircle
 10
207.057
 20
403.793
 30
0
 40
0.213333
100
AcDbArc
 50
30
 51
180
  0
ARC
  5
B53
330
A02
100
AcDbEntity
  8
Shape2DView003
100
AcDbCircle
 10
207.057
 20
403.793
 30
0
 40
0.213333
100
AcDbArc
 50
180
 51
-120
  0
LINE
  5
B54
330
A02
100
AcDbEntity
  8
Shape2DView003
100
AcDbLine
 10
206.95
 20
394.391
 30
0
 11
206.95
 21
403.609
 31
0
  0
ARC
  5
B55
330
A02
100
AcDbEntity
  8
Shape2DView003
100
AcDbCircle
 10
207.057
 20
394.207
 30
0
 40
0.213333
100
AcDbArc
 50
120
 51
180
  0
ARC
  5
B56
330
A02
100
AcDbEntity
  8
Shape2DView003
100
AcDbCircle
 10
207.057
 20
394.207
 30
0
 40
0.213333
100
AcDbArc
 50
180
 51
-30
  0
LINE
  5
B57
330
A02
100
AcDbEntity
  8
Shape2DView003
100
AcDbLine
 10
210
 20
394.1
 30
0
 11
207.241
 21
394.1
 31
0
  0
LINE
  5
B58
330
A02
100
AcDbEntity
  8
Shape2DView003
100
AcDbLine
 10
210
 20
353.233
 30
0
 11
210
 21
394.1
 31
0
  0
LINE
  5
B59
330
A02
100
AcDbEntity
  8
Shape2DView003
100
AcDbLine
 10
210
 20
353.233
 30
0
 11
207.241
 21
353.233
 31
0
  0
ARC
  5
B5A
330
A02
100
AcDbEntity
  8
Shape2DView003
100
AcDbCircle
 10
207.057
 20
353.127
 30
0
 40
0.213333
100
AcDbArc
 50
30
 51
180
  0
ARC
  5
B5B
330
A02
100
AcDbEntity
  8
Shape2DView003
100
AcDbCircle
 10
207.057
 20
353.127
 30
0
 40
0.213333
100
AcDbArc
 50
180
 51
-120
  0
LINE
  5
B5C
330
A02
100
AcDbEntity
  8
Shape2DView003
100
AcDbLine
 10
206.95
 20
343.725
 30
0
 11
206.95
 21
352.942
 31
0
  0
ARC
  5
B5D
330
A02
100
AcDbEntity
  8
Shape2DView003
100
AcDbCircle
 10
207.057
 20
343.54
 30
0
 40
0.213333
100
AcDbArc
 50
120
 51
180
  0
ARC
  5
B5E
330
A02
100
AcDbEntity
  8
Shape2DView003
100
AcDbCircle
 10
207.057
 20
343.54
 30
0
 40
0.213333
100
AcDbArc
 50
180
 51
-30
  0
LINE
  5
B5F
330
A02
100
AcDbEntity
  8
Shape2DView003
100
AcDbLine
 10
210
 20
343.433
 30
0
 11
207.241
 21
343.433
 31
0
  0
ARC
  5
B60
330
A02
100
AcDbEntity
  8
Shape2DView003
100
AcDbCircle
 10
133.463
 20
477.947
 30
0
 40
0.206667
100
AcDbArc
 50
-60
 51
90
  0
ARC
  5
B61
330
A02
100
AcDbEntity
  8
Shape2DView003
100
AcDbCircle
 10
133.463
 20
477.947
 30
0
 40
0.206667
100
AcDbArc
 50
90
 51
150
  0
LINE
  5
B62
330
A02
100
AcDbEntity
  8
Shape2DView003
100
AcDbLine
 10
124.049
 20
478.05
 30
0
 11
133.284
 21
478.05
 31
0
  0
ARC
  5
B63
330
A02
100
AcDbEntity
  8
Shape2DView003
100
AcDbCircle
 10
123.87
 20
477.947
 30
0
 40
0.206667
100
AcDbArc
 50
30
 51
90
  0
ARC
  5
B64
330
A02
100
AcDbEntity
  8
Shape2DView003
100
AcDbCircle
 10
123.87
 20
477.947
 30
0
 40
0.206667
100
AcDbArc
 50
90
 51
-120
  0
LINE
  5
B65
330
A02
100
AcDbEntity
  8
Shape2DView003
100
AcDbLine
 10
123.767
 20
475.232
 30
0
 11
123.767
 21
477.768
 31
0
  0
ARC
  5
B66
330
A02
100
AcDbEntity
  8
Shape2DView003
100
AcDbCircle
 10
123.87
 20
475.053
 30
0
 40
0.206667
100
AcDbArc
 50
120
 51
-30
  0
LINE
  5
B67
330
A02
100
AcDbEntity
  8
Shape2DView003
100
AcDbLine
 10
124.049
 20
474.95
 30
0
 11
133.284
 21
474.95
 31
0
  0
ARC
  5
B68
330
A02
100
AcDbEntity
  8
Shape2DView003
100
AcDbCircle
 10
133.463
 20
475.053
 30
0
 40
0.206667
100
AcDbArc
 50
-150
 51
60
  0
LINE
  5
B69
330
A02
100
AcDbEntity
  8
Shape2DView003
100
AcDbLine
 10
133.567
 20
475.232
 30
0
 11
133.567
 21
477.768
 31
0
  0
ARC
  5
B6A
330
A02
100
AcDbEntity
  8
Shape2DView003
100
AcDbCircle
 10
164.797
 20
477.947
 30
0
 40
0.206667
100
AcDbArc
 50
-60
 51
90
  0
ARC
  5
B6B
330
A02
100
AcDbEntity
  8
Shape2DView003
100
AcDbCircle
 10
164.797
 20
477.947
 30
0
 40
0.206667
100
AcDbArc
 50
90
 51
150
  0
LINE
  5
B6C
330
A02
100
AcDbEntity
  8
Shape2DView003
100
AcDbLine
 10
155.382
 20
478.05
 30
0
 11
164.618
 21
478.05
 31
0
  0
ARC
  5
B6D
330
A02
100
AcDbEntity
  8
Shape2DView003
100
AcDbCircle
 10
155.203
 20
477.947
 30
0
 40
0.206667
100
AcDbArc
 50
30
 51
90
  0
ARC
  5
B6E
330
A02
100
AcDbEntity
  8
Shape2DView003
100
AcDbCircle
 10
155.203
 20
477.947
 30
0
 40
0.206667
100
AcDbArc
 50
90
 51
-120
  0
LINE
  5
B6F
330
A02
100
AcDbEntity
  8
Shape2DView003
100
AcDbLine
 10
155.1
 20
475.232
 30
0
 11
155.1
 21
477.768
 31
0
  0
ARC
  5
B70
330
A02
100
AcDbEntity
  8
Shape2DView003
100
AcDbCircle
 10
155.203
 20
475.053
 30
0
 40
0.206667
100
AcDbArc
 50
120
 51
-30
  0
LINE
  5
B71
330
A02
100
AcDbEntity
  8
Shape2DView003
100
AcDbLine
 10
155.382
 20
474.95
 30
0
 11
164.618
 21
474.95
 31
0
  0
ARC
  5
B72
330
A02
100
AcDbEntity
  8
Shape2DView003
100
AcDbCircle
 10
164.797
 20
475.053
 30
0
 40
0.206667
100
AcDbArc
 50
-150
 51
60
  0
LINE
  5
B73
330
A02
100
AcDbEntity
  8
Shape2DView003
100
AcDbLine
 10
164.9
 20
475.232
 30
0
 11
164.9
 21
477.768
 31
0
  0
ARC
  5
B74
330
A02
100
AcDbEntity
  8
Shape2DView003
100
AcDbCircle
 10
196.13
 20
477.947
 30
0
 40
0.206667
100
AcDbArc
 50
-60
 51
90
  0
ARC
  5
B75
330
A02
100
AcDbEntity
  8
Shape2DView003
100
AcDbCircle
 10
196.13
 20
477.947
 30
0
 40
0.206667
100
AcDbArc
 50
90
 51
150
  0
LINE
  5
B76
330
A02
100
AcDbEntity
  8
Shape2DView003
100
AcDbLine
 10
186.716
 20
478.05
 30
0
 11
195.951
 21
478.05
 31
0
  0
ARC
  5
B77
330
A02
100
AcDbEntity
  8
Shape2DView003
100
AcDbCircle
 10
186.537
 20
477.947
 30
0
 40
0.206667
100
AcDbArc
 50
30
 51
90
  0
ARC
  5
B78
330
A02
100
AcDbEntity
  8
Shape2DView003
100
AcDbCircle
 10
186.537
 20
477.947
 30
0
 40
0.206667
100
AcDbArc
 50
90
 51
-120
  0
LINE
  5
B79
330
A02
100
AcDbEntity
  8
Shape2DView003
100
AcDbLine
 10
186.433
 20
475.232
 30
0
 11
186.433
 21
477.768
 31
0
  0
ARC
  5
B7A
330
A02
100
AcDbEntity
  8
Shape2DView003
100
AcDbCircle
 10
186.537
 20
475.053
 30
0
 40
0.206667
100
AcDbArc
 50
120
 51
-30
  0
LINE
  5
B7B
330
A02
100
AcDbEntity
  8
Shape2DView003
100
AcDbLine
 10
186.716
 20
474.95
 30
0
 11
195.951
 21
474.95
 31
0
  0
ARC
  5
B7C
330
A02
100
AcDbEntity
  8
Shape2DView003
100
AcDbCircle
 10
196.13
 20
475.053
 30
0
 40
0.206667
100
AcDbArc
 50
-150
 51
60
  0
LINE
  5
B7D
330
A02
100
AcDbEntity
  8
Shape2DView003
100
AcDbLine
 10
196.233
 20
475.232
 30
0
 11
196.233
 21
477.768
 31
0
  0
LINE
  5
B7E
330
A02
100
AcDbEntity
  8
Shape2DView004
100
AcDbLine
 10
3
 20
643
 30
0
 11
20.7333
 21
643
 31
0
  0
LINE
  5
B7F
330
A02
100
AcDbEntity
  8
Shape2DView004
100
AcDbLine
 10
20.7333
 20
643
 30
0
 11
20.7333
 21
640
 31
0
  0
LINE
  5
B80
330
A02
100
AcDbEntity
  8
Shape2DView004
100
AcDbLine
 10
3
 20
663.233
 30
0
 11
3
 21
643
 31
0
  0
LINE
  5
B81
330
A02
100
AcDbEntity
  8
Shape2DView004
100
AcDbLine
 10
30.9333
 20
640
 30
0
 11
20.7333
 21
640
 31
0
  0
LINE
  5
B82
330
A02
100
AcDbEntity
  8
Shape2DView004
100
AcDbLine
 10
3
 20
663.233
 30
0
 11
-4.44089e-16
 21
663.233
 31
0
  0
LINE
  5
B83
330
A02
100
AcDbEntity
  8
Shape2DView004
100
AcDbLine
 10
30.9333
 20
643
 30
0
 11
30.9333
 21
640
 31
0
  0
LINE
  5
B84
330
A02
100
AcDbEntity
  8
Shape2DView004
100
AcDbLine
 10
30.9333
 20
643
 30
0
 11
66.4
 21
643
 31
0
  0
LINE
  5
B85
330
A02
100
AcDbEntity
  8
Shape2DView004
100
AcDbLine
 10
-4.44089e-16
 20
663.233
 30
0
 11
-4.44089e-16
 21
673.433
 31
0
  0
LINE
  5
B86
330
A02
100
AcDbEntity
  8
Shape2DView004
100
AcDbLine
 10
3
 20
713.9
 30
0
 11
3
 21
673.433
 31
0
  0
LINE
  5
B87
330
A02
100
AcDbEntity
  8
Shape2DView004
100
AcDbLine
 10
3
 20
673.433
 30
0
 11
-4.44089e-16
 21
673.433
 31
0
  0
LINE
  5
B88
330
A02
100
AcDbEntity
  8
Shape2DView004
100
AcDbLine
 10
66.4
 20
643
 30
0
 11
66.4
 21
640
 31
0
  0
LINE
  5
B89
330
A02
100
AcDbEntity
  8
Shape2DView004
100
AcDbLine
 10
3
 20
713.9
 30
0
 11
-4.44089e-16
 21
713.9
 31
0
  0
LINE
  5
B8A
330
A02
100
AcDbEntity
  8
Shape2DView004
100
AcDbLine
 10
76.6
 20
640
 30
0
 11
66.4
 21
640
 31
0
  0
LINE
  5
B8B
330
A02
100
AcDbEntity
  8
Shape2DView004
100
AcDbLine
 10
76.6
 20
643
 30
0
 11
76.6
 21
640
 31
0
  0
LINE
  5
B8C
330
A02
100
AcDbEntity
  8
Shape2DView004
100
AcDbLine
 10
76.6
 20
643
 30
0
 11
112.067
 21
643
 31
0
  0
LINE
  5
B8D
330
A02
100
AcDbEntity
  8
Shape2DView004
100
AcDbLine
 10
-4.44089e-16
 20
713.9
 30
0
 11
-4.44089e-16
 21
724.1
 31
0
  0
LINE
  5
B8E
330
A02
100
AcDbEntity
  8
Shape2DView004
100
AcDbLine
 10
3
 20
764.567
 30
0
 11
3
 21
724.1
 31
0
  0
LINE
  5
B8F
330
A02
100
AcDbEntity
  8
Shape2DView004
100
AcDbLine
 10
3
 20
724.1
 30
0
 11
-4.44089e-16
 21
724.1
 31
0
  0
LINE
  5
B90
330
A02
100
AcDbEntity
  8
Shape2DView004
100
AcDbLine
 10
112.067
 20
643
 30
0
 11
112.067
 21
640
 31
0
  0
LINE
  5
B91
330
A02
100
AcDbEntity
  8
Shape2DView004
100
AcDbLine
 10
3
 20
764.567
 30
0
 11
-4.44089e-16
 21
764.567
 31
0
  0
LINE
  5
B92
330
A02
100
AcDbEntity
  8
Shape2DView004
100
AcDbLine
 10
122.267
 20
640
 30
0
 11
112.067
 21
640
 31
0
  0
LINE
  5
B93
330
A02
100
AcDbEntity
  8
Shape2DView004
100
AcDbLine
 10
122.267
 20
643
 30
0
 11
122.267
 21
640
 31
0
  0
LINE
  5
B94
330
A02
100
AcDbEntity
  8
Shape2DView004
100
AcDbLine
 10
122.267
 20
643
 30
0
 11
157.733
 21
643
 31
0
  0
LINE
  5
B95
330
A02
100
AcDbEntity
  8
Shape2DView004
100
AcDbLine
 10
-4.44089e-16
 20
764.567
 30
0
 11
-4.44089e-16
 21
774.767
 31
0
  0
LINE
  5
B96
330
A02
100
AcDbEntity
  8
Shape2DView004
100
AcDbLine
 10
3
 20
815.233
 30
0
 11
3
 21
774.767
 31
0
  0
LINE
  5
B97
330
A02
100
AcDbEntity
  8
Shape2DView004
100
AcDbLine
 10
3
 20
774.767
 30
0
 11
-4.44089e-16
 21
774.767
 31
0
  0
LINE
  5
B98
330
A02
100
AcDbEntity
  8
Shape2DView004
100
AcDbLine
 10
157.733
 20
643
 30
0
 11
157.733
 21
640
 31
0
  0
LINE
  5
B99
330
A02
100
AcDbEntity
  8
Shape2DView004
100
AcDbLine
 10
3
 20
815.233
 30
0
 11
-4.44089e-16
 21
815.233
 31
0
  0
LINE
  5
B9A
330
A02
100
AcDbEntity
  8
Shape2DView004
100
AcDbLine
 10
167.933
 20
640
 30
0
 11
157.733
 21
640
 31
0
  0
LINE
  5
B9B
330
A02
100
AcDbEntity
  8
Shape2DView004
100
AcDbLine
 10
167.933
 20
643
 30
0
 11
167.933
 21
640
 31
0
  0
LINE
  5
B9C
330
A02
100
AcDbEntity
  8
Shape2DView004
100
AcDbLine
 10
167.933
 20
643
 30
0
 11
203.4
 21
643
 31
0
  0
LINE
  5
B9D
330
A02
100
AcDbEntity
  8
Shape2DView004
100
AcDbLine
 10
-4.44089e-16
 20
815.233
 30
0
 11
-4.44089e-16
 21
825.433
 31
0
  0
LINE
  5
B9E
330
A02
100
AcDbEntity
  8
Shape2DView004
100
AcDbLine
 10
3
 20
865.9
 30
0
 11
3
 21
825.433
 31
0
  0
LINE
  5
B9F
330
A02
100
AcDbEntity
  8
Shape2DView004
100
AcDbLine
 10
3
 20
825.433
 30
0
 11
-4.44089e-16
 21
825.433
 31
0
  0
LINE
  5
BA0
330
A02
100
AcDbEntity
  8
Shape2DView004
100
AcDbLine
 10
203.4
 20
643
 30
0
 11
203.4
 21
640
 31
0
  0
LINE
  5
BA1
330
A02
100
AcDbEntity
  8
Shape2DView004
100
AcDbLine
 10
3
 20
865.9
 30
0
 11
-4.44089e-16
 21
865.9
 31
0
  0
LINE
  5
BA2
330
A02
100
AcDbEntity
  8
Shape2DView004
100
AcDbLine
 10
213.6
 20
640
 30
0
 11
203.4
 21
640
 31
0
  0
LINE
  5
BA3
330
A02
100
AcDbEntity
  8
Shape2DView004
100
AcDbLine
 10
213.6
 20
643
 30
0
 11
213.6
 21
640
 31
0
  0
LINE
  5
BA4
330
A02
100
AcDbEntity
  8
Shape2DView004
100
AcDbLine
 10
213.6
 20
643
 30
0
 11
249.067
 21
643
 31
0
  0
LINE
  5
BA5
330
A02
100
AcDbEntity
  8
Shape2DView004
100
AcDbLine
 10
-4.44089e-16
 20
865.9
 30
0
 11
-4.44089e-16
 21
876.1
 31
0
  0
LINE
  5
BA6
330
A02
100
AcDbEntity
  8
Shape2DView004
100
AcDbLine
 10
3
 20
916.567
 30
0
 11
3
 21
876.1
 31
0
  0
LINE
  5
BA7
330
A02
100
AcDbEntity
  8
Shape2DView004
100
AcDbLine
 10
3
 20
876.1
 30
0
 11
-4.44089e-16
 21
876.1
 31
0
  0
LINE
  5
BA8
330
A02
100
AcDbEntity
  8
Shape2DView004
100
AcDbLine
 10
249.067
 20
643
 30
0
 11
249.067
 21
640
 31
0
  0
LINE
  5
BA9
330
A02
100
AcDbEntity
  8
Shape2DView004
100
AcDbLine
 10
3
 20
916.567
 30
0
 11
-4.44089e-16
 21
916.567
 31
0
  0
LINE
  5
BAA
330
A02
100
AcDbEntity
  8
Shape2DView004
100
AcDbLine
 10
259.267
 20
640
 30
0
 11
249.067
 21
640
 31
0
  0
LINE
  5
BAB
330
A02
100
AcDbEntity
  8
Shape2DView004
100
AcDbLine
 10
259.267
 20
643
 30
0
 11
259.267
 21
640
 31
0
  0
LINE
  5
BAC
330
A02
100
AcDbEntity
  8
Shape2DView004
100
AcDbLine
 10
259.267
 20
643
 30
0
 11
277
 21
643
 31
0
  0
LINE
  5
BAD
330
A02
100
AcDbEntity
  8
Shape2DView004
100
AcDbLine
 10
277
 20
643
 30
0
 11
277
 21
663.233
 31
0
  0
LINE
  5
BAE
330
A02
100
AcDbEntity
  8
Shape2DView004
100
AcDbLine
 10
-4.44089e-16
 20
916.567
 30
0
 11
-4.44089e-16
 21
926.767
 31
0
  0
LINE
  5
BAF
330
A02
100
AcDbEntity
  8
Shape2DView004
100
AcDbLine
 10
3
 20
947
 30
0
 11
3
 21
926.767
 31
0
  0
LINE
  5
BB0
330
A02
100
AcDbEntity
  8
Shape2DView004
100
AcDbLine
 10
20.7333
 20
947
 30
0
 11
3
 21
947
 31
0
  0
LINE
  5
BB1
330
A02
100
AcDbEntity
  8
Shape2DView004
100
AcDbLine
 10
3
 20
926.767
 30
0
 11
-4.44089e-16
 21
926.767
 31
0
  0
LINE
  5
BB2
330
A02
100
AcDbEntity
  8
Shape2DView004
100
AcDbLine
 10
277
 20
663.233
 30
0
 11
280
 21
663.233
 31
0
  0
LINE
  5
BB3
330
A02
100
AcDbEntity
  8
Shape2DView004
100
AcDbLine
 10
20.7333
 20
947
 30
0
 11
20.7333
 21
950
 31
0
  0
LINE
  5
BB4
330
A02
100
AcDbEntity
  8
Shape2DView004
100
AcDbLine
 10
280
 20
673.433
 30
0
 11
280
 21
663.233
 31
0
  0
LINE
  5
BB5
330
A02
100
AcDbEntity
  8
Shape2DView004
100
AcDbLine
 10
277
 20
673.433
 30
0
 11
280
 21
673.433
 31
0
  0
LINE
  5
BB6
330
A02
100
AcDbEntity
  8
Shape2DView004
100
AcDbLine
 10
277
 20
673.433
 30
0
 11
277
 21
713.9
 31
0
  0
LINE
  5
BB7
330
A02
100
AcDbEntity
  8
Shape2DView004
100
AcDbLine
 10
20.7333
 20
950
 30
0
 11
30.9333
 21
950
 31
0
  0
LINE
  5
BB8
330
A02
100
AcDbEntity
  8
Shape2DView004
100
AcDbLine
 10
66.4
 20
947
 30
0
 11
30.9333
 21
947
 31
0
  0
LINE
  5
BB9
330
A02
100
AcDbEntity
  8
Shape2DView004
100
AcDbLine
 10
30.9333
 20
947
 30
0
 11
30.9333
 21
950
 31
0
  0
LINE
  5
BBA
330
A02
100
AcDbEntity
  8
Shape2DView004
100
AcDbLine
 10
277
 20
713.9
 30
0
 11
280
 21
713.9
 31
0
  0
LINE
  5
BBB
330
A02
100
AcDbEntity
  8
Shape2DView004
100
AcDbLine
 10
66.4
 20
947
 30
0
 11
66.4
 21
950
 31
0
  0
LINE
  5
BBC
330
A02
100
AcDbEntity
  8
Shape2DView004
100
AcDbLine
 10
280
 20
724.1
 30
0
 11
280
 21
713.9
 31
0
  0
LINE
  5
BBD
330
A02
100
AcDbEntity
  8
Shape2DView004
100
AcDbLine
 10
277
 20
724.1
 30
0
 11
280
 21
724.1
 31
0
  0
LINE
  5
BBE
330
A02
100
AcDbEntity
  8
Shape2DView004
100
AcDbLine
 10
277
 20
724.1
 30
0
 11
277
 21
764.567
 31
0
  0
LINE
  5
BBF
330
A02
100
AcDbEntity
  8
Shape2DView004
100
AcDbLine
 10
66.4
 20
950
 30
0
 11
76.6
 21
950
 31
0
  0
LINE
  5
BC0
330
A02
100
AcDbEntity
  8
Shape2DView004
100
AcDbLine
 10
112.067
 20
947
 30
0
 11
76.6
 21
947
 31
0
  0
LINE
  5
BC1
330
A02
100
AcDbEntity
  8
Shape2DView004
100
AcDbLine
 10
76.6
 20
947
 30
0
 11
76.6
 21
950
 31
0
  0
LINE
  5
BC2
330
A02
100
AcDbEntity
  8
Shape2DView004
100
AcDbLine
 10
277
 20
764.567
 30
0
 11
280
 21
764.567
 31
0
  0
LINE
  5
BC3
330
A02
100
AcDbEntity
  8
Shape2DView004
100
AcDbLine
 10
112.067
 20
947
 30
0
 11
112.067
 21
950
 31
0
  0
LINE
  5
BC4
330
A02
100
AcDbEntity
  8
Shape2DView004
100
AcDbLine
 10
280
 20
774.767
 30
0
 11
280
 21
764.567
 31
0
  0
LINE
  5
BC5
330
A02
100
AcDbEntity
  8
Shape2DView004
100
AcDbLine
 10
277
 20
774.767
 30
0
 11
280
 21
774.767
 31
0
  0
LINE
  5
BC6
330
A02
100
AcDbEntity
  8
Shape2DView004
100
AcDbLine
 10
277
 20
774.767
 30
0
 11
277
 21
815.233
 31
0
  0
LINE
  5
BC7
330
A02
100
AcDbEntity
  8
Shape2DView004
100
AcDbLine
 10
112.067
 20
950
 30
0
 11
122.267
 21
950
 31
0
  0
LINE
  5
BC8
330
A02
100
AcDbEntity
  8
Shape2DView004
100
AcDbLine
 10
157.733
 20
947
 30
0
 11
122.267
 21
947
 31
0
  0
LINE
  5
BC9
330
A02
100
AcDbEntity
  8
Shape2DView004
100
AcDbLine
 10
122.267
 20
947
 30
0
 11
122.267
 21
950
 31
0
  0
LINE
  5
BCA
330
A02
100
AcDbEntity
  8
Shape2DView004
100
AcDbLine
 10
277
 20
815.233
 30
0
 11
280
 21
815.233
 31
0
  0
LINE
  5
BCB
330
A02
100
AcDbEntity
  8
Shape2DView004
100
AcDbLine
 10
157.733
 20
947
 30
0
 11
157.733
 21
950
 31
0
  0
LINE
  5
BCC
330
A02
100
AcDbEntity
  8
Shape2DView004
100
AcDbLine
 10
280
 20
825.433
 30
0
 11
280
 21
815.233
 31
0
  0
LINE
  5
BCD
330
A02
100
AcDbEntity
  8
Shape2DView004
100
AcDbLine
 10
277
 20
825.433
 30
0
 11
280
 21
825.433
 31
0
  0
LINE
  5
BCE
330
A02
100
AcDbEntity
  8
Shape2DView004
100
AcDbLine
 10
277
 20
825.433
 30
0
 11
277
 21
865.9
 31
0
  0
LINE
  5
BCF
330
A02
100
AcDbEntity
  8
Shape2DView004
100
AcDbLine
 10
157.733
 20
950
 30
0
 11
167.933
 21
950
 31
0
  0
LINE
  5
BD0
330
A02
100
AcDbEntity
  8
Shape2DView004
100
AcDbLine
 10
203.4
 20
947
 30
0
 11
167.933
 21
947
 31
0
  0
LINE
  5
BD1
330
A02
100
AcDbEntity
  8
Shape2DView004
100
AcDbLine
 10
167.933
 20
947
 30
0
 11
167.933
 21
950
 31
0
  0
LINE
  5
BD2
330
A02
100
AcDbEntity
  8
Shape2DView004
100
AcDbLine
 10
277
 20
865.9
 30
0
 11
280
 21
865.9
 31
0
  0
LINE
  5
BD3
330
A02
100
AcDbEntity
  8
Shape2DView004
100
AcDbLine
 10
203.4
 20
947
 30
0
 11
203.4
 21
950
 31
0
  0
LINE
  5
BD4
330
A02
100
AcDbEntity
  8
Shape2DView004
100
AcDbLine
 10
280
 20
876.1
 30
0
 11
280
 21
865.9
 31
0
  0
LINE
  5
BD5
330
A02
100
AcDbEntity
  8
Shape2DView004
100
AcDbLine
 10
277
 20
876.1
 30
0
 11
280
 21
876.1
 31
0
  0
LINE
  5
BD6
330
A02
100
AcDbEntity
  8
Shape2DView004
100
AcDbLine
 10
277
 20
876.1
 30
0
 11
277
 21
916.567
 31
0
  0
LINE
  5
BD7
330
A02
100
AcDbEntity
  8
Shape2DView004
100
AcDbLine
 10
203.4
 20
950
 30
0
 11
213.6
 21
950
 31
0
  0
LINE
  5
BD8
330
A02
100
AcDbEntity
  8
Shape2DView004
100
AcDbLine
 10
249.067
 20
947
 30
0
 11
213.6
 21
947
 31
0
  0
LINE
  5
BD9
330
A02
100
AcDbEntity
  8
Shape2DView004
100
AcDbLine
 10
213.6
 20
947
 30
0
 11
213.6
 21
950
 31
0
  0
LINE
  5
BDA
330
A02
100
AcDbEntity
  8
Shape2DView004
100
AcDbLine
 10
277
 20
916.567
 30
0
 11
280
 21
916.567
 31
0
  0
LINE
  5
BDB
330
A02
100
AcDbEntity
  8
Shape2DView004
100
AcDbLine
 10
249.067
 20
947
 30
0
 11
249.067
 21
950
 31
0
  0
LINE
  5
BDC
330
A02
100
AcDbEntity
  8
Shape2DView004
100
AcDbLine
 10
280
 20
926.767
 30
0
 11
280
 21
916.567
 31
0
  0
LINE
  5
BDD
330
A02
100
AcDbEntity
  8
Shape2DView004
100
AcDbLine
 10
277
 20
926.767
 30
0
 11
280
 21
926.767
 31
0
  0
LINE
  5
BDE
330
A02
100
AcDbEntity
  8
Shape2DView004
100
AcDbLine
 10
277
 20
926.767
 30
0
 11
277
 21
947
 31
0
  0
LINE
  5
BDF
330
A02
100
AcDbEntity
  8
Shape2DView004
100
AcDbLine
 10
277
 20
947
 30
0
 11
259.267
 21
947
 31
0
  0
LINE
  5
BE0
330
A02
100
AcDbEntity
  8
Shape2DView004
100
AcDbLine
 10
259.267
 20
947
 30
0
 11
259.267
 21
950
 31
0
  0
LINE
  5
BE1
330
A02
100
AcDbEntity
  8
Shape2DView004
100
AcDbLine
 10
249.067
 20
950
 30
0
 11
259.267
 21
950
 31
0
  0
ARC
  5
BE2
330
A02
100
AcDbEntity
  8
Shape2DView004
100
AcDbCircle
 10
140.053
 20
877.322
 30
0
 40
0.206667
100
AcDbArc
 50
30
 51
180
  0
LINE
  5
BE3
330
A02
100
AcDbEntity
  8
Shape2DView004
100
AcDbLine
 10
142.768
 20
877.425
 30
0
 11
140.232
 21
877.425
 31
0
  0
ARC
  5
BE4
330
A02
100
AcDbEntity
  8
Shape2DView004
100
AcDbCircle
 10
142.947
 20
877.322
 30
0
 40
0.206667
100
AcDbArc
 50
-60
 51
150
  0
LINE
  5
BE5
330
A02
100
AcDbEntity
  8
Shape2DView004
100
AcDbLine
 10
143.05
 20
867.907
 30
0
 11
143.05
 21
877.143
 31
0
  0
ARC
  5
BE6
330
A02
100
AcDbEntity
  8
Shape2DView004
100
AcDbCircle
 10
142.947
 20
867.728
 30
0
 40
0.206667
100
AcDbArc
 50
-150
 51
60
  0
LINE
  5
BE7
330
A02
100
AcDbEntity
  8
Shape2DView004
100
AcDbLine
 10
142.768
 20
867.625
 30
0
 11
140.232
 21
867.625
 31
0
  0
ARC
  5
BE8
330
A02
100
AcDbEntity
  8
Shape2DView004
100
AcDbCircle
 10
140.053
 20
867.728
 30
0
 40
0.206667
100
AcDbArc
 50
180
 51
-30
  0
ARC
  5
BE9
330
A02
100
AcDbEntity
  8
Shape2DView004
100
AcDbCircle
 10
140.053
 20
867.728
 30
0
 40
0.206667
100
AcDbArc
 50
120
 51
180
  0
LINE
  5
BEA
330
A02
100
AcDbEntity
  8
Shape2DView004
100
AcDbLine
 10
139.95
 20
867.907
 30
0
 11
139.95
 21
877.143
 31
0
  0
ARC
  5
BEB
330
A02
100
AcDbEntity
  8
Shape2DView004
100
AcDbCircle
 10
140.053
 20
877.322
 30
0
 40
0.206667
100
AcDbArc
 50
180
 51
-120
  0
ARC
  5
BEC
330
A02
100
AcDbEntity
  8
Shape2DView004
100
AcDbCircle
 10
140.053
 20
723.772
 30
0
 40
0.206667
100
AcDbArc
 50
30
 51
180
  0
LINE
  5
BED
330
A02
100
AcDbEntity
  8
Shape2DView004
100
AcDbLine
 10
142.768
 20
723.875
 30
0
 11
140.232
 21
723.875
 31
0
  0
ARC
  5
BEE
330
A02
100
AcDbEntity
  8
Shape2DView004
100
AcDbCircle
 10
142.947
 20
723.772
 30
0
 40
0.206667
100
AcDbArc
 50
-60
 51
150
  0
LINE
  5
BEF
330
A02
100
AcDbEntity
  8
Shape2DView004
100
AcDbLine
 10
143.05
 20
714.357
 30
0
 11
143.05
 21
723.593
 31
0
  0
ARC
  5
BF0
330
A02
100
AcDbEntity
  8
Shape2DView004
100
AcDbCircle
 10
142.947
 20
714.178
 30
0
 40
0.206667
100
AcDbArc
 50
-150
 51
60
  0
LINE
  5
BF1
330
A02
100
AcDbEntity
  8
Shape2DView004
100
AcDbLine
 10
142.768
 20
714.075
 30
0
 11
140.232
 21
714.075
 31
0
  0
ARC
  5
BF2
330
A02
100
AcDbEntity
  8
Shape2DView004
100
AcDbCircle
 10
140.053
 20
714.178
 30
0
 40
0.206667
100
AcDbArc
 50
180
 51
-30
  0
ARC
  5
BF3
330
A02
100
AcDbEntity
  8
Shape2DView004
100
AcDbCircle
 10
140.053
 20
714.178
 30
0
 40
0.206667
100
AcDbArc
 50
120
 51
180
  0
LINE
  5
BF4
330
A02
100
AcDbEntity
  8
Shape2DView004
100
AcDbLine
 10
139.95
 20
714.357
 30
0
 11
139.95
 21
723.593
 31
0
  0
ARC
  5
BF5
330
A02
100
AcDbEntity
  8
Shape2DView004
100
AcDbCircle
 10
140.053
 20
723.772
 30
0
 40
0.206667
100
AcDbArc
 50
180
 51
-120
  0
ARC
  5
BF6
330
A02
100
AcDbEntity
  8
Shape2DView004
100
AcDbCircle
 10
249.37
 20
795.053
 30
0
 40
0.206667
100
AcDbArc
 50
120
 51
-90
  0
LINE
  5
BF7
330
A02
100
AcDbEntity
  8
Shape2DView004
100
AcDbLine
 10
249.267
 20
797.768
 30
0
 11
249.267
 21
795.232
 31
0
  0
ARC
  5
BF8
330
A02
100
AcDbEntity
  8
Shape2DView004
100
AcDbCircle
 10
249.37
 20
797.947
 30
0
 40
0.206667
100
AcDbArc
 50
30
 51
-120
  0
LINE
  5
BF9
330
A02
100
AcDbEntity
  8
Shape2DView004
100
AcDbLine
 10
258.784
 20
798.05
 30
0
 11
249.549
 21
798.05
 31
0
  0
ARC
  5
BFA
330
A02
100
AcDbEntity
  8
Shape2DView004
100
AcDbCircle
 10
258.963
 20
797.947
 30
0
 40
0.206667
100
AcDbArc
 50
-60
 51
150
  0
LINE
  5
BFB
330
A02
100
AcDbEntity
  8
Shape2DView004
100
AcDbLine
 10
259.067
 20
797.768
 30
0
 11
259.067
 21
795.232
 31
0
  0
ARC
  5
BFC
330
A02
100
AcDbEntity
  8
Shape2DView004
100
AcDbCircle
 10
258.963
 20
795.053
 30
0
 40
0.206667
100
AcDbArc
 50
-90
 51
60
  0
ARC
  5
BFD
330
A02
100
AcDbEntity
  8
Shape2DView004
100
AcDbCircle
 10
258.963
 20
795.053
 30
0
 40
0.206667
100
AcDbArc
 50
-150
 51
-90
  0
LINE
  5
BFE
330
A02
100
AcDbEntity
  8
Shape2DView004
100
AcDbLine
 10
258.784
 20
794.95
 30
0
 11
249.549
 21
794.95
 31
0
  0
ARC
  5
BFF
330
A02
100
AcDbEntity
  8
Shape2DView004
100
AcDbCircle
 10
249.37
 20
795.053
 30
0
 40
0.206667
100
AcDbArc
 50
-90
 51
-30
  0
ARC
  5
C00
330
A02
100
AcDbEntity
  8
Shape2DView004
100
AcDbCircle
 10
158.037
 20
795.053
 30
0
 40
0.206667
100
AcDbArc
 50
120
 51
-90
  0
LINE
  5
C01
330
A02
100
AcDbEntity
  8
Shape2DView004
100
AcDbLine
 10
157.933
 20
797.768
 30
0
 11
157.933
 21
795.232
 31
0
  0
ARC
  5
C02
330
A02
100
AcDbEntity
  8
Shape2DView004
100
AcDbCircle
 10
158.037
 20
797.947
 30
0
 40
0.206667
100
AcDbArc
 50
30
 51
-120
  0
LINE
  5
C03
330
A02
100
AcDbEntity
  8
Shape2DView004
100
AcDbLine
 10
167.451
 20
798.05
 30
0
 11
158.216
 21
798.05
 31
0
  0
ARC
  5
C04
330
A02
100
AcDbEntity
  8
Shape2DView004
100
AcDbCircle
 10
167.63
 20
797.947
 30
0
 40
0.206667
100
AcDbArc
 50
-60
 51
150
  0
LINE
  5
C05
330
A02
100
AcDbEntity
  8
Shape2DView004
100
AcDbLine
 10
167.733
 20
797.768
 30
0
 11
167.733
 21
795.232
 31
0
  0
ARC
  5
C06
330
A02
100
AcDbEntity
  8
Shape2DView004
100
AcDbCircle
 10
167.63
 20
795.053
 30
0
 40
0.206667
100
AcDbArc
 50
-90
 51
60
  0
ARC
  5
C07
330
A02
100
AcDbEntity
  8
Shape2DView004
100
AcDbCircle
 10
167.63
 20
795.053
 30
0
 40
0.206667
100
AcDbArc
 50
-150
 51
-90
  0
LINE
  5
C08
330
A02
100
AcDbEntity
  8
Shape2DView004
100
AcDbLine
 10
167.451
 20
794.95
 30
0
 11
158.216
 21
794.95
 31
0
  0
ARC
  5
C09
330
A02
100
AcDbEntity
  8
Shape2DView004
100
AcDbCircle
 10
158.037
 20
795.053
 30
0
 40
0.206667
100
AcDbArc
 50
-90
 51
-30
  0
ARC
  5
C0A
330
A02
100
AcDbEntity
  8
Shape2DView004
100
AcDbCircle
 10
112.37
 20
795.053
 30
0
 40
0.206667
100
AcDbArc
 50
120
 51
-90
  0
LINE
  5
C0B
330
A02
100
AcDbEntity
  8
Shape2DView004
100
AcDbLine
 10
112.267
 20
797.768
 30
0
 11
112.267
 21
795.232
 31
0
  0
ARC
  5
C0C
330
A02
100
AcDbEntity
  8
Shape2DView004
100
AcDbCircle
 10
112.37
 20
797.947
 30
0
 40
0.206667
100
AcDbArc
 50
30
 51
-120
  0
LINE
  5
C0D
330
A02
100
AcDbEntity
  8
Shape2DView004
100
AcDbLine
 10
121.784
 20
798.05
 30
0
 11
112.549
 21
798.05
 31
0
  0
ARC
  5
C0E
330
A02
100
AcDbEntity
  8
Shape2DView004
100
AcDbCircle
 10
121.963
 20
797.947
 30
0
 40
0.206667
100
AcDbArc
 50
-60
 51
150
  0
LINE
  5
C0F
330
A02
100
AcDbEntity
  8
Shape2DView004
100
AcDbLine
 10
122.067
 20
797.768
 30
0
 11
122.067
 21
795.232
 31
0
  0
ARC
  5
C10
330
A02
100
AcDbEntity
  8
Shape2DView004
100
AcDbCircle
 10
121.963
 20
795.053
 30
0
 40
0.206667
100
AcDbArc
 50
-90
 51
60
  0
ARC
  5
C11
330
A02
100
AcDbEntity
  8
Shape2DView004
100
AcDbCircle
 10
121.963
 20
795.053
 30
0
 40
0.206667
100
AcDbArc
 50
-150
 51
-90
  0
LINE
  5
C12
330
A02
100
AcDbEntity
  8
Shape2DView004
100
AcDbLine
 10
121.784
 20
794.95
 30
0
 11
112.549
 21
794.95
 31
0
  0
ARC
  5
C13
330
A02
100
AcDbEntity
  8
Shape2DView004
100
AcDbCircle
 10
112.37
 20
795.053
 30
0
 40
0.206667
100
AcDbArc
 50
-90
 51
-30
  0
ARC
  5
C14
330
A02
100
AcDbEntity
  8
Shape2DView004
100
AcDbCircle
 10
21.0367
 20
795.053
 30
0
 40
0.206667
100
AcDbArc
 50
120
 51
-90
  0
LINE
  5
C15
330
A02
100
AcDbEntity
  8
Shape2DView004
100
AcDbLine
 10
20.9333
 20
797.768
 30
0
 11
20.9333
 21
795.232
 31
0
  0
ARC
  5
C16
330
A02
100
AcDbEntity
  8
Shape2DView004
100
AcDbCircle
 10
21.0367
 20
797.947
 30
0
 40
0.206667
100
AcDbArc
 50
30
 51
-120
  0
LINE
  5
C17
330
A02
100
AcDbEntity
  8
Shape2DView004
100
AcDbLine
 10
30.451
 20
798.05
 30
0
 11
21.2156
 21
798.05
 31
0
  0
ARC
  5
C18
330
A02
100
AcDbEntity
  8
Shape2DView004
100
AcDbCircle
 10
30.63
 20
797.947
 30
0
 40
0.206667
100
AcDbArc
 50
-60
 51
150
  0
LINE
  5
C19
330
A02
100
AcDbEntity
  8
Shape2DView004
100
AcDbLine
 10
30.7333
 20
797.768
 30
0
 11
30.7333
 21
795.232
 31
0
  0
ARC
  5
C1A
330
A02
100
AcDbEntity
  8
Shape2DView004
100
AcDbCircle
 10
30.63
 20
795.053
 30
0
 40
0.206667
100
AcDbArc
 50
-90
 51
60
  0
ARC
  5
C1B
330
A02
100
AcDbEntity
  8
Shape2DView004
100
AcDbCircle
 10
30.63
 20
795.053
 30
0
 40
0.206667
100
AcDbArc
 50
-150
 51
-90
  0
LINE
  5
C1C
330
A02
100
AcDbEntity
  8
Shape2DView004
100
AcDbLine
 10
30.451
 20
794.95
 30
0
 11
21.2156
 21
794.95
 31
0
  0
ARC
  5
C1D
330
A02
100
AcDbEntity
  8
Shape2DView004
100
AcDbCircle
 10
21.0367
 20
795.053
 30
0
 40
0.206667
100
AcDbArc
 50
-90
 51
-30
  0
ARC
  5
C1E
330
A02
100
AcDbEntity
  8
Shape2DView004
100
AcDbCircle
 10
140.053
 20
827.672
 30
0
 40
0.206667
100
AcDbArc
 50
30
 51
180
  0
LINE
  5
C1F
330
A02
100
AcDbEntity
  8
Shape2DView004
100
AcDbLine
 10
142.768
 20
827.775
 30
0
 11
140.232
 21
827.775
 31
0
  0
ARC
  5
C20
330
A02
100
AcDbEntity
  8
Shape2DView004
100
AcDbCircle
 10
142.947
 20
827.672
 30
0
 40
0.206667
100
AcDbArc
 50
-60
 51
150
  0
LINE
  5
C21
330
A02
100
AcDbEntity
  8
Shape2DView004
100
AcDbLine
 10
143.05
 20
818.257
 30
0
 11
143.05
 21
827.493
 31
0
  0
ARC
  5
C22
330
A02
100
AcDbEntity
  8
Shape2DView004
100
AcDbCircle
 10
142.947
 20
818.078
 30
0
 40
0.206667
100
AcDbArc
 50
-150
 51
60
  0
LINE
  5
C23
330
A02
100
AcDbEntity
  8
Shape2DView004
100
AcDbLine
 10
142.768
 20
817.975
 30
0
 11
140.232
 21
817.975
 31
0
  0
ARC
  5
C24
330
A02
100
AcDbEntity
  8
Shape2DView004
100
AcDbCircle
 10
140.053
 20
818.078
 30
0
 40
0.206667
100
AcDbArc
 50
180
 51
-30
  0
ARC
  5
C25
330
A02
100
AcDbEntity
  8
Shape2DView004
100
AcDbCircle
 10
140.053
 20
818.078
 30
0
 40
0.206667
100
AcDbArc
 50
120
 51
180
  0
LINE
  5
C26
330
A02
100
AcDbEntity
  8
Shape2DView004
100
AcDbLine
 10
139.95
 20
818.257
 30
0
 11
139.95
 21
827.493
 31
0
  0
ARC
  5
C27
330
A02
100
AcDbEntity
  8
Shape2DView004
100
AcDbCircle
 10
140.053
 20
827.672
 30
0
 40
0.206667
100
AcDbArc
 50
180
 51
-120
  0
ARC
  5
C28
330
A02
100
AcDbEntity
  8
Shape2DView004
100
AcDbCircle
 10
203.703
 20
795.053
 30
0
 40
0.206667
100
AcDbArc
 50
120
 51
-90
  0
LINE
  5
C29
330
A02
100
AcDbEntity
  8
Shape2DView004
100
AcDbLine
 10
203.6
 20
797.768
 30
0
 11
203.6
 21
795.232
 31
0
  0
ARC
  5
C2A
330
A02
100
AcDbEntity
  8
Shape2DView004
100
AcDbCircle
 10
203.703
 20
797.947
 30
0
 40
0.206667
100
AcDbArc
 50
30
 51
-120
  0
LINE
  5
C2B
330
A02
100
AcDbEntity
  8
Shape2DView004
100
AcDbLine
 10
213.118
 20
798.05
 30
0
 11
203.882
 21
798.05
 31
0
  0
ARC
  5
C2C
330
A02
100
AcDbEntity
  8
Shape2DView004
100
AcDbCircle
 10
213.297
 20
797.947
 30
0
 40
0.206667
100
AcDbArc
 50
-60
 51
150
  0
LINE
  5
C2D
330
A02
100
AcDbEntity
  8
Shape2DView004
100
AcDbLine
 10
213.4
 20
797.768
 30
0
 11
213.4
 21
795.232
 31
0
  0
ARC
  5
C2E
330
A02
100
AcDbEntity
  8
Shape2DView004
100
AcDbCircle
 10
213.297
 20
795.053
 30
0
 40
0.206667
100
AcDbArc
 50
-90
 51
60
  0
ARC
  5
C2F
330
A02
100
AcDbEntity
  8
Shape2DView004
100
AcDbCircle
 10
213.297
 20
795.053
 30
0
 40
0.206667
100
AcDbArc
 50
-150
 51
-90
  0
LINE
  5
C30
330
A02
100
AcDbEntity
  8
Shape2DView004
100
AcDbLine
 10
213.118
 20
794.95
 30
0
 11
203.882
 21
794.95
 31
0
  0
ARC
  5
C31
330
A02
100
AcDbEntity
  8
Shape2DView004
100
AcDbCircle
 10
203.703
 20
795.053
 30
0
 40
0.206667
100
AcDbArc
 50
-90
 51
-30
  0
ARC
  5
C32
330
A02
100
AcDbEntity
  8
Shape2DView004
100
AcDbCircle
 10
66.7033
 20
795.053
 30
0
 40
0.206667
100
AcDbArc
 50
120
 51
-90
  0
LINE
  5
C33
330
A02
100
AcDbEntity
  8
Shape2DView004
100
AcDbLine
 10
66.6
 20
797.768
 30
0
 11
66.6
 21
795.232
 31
0
  0
ARC
  5
C34
330
A02
100
AcDbEntity
  8
Shape2DView004
100
AcDbCircle
 10
66.7033
 20
797.947
 30
0
 40
0.206667
100
AcDbArc
 50
30
 51
-120
  0
LINE
  5
C35
330
A02
100
AcDbEntity
  8
Shape2DView004
100
AcDbLine
 10
76.1177
 20
798.05
 30
0
 11
66.8823
 21
798.05
 31
0
  0
ARC
  5
C36
330
A02
100
AcDbEntity
  8
Shape2DView004
100
AcDbCircle
 10
76.2967
 20
797.947
 30
0
 40
0.206667
100
AcDbArc
 50
-60
 51
150
  0
LINE
  5
C37
330
A02
100
AcDbEntity
  8
Shape2DView004
100
AcDbLine
 10
76.4
 20
797.768
 30
0
 11
76.4
 21
795.232
 31
0
  0
ARC
  5
C38
330
A02
100
AcDbEntity
  8
Shape2DView004
100
AcDbCircle
 10
76.2967
 20
795.053
 30
0
 40
0.206667
100
AcDbArc
 50
-90
 51
60
  0
ARC
  5
C39
330
A02
100
AcDbEntity
  8
Shape2DView004
100
AcDbCircle
 10
76.2967
 20
795.053
 30
0
 40
0.206667
100
AcDbArc
 50
-150
 51
-90
  0
LINE
  5
C3A
330
A02
100
AcDbEntity
  8
Shape2DView004
100
AcDbLine
 10
76.1177
 20
794.95
 30
0
 11
66.8823
 21
794.95
 31
0
  0
ARC
  5
C3B
330
A02
100
AcDbEntity
  8
Shape2DView004
100
AcDbCircle
 10
66.7033
 20
795.053
 30
0
 40
0.206667
100
AcDbArc
 50
-90
 51
-30
  0
ARC
  5
C3C
330
A02
100
AcDbEntity
  8
Shape2DView004
100
AcDbCircle
 10
140.053
 20
774.422
 30
0
 40
0.206667
100
AcDbArc
 50
30
 51
180
  0
LINE
  5
C3D
330
A02
100
AcDbEntity
  8
Shape2DView004
100
AcDbLine
 10
142.768
 20
774.525
 30
0
 11
140.232
 21
774.525
 31
0
  0
ARC
  5
C3E
330
A02
100
AcDbEntity
  8
Shape2DView004
100
AcDbCircle
 10
142.947
 20
774.422
 30
0
 40
0.206667
100
AcDbArc
 50
-60
 51
150
  0
LINE
  5
C3F
330
A02
100
AcDbEntity
  8
Shape2DView004
100
AcDbLine
 10
143.05
 20
765.007
 30
0
 11
143.05
 21
774.243
 31
0
  0
ARC
  5
C40
330
A02
100
AcDbEntity
  8
Shape2DView004
100
AcDbCircle
 10
142.947
 20
764.828
 30
0
 40
0.206667
100
AcDbArc
 50
-150
 51
60
  0
LINE
  5
C41
330
A02
100
AcDbEntity
  8
Shape2DView004
100
AcDbLine
 10
142.768
 20
764.725
 30
0
 11
140.232
 21
764.725
 31
0
  0
ARC
  5
C42
330
A02
100
AcDbEntity
  8
Shape2DView004
100
AcDbCircle
 10
140.053
 20
764.828
 30
0
 40
0.206667
100
AcDbArc
 50
180
 51
-30
  0
ARC
  5
C43
330
A02
100
AcDbEntity
  8
Shape2DView004
100
AcDbCircle
 10
140.053
 20
764.828
 30
0
 40
0.206667
100
AcDbArc
 50
120
 51
180
  0
LINE
  5
C44
330
A02
100
AcDbEntity
  8
Shape2DView004
100
AcDbLine
 10
139.95
 20
765.007
 30
0
 11
139.95
 21
774.243
 31
0
  0
ARC
  5
C45
330
A02
100
AcDbEntity
  8
Shape2DView004
100
AcDbCircle
 10
140.053
 20
774.422
 30
0
 40
0.206667
100
AcDbArc
 50
180
 51
-120
  0
ARC
  5
C46
330
A02
100
AcDbEntity
  8
Shape2DView004
100
AcDbCircle
 10
140.053
 20
673.122
 30
0
 40
0.206667
100
AcDbArc
 50
30
 51
180
  0
LINE
  5
C47
330
A02
100
AcDbEntity
  8
Shape2DView004
100
AcDbLine
 10
142.768
 20
673.225
 30
0
 11
140.232
 21
673.225
 31
0
  0
ARC
  5
C48
330
A02
100
AcDbEntity
  8
Shape2DView004
100
AcDbCircle
 10
142.947
 20
673.122
 30
0
 40
0.206667
100
AcDbArc
 50
-60
 51
150
  0
LINE
  5
C49
330
A02
100
AcDbEntity
  8
Shape2DView004
100
AcDbLine
 10
143.05
 20
663.707
 30
0
 11
143.05
 21
672.943
 31
0
  0
ARC
  5
C4A
330
A02
100
AcDbEntity
  8
Shape2DView004
100
AcDbCircle
 10
142.947
 20
663.528
 30
0
 40
0.206667
100
AcDbArc
 50
-150
 51
60
  0
LINE
  5
C4B
330
A02
100
AcDbEntity
  8
Shape2DView004
100
AcDbLine
 10
142.768
 20
663.425
 30
0
 11
140.232
 21
663.425
 31
0
  0
ARC
  5
C4C
330
A02
100
AcDbEntity
  8
Shape2DView004
100
AcDbCircle
 10
140.053
 20
663.528
 30
0
 40
0.206667
100
AcDbArc
 50
180
 51
-30
  0
ARC
  5
C4D
330
A02
100
AcDbEntity
  8
Shape2DView004
100
AcDbCircle
 10
140.053
 20
663.528
 30
0
 40
0.206667
100
AcDbArc
 50
120
 51
180
  0
LINE
  5
C4E
330
A02
100
AcDbEntity
  8
Shape2DView004
100
AcDbLine
 10
139.95
 20
663.707
 30
0
 11
139.95
 21
672.943
 31
0
  0
ARC
  5
C4F
330
A02
100
AcDbEntity
  8
Shape2DView004
100
AcDbCircle
 10
140.053
 20
673.122
 30
0
 40
0.206667
100
AcDbArc
 50
180
 51
-120
  0
ARC
  5
C50
330
A02
100
AcDbEntity
  8
Shape2DView004
100
AcDbCircle
 10
140.053
 20
926.972
 30
0
 40
0.206667
100
AcDbArc
 50
30
 51
180
  0
LINE
  5
C51
330
A02
100
AcDbEntity
  8
Shape2DView004
100
AcDbLine
 10
142.768
 20
927.075
 30
0
 11
140.232
 21
927.075
 31
0
  0
ARC
  5
C52
330
A02
100
AcDbEntity
  8
Shape2DView004
100
AcDbCircle
 10
142.947
 20
926.972
 30
0
 40
0.206667
100
AcDbArc
 50
-60
 51
150
  0
LINE
  5
C53
330
A02
100
AcDbEntity
  8
Shape2DView004
100
AcDbLine
 10
143.05
 20
917.557
 30
0
 11
143.05
 21
926.793
 31
0
  0
ARC
  5
C54
330
A02
100
AcDbEntity
  8
Shape2DView004
100
AcDbCircle
 10
142.947
 20
917.378
 30
0
 40
0.206667
100
AcDbArc
 50
-150
 51
60
  0
LINE
  5
C55
330
A02
100
AcDbEntity
  8
Shape2DView004
100
AcDbLine
 10
142.768
 20
917.275
 30
0
 11
140.232
 21
917.275
 31
0
  0
ARC
  5
C56
330
A02
100
AcDbEntity
  8
Shape2DView004
100
AcDbCircle
 10
140.053
 20
917.378
 30
0
 40
0.206667
100
AcDbArc
 50
180
 51
-30
  0
ARC
  5
C57
330
A02
100
AcDbEntity
  8
Shape2DView004
100
AcDbCircle
 10
140.053
 20
917.378
 30
0
 40
0.206667
100
AcDbArc
 50
120
 51
180
  0
LINE
  5
C58
330
A02
100
AcDbEntity
  8
Shape2DView004
100
AcDbLine
 10
139.95
 20
917.557
 30
0
 11
139.95
 21
926.793
 31
0
  0
ARC
  5
C59
330
A02
100
AcDbEntity
  8
Shape2DView004
100
AcDbCircle
 10
140.053
 20
926.972
 30
0
 40
0.206667
100
AcDbArc
 50
180
 51
-120
  0
LINE
  5
C5A
330
A02
100
AcDbEntity
  8
Shape2DView005
100
AcDbLine
 10
290
 20
643
 30
0
 11
290
 21
660.933
 31
0
  0
LINE
  5
C5B
330
A02
100
AcDbEntity
  8
Shape2DView005
100
AcDbLine
 10
290
 20
660.933
 30
0
 11
292.759
 21
660.933
 31
0
  0
LINE
  5
C5C
330
A02
100
AcDbEntity
  8
Shape2DView005
100
AcDbLine
 10
301.567
 20
643
 30
0
 11
290
 21
643
 31
0
  0
LINE
  5
C5D
330
A02
100
AcDbEntity
  8
Shape2DView005
100
AcDbLine
 10
301.567
 20
643
 30
0
 11
301.567
 21
640
 31
0
  0
LINE
  5
C5E
330
A02
100
AcDbEntity
  8
Shape2DView005
100
AcDbLine
 10
301.567
 20
640
 30
0
 11
311.767
 21
640
 31
0
  0
LINE
  5
C5F
330
A02
100
AcDbEntity
  8
Shape2DView005
100
AcDbLine
 10
334.9
 20
643
 30
0
 11
311.767
 21
643
 31
0
  0
LINE
  5
C60
330
A02
100
AcDbEntity
  8
Shape2DView005
100
AcDbLine
 10
311.767
 20
643
 30
0
 11
311.767
 21
640
 31
0
  0
LINE
  5
C61
330
A02
100
AcDbEntity
  8
Shape2DView005
100
AcDbLine
 10
334.9
 20
643
 30
0
 11
334.9
 21
640
 31
0
  0
LINE
  5
C62
330
A02
100
AcDbEntity
  8
Shape2DView005
100
AcDbLine
 10
334.9
 20
640
 30
0
 11
345.1
 21
640
 31
0
  0
LINE
  5
C63
330
A02
100
AcDbEntity
  8
Shape2DView005
100
AcDbLine
 10
368.233
 20
643
 30
0
 11
345.1
 21
643
 31
0
  0
LINE
  5
C64
330
A02
100
AcDbEntity
  8
Shape2DView005
100
AcDbLine
 10
345.1
 20
643
 30
0
 11
345.1
 21
640
 31
0
  0
LINE
  5
C65
330
A02
100
AcDbEntity
  8
Shape2DView005
100
AcDbLine
 10
368.233
 20
643
 30
0
 11
368.233
 21
640
 31
0
  0
LINE
  5
C66
330
A02
100
AcDbEntity
  8
Shape2DView005
100
AcDbLine
 10
368.233
 20
640
 30
0
 11
378.433
 21
640
 31
0
  0
LINE
  5
C67
330
A02
100
AcDbEntity
  8
Shape2DView005
100
AcDbLine
 10
390
 20
643
 30
0
 11
378.433
 21
643
 31
0
  0
LINE
  5
C68
330
A02
100
AcDbEntity
  8
Shape2DView005
100
AcDbLine
 10
390
 20
917
 30
0
 11
390
 21
643
 31
0
  0
LINE
  5
C69
330
A02
100
AcDbEntity
  8
Shape2DView005
100
AcDbLine
 10
378.433
 20
917
 30
0
 11
390
 21
917
 31
0
  0
LINE
  5
C6A
330
A02
100
AcDbEntity
  8
Shape2DView005
100
AcDbLine
 10
378.433
 20
643
 30
0
 11
378.433
 21
640
 31
0
  0
LINE
  5
C6B
330
A02
100
AcDbEntity
  8
Shape2DView005
100
AcDbLine
 10
378.433
 20
917
 30
0
 11
378.433
 21
920
 31
0
  0
LINE
  5
C6C
330
A02
100
AcDbEntity
  8
Shape2DView005
100
AcDbLine
 10
378.433
 20
920
 30
0
 11
368.233
 21
920
 31
0
  0
LINE
  5
C6D
330
A02
100
AcDbEntity
  8
Shape2DView005
100
AcDbLine
 10
345.1
 20
917
 30
0
 11
368.233
 21
917
 31
0
  0
LINE
  5
C6E
330
A02
100
AcDbEntity
  8
Shape2DView005
100
AcDbLine
 10
368.233
 20
917
 30
0
 11
368.233
 21
920
 31
0
  0
LINE
  5
C6F
330
A02
100
AcDbEntity
  8
Shape2DView005
100
AcDbLine
 10
345.1
 20
917
 30
0
 11
345.1
 21
920
 31
0
  0
LINE
  5
C70
330
A02
100
AcDbEntity
  8
Shape2DView005
100
AcDbLine
 10
345.1
 20
920
 30
0
 11
334.9
 21
920
 31
0
  0
LINE
  5
C71
330
A02
100
AcDbEntity
  8
Shape2DView005
100
AcDbLine
 10
311.767
 20
917
 30
0
 11
334.9
 21
917
 31
0
  0
LINE
  5
C72
330
A02
100
AcDbEntity
  8
Shape2DView005
100
AcDbLine
 10
334.9
 20
917
 30
0
 11
334.9
 21
920
 31
0
  0
LINE
  5
C73
330
A02
100
AcDbEntity
  8
Shape2DView005
100
AcDbLine
 10
311.767
 20
917
 30
0
 11
311.767
 21
920
 31
0
  0
LINE
  5
C74
330
A02
100
AcDbEntity
  8
Shape2DView005
100
AcDbLine
 10
311.767
 20
920
 30
0
 11
301.567
 21
920
 31
0
  0
LINE
  5
C75
330
A02
100
AcDbEntity
  8
Shape2DView005
100
AcDbLine
 10
290
 20
917
 30
0
 11
301.567
 21
917
 31
0
  0
LINE
  5
C76
330
A02
100
AcDbEntity
  8
Shape2DView005
100
AcDbLine
 10
290
 20
899.067
 30
0
 11
290
 21
917
 31
0
  0
LINE
  5
C77
330
A02
100
AcDbEntity
  8
Shape2DView005
100
AcDbLine
 10
290
 20
899.067
 30
0
 11
292.759
 21
899.067
 31
0
  0
LINE
  5
C78
330
A02
100
AcDbEntity
  8
Shape2DView005
100
AcDbLine
 10
301.567
 20
917
 30
0
 11
301.567
 21
920
 31
0
  0
ARC
  5
C79
330
A02
100
AcDbEntity
  8
Shape2DView005
100
AcDbCircle
 10
292.943
 20
898.96
 30
0
 40
0.213333
100
AcDbArc
 50
0
 51
150
  0
ARC
  5
C7A
330
A02
100
AcDbEntity
  8
Shape2DView005
100
AcDbCircle
 10
292.943
 20
898.96
 30
0
 40
0.213333
100
AcDbArc
 50
-60
 51
0
  0
LINE
  5
C7B
330
A02
100
AcDbEntity
  8
Shape2DView005
100
AcDbLine
 10
293.05
 20
898.775
 30
0
 11
293.05
 21
889.558
 31
0
  0
ARC
  5
C7C
330
A02
100
AcDbEntity
  8
Shape2DView005
100
AcDbCircle
 10
292.943
 20
889.373
 30
0
 40
0.213333
100
AcDbArc
 50
0
 51
60
  0
ARC
  5
C7D
330
A02
100
AcDbEntity
  8
Shape2DView005
100
AcDbCircle
 10
292.943
 20
889.373
 30
0
 40
0.213333
100
AcDbArc
 50
-150
 51
0
  0
LINE
  5
C7E
330
A02
100
AcDbEntity
  8
Shape2DView005
100
AcDbLine
 10
290
 20
889.267
 30
0
 11
292.759
 21
889.267
 31
0
  0
LINE
  5
C7F
330
A02
100
AcDbEntity
  8
Shape2DView005
100
AcDbLine
 10
290
 20
853.4
 30
0
 11
290
 21
889.267
 31
0
  0
LINE
  5
C80
330
A02
100
AcDbEntity
  8
Shape2DView005
100
AcDbLine
 10
290
 20
853.4
 30
0
 11
292.759
 21
853.4
 31
0
  0
ARC
  5
C81
330
A02
100
AcDbEntity
  8
Shape2DView005
100
AcDbCircle
 10
292.943
 20
853.293
 30
0
 40
0.213333
100
AcDbArc
 50
0
 51
150
  0
ARC
  5
C82
330
A02
100
AcDbEntity
  8
Shape2DView005
100
AcDbCircle
 10
292.943
 20
853.293
 30
0
 40
0.213333
100
AcDbArc
 50
-60
 51
0
  0
LINE
  5
C83
330
A02
100
AcDbEntity
  8
Shape2DView005
100
AcDbLine
 10
293.05
 20
853.109
 30
0
 11
293.05
 21
843.891
 31
0
  0
ARC
  5
C84
330
A02
100
AcDbEntity
  8
Shape2DView005
100
AcDbCircle
 10
292.943
 20
843.707
 30
0
 40
0.213333
100
AcDbArc
 50
0
 51
60
  0
ARC
  5
C85
330
A02
100
AcDbEntity
  8
Shape2DView005
100
AcDbCircle
 10
292.943
 20
843.707
 30
0
 40
0.213333
100
AcDbArc
 50
-150
 51
0
  0
LINE
  5
C86
330
A02
100
AcDbEntity
  8
Shape2DView005
100
AcDbLine
 10
290
 20
843.6
 30
0
 11
292.759
 21
843.6
 31
0
  0
LINE
  5
C87
330
A02
100
AcDbEntity
  8
Shape2DView005
100
AcDbLine
 10
290
 20
807.733
 30
0
 11
290
 21
843.6
 31
0
  0
LINE
  5
C88
330
A02
100
AcDbEntity
  8
Shape2DView005
100
AcDbLine
 10
290
 20
807.733
 30
0
 11
292.759
 21
807.733
 31
0
  0
ARC
  5
C89
330
A02
100
AcDbEntity
  8
Shape2DView005
100
AcDbCircle
 10
292.943
 20
807.627
 30
0
 40
0.213333
100
AcDbArc
 50
0
 51
150
  0
ARC
  5
C8A
330
A02
100
AcDbEntity
  8
Shape2DView005
100
AcDbCircle
 10
292.943
 20
807.627
 30
0
 40
0.213333
100
AcDbArc
 50
-60
 51
0
  0
LINE
  5
C8B
330
A02
100
AcDbEntity
  8
Shape2DView005
100
AcDbLine
 10
293.05
 20
807.442
 30
0
 11
293.05
 21
798.225
 31
0
  0
ARC
  5
C8C
330
A02
100
AcDbEntity
  8
Shape2DView005
100
AcDbCircle
 10
292.943
 20
798.04
 30
0
 40
0.213333
100
AcDbArc
 50
0
 51
60
  0
ARC
  5
C8D
330
A02
100
AcDbEntity
  8
Shape2DView005
100
AcDbCircle
 10
292.943
 20
798.04
 30
0
 40
0.213333
100
AcDbArc
 50
-150
 51
0
  0
LINE
  5
C8E
330
A02
100
AcDbEntity
  8
Shape2DView005
100
AcDbLine
 10
290
 20
797.933
 30
0
 11
292.759
 21
797.933
 31
0
  0
LINE
  5
C8F
330
A02
100
AcDbEntity
  8
Shape2DView005
100
AcDbLine
 10
290
 20
762.067
 30
0
 11
290
 21
797.933
 31
0
  0
LINE
  5
C90
330
A02
100
AcDbEntity
  8
Shape2DView005
100
AcDbLine
 10
290
 20
762.067
 30
0
 11
292.759
 21
762.067
 31
0
  0
ARC
  5
C91
330
A02
100
AcDbEntity
  8
Shape2DView005
100
AcDbCircle
 10
292.943
 20
761.96
 30
0
 40
0.213333
100
AcDbArc
 50
0
 51
150
  0
ARC
  5
C92
330
A02
100
AcDbEntity
  8
Shape2DView005
100
AcDbCircle
 10
292.943
 20
761.96
 30
0
 40
0.213333
100
AcDbArc
 50
-60
 51
0
  0
LINE
  5
C93
330
A02
100
AcDbEntity
  8
Shape2DView005
100
AcDbLine
 10
293.05
 20
761.775
 30
0
 11
293.05
 21
752.558
 31
0
  0
ARC
  5
C94
330
A02
100
AcDbEntity
  8
Shape2DView005
100
AcDbCircle
 10
292.943
 20
752.373
 30
0
 40
0.213333
100
AcDbArc
 50
0
 51
60
  0
ARC
  5
C95
330
A02
100
AcDbEntity
  8
Shape2DView005
100
AcDbCircle
 10
292.943
 20
752.373
 30
0
 40
0.213333
100
AcDbArc
 50
-150
 51
0
  0
LINE
  5
C96
330
A02
100
AcDbEntity
  8
Shape2DView005
100
AcDbLine
 10
290
 20
752.267
 30
0
 11
292.759
 21
752.267
 31
0
  0
LINE
  5
C97
330
A02
100
AcDbEntity
  8
Shape2DView005
100
AcDbLine
 10
290
 20
716.4
 30
0
 11
290
 21
752.267
 31
0
  0
LINE
  5
C98
330
A02
100
AcDbEntity
  8
Shape2DView005
100
AcDbLine
 10
290
 20
716.4
 30
0
 11
292.759
 21
716.4
 31
0
  0
ARC
  5
C99
330
A02
100
AcDbEntity
  8
Shape2DView005
100
AcDbCircle
 10
292.943
 20
716.293
 30
0
 40
0.213333
100
AcDbArc
 50
0
 51
150
  0
ARC
  5
C9A
330
A02
100
AcDbEntity
  8
Shape2DView005
100
AcDbCircle
 10
292.943
 20
716.293
 30
0
 40
0.213333
100
AcDbArc
 50
-60
 51
0
  0
LINE
  5
C9B
330
A02
100
AcDbEntity
  8
Shape2DView005
100
AcDbLine
 10
293.05
 20
716.109
 30
0
 11
293.05
 21
706.891
 31
0
  0
ARC
  5
C9C
330
A02
100
AcDbEntity
  8
Shape2DView005
100
AcDbCircle
 10
292.943
 20
706.707
 30
0
 40
0.213333
100
AcDbArc
 50
0
 51
60
  0
ARC
  5
C9D
330
A02
100
AcDbEntity
  8
Shape2DView005
100
AcDbCircle
 10
292.943
 20
706.707
 30
0
 40
0.213333
100
AcDbArc
 50
-150
 51
0
  0
LINE
  5
C9E
330
A02
100
AcDbEntity
  8
Shape2DView005
100
AcDbLine
 10
290
 20
706.6
 30
0
 11
292.759
 21
706.6
 31
0
  0
LINE
  5
C9F
330
A02
100
AcDbEntity
  8
Shape2DView005
100
AcDbLine
 10
290
 20
670.733
 30
0
 11
290
 21
706.6
 31
0
  0
LINE
  5
CA0
330
A02
100
AcDbEntity
  8
Shape2DView005
100
AcDbLine
 10
290
 20
670.733
 30
0
 11
292.759
 21
670.733
 31
0
  0
ARC
  5
CA1
330
A02
100
AcDbEntity
  8
Shape2DView005
100
AcDbCircle
 10
292.943
 20
670.627
 30
0
 40
0.213333
100
AcDbArc
 50
0
 51
150
  0
ARC
  5
CA2
330
A02
100
AcDbEntity
  8
Shape2DView005
100
AcDbCircle
 10
292.943
 20
670.627
 30
0
 40
0.213333
100
AcDbArc
 50
-60
 51
0
  0
LINE
  5
CA3
330
A02
100
AcDbEntity
  8
Shape2DView005
100
AcDbLine
 10
293.05
 20
670.442
 30
0
 11
293.05
 21
661.225
 31
0
  0
ARC
  5
CA4
330
A02
100
AcDbEntity
  8
Shape2DView005
100
AcDbCircle
 10
292.943
 20
661.04
 30
0
 40
0.213333
100
AcDbArc
 50
0
 51
60
  0
ARC
  5
CA5
330
A02
100
AcDbEntity
  8
Shape2DView005
100
AcDbCircle
 10
292.943
 20
661.04
 30
0
 40
0.213333
100
AcDbArc
 50
-150
 51
0
  0
LINE
  5
CA6
330
A02
100
AcDbEntity
  8
Shape2DView005
100
AcDbLine
 10
303.767
 20
782.768
 30
0
 11
303.767
 21
780.232
 31
0
  0
ARC
  5
CA7
330
A02
100
AcDbEntity
  8
Shape2DView005
100
AcDbCircle
 10
303.87
 20
782.947
 30
0
 40
0.206667
100
AcDbArc
 50
30
 51
-120
  0
LINE
  5
CA8
330
A02
100
AcDbEntity
  8
Shape2DView005
100
AcDbLine
 10
313.284
 20
783.05
 30
0
 11
304.049
 21
783.05
 31
0
  0
ARC
  5
CA9
330
A02
100
AcDbEntity
  8
Shape2DView005
100
AcDbCircle
 10
313.463
 20
782.947
 30
0
 40
0.206667
100
AcDbArc
 50
-60
 51
150
  0
LINE
  5
CAA
330
A02
100
AcDbEntity
  8
Shape2DView005
100
AcDbLine
 10
313.567
 20
782.768
 30
0
 11
313.567
 21
780.232
 31
0
  0
ARC
  5
CAB
330
A02
100
AcDbEntity
  8
Shape2DView005
100
AcDbCircle
 10
313.463
 20
780.053
 30
0
 40
0.206667
100
AcDbArc
 50
-90
 51
60
  0
ARC
  5
CAC
330
A02
100
AcDbEntity
  8
Shape2DView005
100
AcDbCircle
 10
313.463
 20
780.053
 30
0
 40
0.206667
100
AcDbArc
 50
-150
 51
-90
  0
LINE
  5
CAD
330
A02
100
AcDbEntity
  8
Shape2DView005
100
AcDbLine
 10
313.284
 20
779.95
 30
0
 11
304.049
 21
779.95
 31
0
  0
ARC
  5
CAE
330
A02
100
AcDbEntity
  8
Shape2DView005
100
AcDbCircle
 10
303.87
 20
780.053
 30
0
 40
0.206667
100
AcDbArc
 50
-90
 51
-30
  0
ARC
  5
CAF
330
A02
100
AcDbEntity
  8
Shape2DView005
100
AcDbCircle
 10
303.87
 20
780.053
 30
0
 40
0.206667
100
AcDbArc
 50
120
 51
-90
  0
LINE
  5
CB0
330
A02
100
AcDbEntity
  8
Shape2DView005
100
AcDbLine
 10
366.433
 20
782.768
 30
0
 11
366.433
 21
780.232
 31
0
  0
ARC
  5
CB1
330
A02
100
AcDbEntity
  8
Shape2DView005
100
AcDbCircle
 10
366.537
 20
782.947
 30
0
 40
0.206667
100
AcDbArc
 50
30
 51
-120
  0
LINE
  5
CB2
330
A02
100
AcDbEntity
  8
Shape2DView005
100
AcDbLine
 10
375.951
 20
783.05
 30
0
 11
366.716
 21
783.05
 31
0
  0
ARC
  5
CB3
330
A02
100
AcDbEntity
  8
Shape2DView005
100
AcDbCircle
 10
376.13
 20
782.947
 30
0
 40
0.206667
100
AcDbArc
 50
-60
 51
150
  0
LINE
  5
CB4
330
A02
100
AcDbEntity
  8
Shape2DView005
100
AcDbLine
 10
376.233
 20
782.768
 30
0
 11
376.233
 21
780.232
 31
0
  0
ARC
  5
CB5
330
A02
100
AcDbEntity
  8
Shape2DView005
100
AcDbCircle
 10
376.13
 20
780.053
 30
0
 40
0.206667
100
AcDbArc
 50
-90
 51
60
  0
ARC
  5
CB6
330
A02
100
AcDbEntity
  8
Shape2DView005
100
AcDbCircle
 10
376.13
 20
780.053
 30
0
 40
0.206667
100
AcDbArc
 50
-150
 51
-90
  0
LINE
  5
CB7
330
A02
100
AcDbEntity
  8
Shape2DView005
100
AcDbLine
 10
375.951
 20
779.95
 30
0
 11
366.716
 21
779.95
 31
0
  0
ARC
  5
CB8
330
A02
100
AcDbEntity
  8
Shape2DView005
100
AcDbCircle
 10
366.537
 20
780.053
 30
0
 40
0.206667
100
AcDbArc
 50
-90
 51
-30
  0
ARC
  5
CB9
330
A02
100
AcDbEntity
  8
Shape2DView005
100
AcDbCircle
 10
366.537
 20
780.053
 30
0
 40
0.206667
100
AcDbArc
 50
120
 51
-90
  0
LINE
  5
CBA
330
A02
100
AcDbEntity
  8
Shape2DView005
100
AcDbLine
 10
335.1
 20
782.768
 30
0
 11
335.1
 21
780.232
 31
0
  0
ARC
  5
CBB
330
A02
100
AcDbEntity
  8
Shape2DView005
100
AcDbCircle
 10
335.203
 20
782.947
 30
0
 40
0.206667
100
AcDbArc
 50
30
 51
-120
  0
LINE
  5
CBC
330
A02
100
AcDbEntity
  8
Shape2DView005
100
AcDbLine
 10
344.618
 20
783.05
 30
0
 11
335.382
 21
783.05
 31
0
  0
ARC
  5
CBD
330
A02
100
AcDbEntity
  8
Shape2DView005
100
AcDbCircle
 10
344.797
 20
782.947
 30
0
 40
0.206667
100
AcDbArc
 50
-60
 51
150
  0
LINE
  5
CBE
330
A02
100
AcDbEntity
  8
Shape2DView005
100
AcDbLine
 10
344.9
 20
782.768
 30
0
 11
344.9
 21
780.232
 31
0
  0
ARC
  5
CBF
330
A02
100
AcDbEntity
  8
Shape2DView005
100
AcDbCircle
 10
344.797
 20
780.053
 30
0
 40
0.206667
100
AcDbArc
 50
-90
 51
60
  0
ARC
  5
CC0
330
A02
100
AcDbEntity
  8
Shape2DView005
100
AcDbCircle
 10
344.797
 20
780.053
 30
0
 40
0.206667
100
AcDbArc
 50
-150
 51
-90
  0
LINE
  5
CC1
330
A02
100
AcDbEntity
  8
Shape2DView005
100
AcDbLine
 10
344.618
 20
779.95
 30
0
 11
335.382
 21
779.95
 31
0
  0
ARC
  5
CC2
330
A02
100
AcDbEntity
  8
Shape2DView005
100
AcDbCircle
 10
335.203
 20
780.053
 30
0
 40
0.206667
100
AcDbArc
 50
-90
 51
-30
  0
ARC
  5
CC3
330
A02
100
AcDbEntity
  8
Shape2DView005
100
AcDbCircle
 10
335.203
 20
780.053
 30
0
 40
0.206667
100
AcDbArc
 50
120
 51
-90
  0
LINE
  5
CC4
330
A02
100
AcDbEntity
  8
Shape2DView006
100
AcDbLine
 10
0
 20
963
 30
0
 11
0
 21
980.933
 31
0
  0
LINE
  5
CC5
330
A02
100
AcDbEntity
  8
Shape2DView006
100
AcDbLine
 10
-9.15934e-16
 20
980.933
 30
0
 11
2.75858
 21
980.933
 31
0
  0
LINE
  5
CC6
330
A02
100
AcDbEntity
  8
Shape2DView006
100
AcDbLine
 10
11.5667
 20
963
 30
0
 11
0
 21
963
 31
0
  0
LINE
  5
CC7
330
A02
100
AcDbEntity
  8
Shape2DView006
100
AcDbLine
 10
11.5667
 20
963
 30
0
 11
11.5667
 21
960
 31
0
  0
LINE
  5
CC8
330
A02
100
AcDbEntity
  8
Shape2DView006
100
AcDbLine
 10
11.5667
 20
960
 30
0
 11
21.7667
 21
960
 31
0
  0
LINE
  5
CC9
330
A02
100
AcDbEntity
  8
Shape2DView006
100
AcDbLine
 10
44.9
 20
963
 30
0
 11
21.7667
 21
963
 31
0
  0
LINE
  5
CCA
330
A02
100
AcDbEntity
  8
Shape2DView006
100
AcDbLine
 10
21.7667
 20
963
 30
0
 11
21.7667
 21
960
 31
0
  0
LINE
  5
CCB
330
A02
100
AcDbEntity
  8
Shape2DView006
100
AcDbLine
 10
44.9
 20
963
 30
0
 11
44.9
 21
960
 31
0
  0
LINE
  5
CCC
330
A02
100
AcDbEntity
  8
Shape2DView006
100
AcDbLine
 10
44.9
 20
960
 30
0
 11
55.1
 21
960
 31
0
  0
LINE
  5
CCD
330
A02
100
AcDbEntity
  8
Shape2DView006
100
AcDbLine
 10
78.2333
 20
963
 30
0
 11
55.1
 21
963
 31
0
  0
LINE
  5
CCE
330
A02
100
AcDbEntity
  8
Shape2DView006
100
AcDbLine
 10
55.1
 20
963
 30
0
 11
55.1
 21
960
 31
0
  0
LINE
  5
CCF
330
A02
100
AcDbEntity
  8
Shape2DView006
100
AcDbLine
 10
78.2333
 20
963
 30
0
 11
78.2333
 21
960
 31
0
  0
LINE
  5
CD0
330
A02
100
AcDbEntity
  8
Shape2DView006
100
AcDbLine
 10
78.2333
 20
960
 30
0
 11
88.4333
 21
960
 31
0
  0
LINE
  5
CD1
330
A02
100
AcDbEntity
  8
Shape2DView006
100
AcDbLine
 10
100
 20
963
 30
0
 11
88.4333
 21
963
 31
0
  0
LINE
  5
CD2
330
A02
100
AcDbEntity
  8
Shape2DView006
100
AcDbLine
 10
100
 20
1237
 30
0
 11
100
 21
963
 31
0
  0
LINE
  5
CD3
330
A02
100
AcDbEntity
  8
Shape2DView006
100
AcDbLine
 10
88.4333
 20
1237
 30
0
 11
100
 21
1237
 31
0
  0
LINE
  5
CD4
330
A02
100
AcDbEntity
  8
Shape2DView006
100
AcDbLine
 10
88.4333
 20
963
 30
0
 11
88.4333
 21
960
 31
0
  0
LINE
  5
CD5
330
A02
100
AcDbEntity
  8
Shape2DView006
100
AcDbLine
 10
88.4333
 20
1237
 30
0
 11
88.4333
 21
1240
 31
0
  0
LINE
  5
CD6
330
A02
100
AcDbEntity
  8
Shape2DView006
100
AcDbLine
 10
88.4333
 20
1240
 30
0
 11
78.2333
 21
1240
 31
0
  0
LINE
  5
CD7
330
A02
100
AcDbEntity
  8
Shape2DView006
100
AcDbLine
 10
55.1
 20
1237
 30
0
 11
78.2333
 21
1237
 31
0
  0
LINE
  5
CD8
330
A02
100
AcDbEntity
  8
Shape2DView006
100
AcDbLine
 10
78.2333
 20
1237
 30
0
 11
78.2333
 21
1240
 31
0
  0
LINE
  5
CD9
330
A02
100
AcDbEntity
  8
Shape2DView006
100
AcDbLine
 10
55.1
 20
1237
 30
0
 11
55.1
 21
1240
 31
0
  0
LINE
  5
CDA
330
A02
100
AcDbEntity
  8
Shape2DView006
100
AcDbLine
 10
55.1
 20
1240
 30
0
 11
44.9
 21
1240
 31
0
  0
LINE
  5
CDB
330
A02
100
AcDbEntity
  8
Shape2DView006
100
AcDbLine
 10
21.7667
 20
1237
 30
0
 11
44.9
 21
1237
 31
0
  0
LINE
  5
CDC
330
A02
100
AcDbEntity
  8
Shape2DView006
100
AcDbLine
 10
44.9
 20
1237
 30
0
 11
44.9
 21
1240
 31
0
  0
LINE
  5
CDD
330
A02
100
AcDbEntity
  8
Shape2DView006
100
AcDbLine
 10
21.7667
 20
1237
 30
0
 11
21.7667
 21
1240
 31
0
  0
LINE
  5
CDE
330
A02
100
AcDbEntity
  8
Shape2DView006
100
AcDbLine
 10
21.7667
 20
1240
 30
0
 11
11.5667
 21
1240
 31
0
  0
LINE
  5
CDF
330
A02
100
AcDbEntity
  8
Shape2DView006
100
AcDbLine
 10
0
 20
1237
 30
0
 11
11.5667
 21
1237
 31
0
  0
LINE
  5
CE0
330
A02
100
AcDbEntity
  8
Shape2DView006
100
AcDbLine
 10
0
 20
1219.07
 30
0
 11
0
 21
1237
 31
0
  0
LINE
  5
CE1
330
A02
100
AcDbEntity
  8
Shape2DView006
100
AcDbLine
 10
-9.15934e-16
 20
1219.07
 30
0
 11
2.75858
 21
1219.07
 31
0
  0
LINE
  5
CE2
330
A02
100
AcDbEntity
  8
Shape2DView006
100
AcDbLine
 10
11.5667
 20
1237
 30
0
 11
11.5667
 21
1240
 31
0
  0
ARC
  5
CE3
330
A02
100
AcDbEntity
  8
Shape2DView006
100
AcDbCircle
 10
2.94333
 20
1218.96
 30
0
 40
0.213333
100
AcDbArc
 50
0
 51
150
  0
ARC
  5
CE4
330
A02
100
AcDbEntity
  8
Shape2DView006
100
AcDbCircle
 10
2.94333
 20
1218.96
 30
0
 40
0.213333
100
AcDbArc
 50
-60
 51
0
  0
LINE
  5
CE5
330
A02
100
AcDbEntity
  8
Shape2DView006
100
AcDbLine
 10
3.05
 20
1209.56
 30
0
 11
3.05
 21
1218.78
 31
0
  0
ARC
  5
CE6
330
A02
100
AcDbEntity
  8
Shape2DView006
100
AcDbCircle
 10
2.94333
 20
1209.37
 30
0
 40
0.213333
100
AcDbArc
 50
0
 51
60
  0
ARC
  5
CE7
330
A02
100
AcDbEntity
  8
Shape2DView006
100
AcDbCircle
 10
2.94333
 20
1209.37
 30
0
 40
0.213333
100
AcDbArc
 50
-150
 51
0
  0
LINE
  5
CE8
330
A02
100
AcDbEntity
  8
Shape2DView006
100
AcDbLine
 10
-9.15934e-16
 20
1209.27
 30
0
 11
2.75858
 21
1209.27
 31
0
  0
LINE
  5
CE9
330
A02
100
AcDbEntity
  8
Shape2DView006
100
AcDbLine
 10
0
 20
1173.4
 30
0
 11
0
 21
1209.27
 31
0
  0
LINE
  5
CEA
330
A02
100
AcDbEntity
  8
Shape2DView006
100
AcDbLine
 10
-9.15934e-16
 20
1173.4
 30
0
 11
2.75858
 21
1173.4
 31
0
  0
ARC
  5
CEB
330
A02
100
AcDbEntity
  8
Shape2DView006
100
AcDbCircle
 10
2.94333
 20
1173.29
 30
0
 40
0.213333
100
AcDbArc
 50
0
 51
150
  0
ARC
  5
CEC
330
A02
100
AcDbEntity
  8
Shape2DView006
100
AcDbCircle
 10
2.94333
 20
1173.29
 30
0
 40
0.213333
100
AcDbArc
 50
-60
 51
0
  0
LINE
  5
CED
330
A02
100
AcDbEntity
  8
Shape2DView006
100
AcDbLine
 10
3.05
 20
1163.89
 30
0
 11
3.05
 21
1173.11
 31
0
  0
ARC
  5
CEE
330
A02
100
AcDbEntity
  8
Shape2DView006
100
AcDbCircle
 10
2.94333
 20
1163.71
 30
0
 40
0.213333
100
AcDbArc
 50
0
 51
60
  0
ARC
  5
CEF
330
A02
100
AcDbEntity
  8
Shape2DView006
100
AcDbCircle
 10
2.94333
 20
1163.71
 30
0
 40
0.213333
100
AcDbArc
 50
-150
 51
0
  0
LINE
  5
CF0
330
A02
100
AcDbEntity
  8
Shape2DView006
100
AcDbLine
 10
-9.15934e-16
 20
1163.6
 30
0
 11
2.75858
 21
1163.6
 31
0
  0
LINE
  5
CF1
330
A02
100
AcDbEntity
  8
Shape2DView006
100
AcDbLine
 10
0
 20
1127.73
 30
0
 11
0
 21
1163.6
 31
0
  0
LINE
  5
CF2
330
A02
100
AcDbEntity
  8
Shape2DView006
100
AcDbLine
 10
-9.15934e-16
 20
1127.73
 30
0
 11
2.75858
 21
1127.73
 31
0
  0
ARC
  5
CF3
330
A02
100
AcDbEntity
  8
Shape2DView006
100
AcDbCircle
 10
2.94333
 20
1127.63
 30
0
 40
0.213333
100
AcDbArc
 50
0
 51
150
  0
ARC
  5
CF4
330
A02
100
AcDbEntity
  8
Shape2DView006
100
AcDbCircle
 10
2.94333
 20
1127.63
 30
0
 40
0.213333
100
AcDbArc
 50
-60
 51
0
  0
LINE
  5
CF5
330
A02
100
AcDbEntity
  8
Shape2DView006
100
AcDbLine
 10
3.05
 20
1118.22
 30
0
 11
3.05
 21
1127.44
 31
0
  0
ARC
  5
CF6
330
A02
100
AcDbEntity
  8
Shape2DView006
100
AcDbCircle
 10
2.94333
 20
1118.04
 30
0
 40
0.213333
100
AcDbArc
 50
0
 51
60
  0
ARC
  5
CF7
330
A02
100
AcDbEntity
  8
Shape2DView006
100
AcDbCircle
 10
2.94333
 20
1118.04
 30
0
 40
0.213333
100
AcDbArc
 50
-150
 51
0
  0
LINE
  5
CF8
330
A02
100
AcDbEntity
  8
Shape2DView006
100
AcDbLine
 10
-9.15934e-16
 20
1117.93
 30
0
 11
2.75858
 21
1117.93
 31
0
  0
LINE
  5
CF9
330
A02
100
AcDbEntity
  8
Shape2DView006
100
AcDbLine
 10
0
 20
1082.07
 30
0
 11
0
 21
1117.93
 31
0
  0
LINE
  5
CFA
330
A02
100
AcDbEntity
  8
Shape2DView006
100
AcDbLine
 10
-9.15934e-16
 20
1082.07
 30
0
 11
2.75858
 21
1082.07
 31
0
  0
ARC
  5
CFB
330
A02
100
AcDbEntity
  8
Shape2DView006
100
AcDbCircle
 10
2.94333
 20
1081.96
 30
0
 40
0.213333
100
AcDbArc
 50
0
 51
150
  0
ARC
  5
CFC
330
A02
100
AcDbEntity
  8
Shape2DView006
100
AcDbCircle
 10
2.94333
 20
1081.96
 30
0
 40
0.213333
100
AcDbArc
 50
-60
 51
0
  0
LINE
  5
CFD
330
A02
100
AcDbEntity
  8
Shape2DView006
100
AcDbLine
 10
3.05
 20
1072.56
 30
0
 11
3.05
 21
1081.78
 31
0
  0
ARC
  5
CFE
330
A02
100
AcDbEntity
  8
Shape2DView006
100
AcDbCircle
 10
2.94333
 20
1072.37
 30
0
 40
0.213333
100
AcDbArc
 50
0
 51
60
  0
ARC
  5
CFF
330
A02
100
AcDbEntity
  8
Shape2DView006
100
AcDbCircle
 10
2.94333
 20
1072.37
 30
0
 40
0.213333
100
AcDbArc
 50
-150
 51
0
  0
LINE
  5
D00
330
A02
100
AcDbEntity
  8
Shape2DView006
100
AcDbLine
 10
-9.15934e-16
 20
1072.27
 30
0
 11
2.75858
 21
1072.27
 31
0
  0
LINE
  5
D01
330
A02
100
AcDbEntity
  8
Shape2DView006
100
AcDbLine
 10
0
 20
1036.4
 30
0
 11
0
 21
1072.27
 31
0
  0
LINE
  5
D02
330
A02
100
AcDbEntity
  8
Shape2DView006
100
AcDbLine
 10
-9.15934e-16
 20
1036.4
 30
0
 11
2.75858
 21
1036.4
 31
0
  0
ARC
  5
D03
330
A02
100
AcDbEntity
  8
Shape2DView006
100
AcDbCircle
 10
2.94333
 20
1036.29
 30
0
 40
0.213333
100
AcDbArc
 50
0
 51
150
  0
ARC
  5
D04
330
A02
100
AcDbEntity
  8
Shape2DView006
100
AcDbCircle
 10
2.94333
 20
1036.29
 30
0
 40
0.213333
100
AcDbArc
 50
-60
 51
0
  0
LINE
  5
D05
330
A02
100
AcDbEntity
  8
Shape2DView006
100
AcDbLine
 10
3.05
 20
1026.89
 30
0
 11
3.05
 21
1036.11
 31
0
  0
ARC
  5
D06
330
A02
100
AcDbEntity
  8
Shape2DView006
100
AcDbCircle
 10
2.94333
 20
1026.71
 30
0
 40
0.213333
100
AcDbArc
 50
0
 51
60
  0
ARC
  5
D07
330
A02
100
AcDbEntity
  8
Shape2DView006
100
AcDbCircle
 10
2.94333
 20
1026.71
 30
0
 40
0.213333
100
AcDbArc
 50
-150
 51
0
  0
LINE
  5
D08
330
A02
100
AcDbEntity
  8
Shape2DView006
100
AcDbLine
 10
-9.15934e-16
 20
1026.6
 30
0
 11
2.75858
 21
1026.6
 31
0
  0
LINE
  5
D09
330
A02
100
AcDbEntity
  8
Shape2DView006
100
AcDbLine
 10
0
 20
990.733
 30
0
 11
0
 21
1026.6
 31
0
  0
LINE
  5
D0A
330
A02
100
AcDbEntity
  8
Shape2DView006
100
AcDbLine
 10
-9.15934e-16
 20
990.733
 30
0
 11
2.75858
 21
990.733
 31
0
  0
ARC
  5
D0B
330
A02
100
AcDbEntity
  8
Shape2DView006
100
AcDbCircle
 10
2.94333
 20
990.627
 30
0
 40
0.213333
100
AcDbArc
 50
0
 51
150
  0
ARC
  5
D0C
330
A02
100
AcDbEntity
  8
Shape2DView006
100
AcDbCircle
 10
2.94333
 20
990.627
 30
0
 40
0.213333
100
AcDbArc
 50
-60
 51
0
  0
LINE
  5
D0D
330
A02
100
AcDbEntity
  8
Shape2DView006
100
AcDbLine
 10
3.05
 20
981.225
 30
0
 11
3.05
 21
990.442
 31
0
  0
ARC
  5
D0E
330
A02
100
AcDbEntity
  8
Shape2DView006
100
AcDbCircle
 10
2.94333
 20
981.04
 30
0
 40
0.213333
100
AcDbArc
 50
0
 51
60
  0
ARC
  5
D0F
330
A02
100
AcDbEntity
  8
Shape2DView006
100
AcDbCircle
 10
2.94333
 20
981.04
 30
0
 40
0.213333
100
AcDbArc
 50
-150
 51
0
  0
ARC
  5
D10
330
A02
100
AcDbEntity
  8
Shape2DView006
100
AcDbCircle
 10
23.4633
 20
1100.05
 30
0
 40
0.206667
100
AcDbArc
 50
-90
 51
60
  0
ARC
  5
D11
330
A02
100
AcDbEntity
  8
Shape2DView006
100
AcDbCircle
 10
23.4633
 20
1100.05
 30
0
 40
0.206667
100
AcDbArc
 50
-150
 51
-90
  0
LINE
  5
D12
330
A02
100
AcDbEntity
  8
Shape2DView006
100
AcDbLine
 10
14.049
 20
1099.95
 30
0
 11
23.2844
 21
1099.95
 31
0
  0
ARC
  5
D13
330
A02
100
AcDbEntity
  8
Shape2DView006
100
AcDbCircle
 10
13.87
 20
1100.05
 30
0
 40
0.206667
100
AcDbArc
 50
-90
 51
-30
  0
ARC
  5
D14
330
A02
100
AcDbEntity
  8
Shape2DView006
100
AcDbCircle
 10
13.87
 20
1100.05
 30
0
 40
0.206667
100
AcDbArc
 50
120
 51
-90
  0
LINE
  5
D15
330
A02
100
AcDbEntity
  8
Shape2DView006
100
AcDbLine
 10
13.7667
 20
1102.77
 30
0
 11
13.7667
 21
1100.23
 31
0
  0
ARC
  5
D16
330
A02
100
AcDbEntity
  8
Shape2DView006
100
AcDbCircle
 10
13.87
 20
1102.95
 30
0
 40
0.206667
100
AcDbArc
 50
30
 51
-120
  0
LINE
  5
D17
330
A02
100
AcDbEntity
  8
Shape2DView006
100
AcDbLine
 10
14.049
 20
1103.05
 30
0
 11
23.2844
 21
1103.05
 31
0
  0
ARC
  5
D18
330
A02
100
AcDbEntity
  8
Shape2DView006
100
AcDbCircle
 10
23.4633
 20
1102.95
 30
0
 40
0.206667
100
AcDbArc
 50
-60
 51
150
  0
LINE
  5
D19
330
A02
100
AcDbEntity
  8
Shape2DView006
100
AcDbLine
 10
23.5667
 20
1102.77
 30
0
 11
23.5667
 21
1100.23
 31
0
  0
ARC
  5
D1A
330
A02
100
AcDbEntity
  8
Shape2DView006
100
AcDbCircle
 10
86.13
 20
1100.05
 30
0
 40
0.206667
100
AcDbArc
 50
-90
 51
60
  0
ARC
  5
D1B
330
A02
100
AcDbEntity
  8
Shape2DView006
100
AcDbCircle
 10
86.13
 20
1100.05
 30
0
 40
0.206667
100
AcDbArc
 50
-150
 51
-90
  0
LINE
  5
D1C
330
A02
100
AcDbEntity
  8
Shape2DView006
100
AcDbLine
 10
76.7156
 20
1099.95
 30
0
 11
85.951
 21
1099.95
 31
0
  0
ARC
  5
D1D
330
A02
100
AcDbEntity
  8
Shape2DView006
100
AcDbCircle
 10
76.5367
 20
1100.05
 30
0
 40
0.206667
100
AcDbArc
 50
-90
 51
-30
  0
ARC
  5
D1E
330
A02
100
AcDbEntity
  8
Shape2DView006
100
AcDbCircle
 10
76.5367
 20
1100.05
 30
0
 40
0.206667
100
AcDbArc
 50
120
 51
-90
  0
LINE
  5
D1F
330
A02
100
AcDbEntity
  8
Shape2DView006
100
AcDbLine
 10
76.4333
 20
1102.77
 30
0
 11
76.4333
 21
1100.23
 31
0
  0
ARC
  5
D20
330
A02
100
AcDbEntity
  8
Shape2DView006
100
AcDbCircle
 10
76.5367
 20
1102.95
 30
0
 40
0.206667
100
AcDbArc
 50
30
 51
-120
  0
LINE
  5
D21
330
A02
100
AcDbEntity
  8
Shape2DView006
100
AcDbLine
 10
76.7156
 20
1103.05
 30
0
 11
85.951
 21
1103.05
 31
0
  0
ARC
  5
D22
330
A02
100
AcDbEntity
  8
Shape2DView006
100
AcDbCircle
 10
86.13
 20
1102.95
 30
0
 40
0.206667
100
AcDbArc
 50
-60
 51
150
  0
LINE
  5
D23
330
A02
100
AcDbEntity
  8
Shape2DView006
100
AcDbLine
 10
86.2333
 20
1102.77
 30
0
 11
86.2333
 21
1100.23
 31
0
  0
ARC
  5
D24
330
A02
100
AcDbEntity
  8
Shape2DView006
100
AcDbCircle
 10
54.7967
 20
1100.05
 30
0
 40
0.206667
100
AcDbArc
 50
-90
 51
60
  0
ARC
  5
D25
330
A02
100
AcDbEntity
  8
Shape2DView006
100
AcDbCircle
 10
54.7967
 20
1100.05
 30
0
 40
0.206667
100
AcDbArc
 50
-150
 51
-90
  0
LINE
  5
D26
330
A02
100
AcDbEntity
  8
Shape2DView006
100
AcDbLine
 10
45.3823
 20
1099.95
 30
0
 11
54.6177
 21
1099.95
 31
0
  0
ARC
  5
D27
330
A02
100
AcDbEntity
  8
Shape2DView006
100
AcDbCircle
 10
45.2033
 20
1100.05
 30
0
 40
0.206667
100
AcDbArc
 50
-90
 51
-30
  0
ARC
  5
D28
330
A02
100
AcDbEntity
  8
Shape2DView006
100
AcDbCircle
 10
45.2033
 20
1100.05
 30
0
 40
0.206667
100
AcDbArc
 50
120
 51
-90
  0
LINE
  5
D29
330
A02
100
AcDbEntity
  8
Shape2DView006
100
AcDbLine
 10
45.1
 20
1102.77
 30
0
 11
45.1
 21
1100.23
 31
0
  0
ARC
  5
D2A
330
A02
100
AcDbEntity
  8
Shape2DView006
100
AcDbCircle
 10
45.2033
 20
1102.95
 30
0
 40
0.206667
100
AcDbArc
 50
30
 51
-120
  0
LINE
  5
D2B
330
A02
100
AcDbEntity
  8
Shape2DView006
100
AcDbLine
 10
45.3823
 20
1103.05
 30
0
 11
54.6177
 21
1103.05
 31
0
  0
ARC
  5
D2C
330
A02
100
AcDbEntity
  8
Shape2DView006
100
AcDbCircle
 10
54.7967
 20
1102.95
 30
0
 40
0.206667
100
AcDbArc
 50
-60
 51
150
  0
LINE
  5
D2D
330
A02
100
AcDbEntity
  8
Shape2DView006
100
AcDbLine
 10
54.9
 20
1102.77
 30
0
 11
54.9
 21
1100.23
 31
0
  0
ENDSEC
  0
SECTION
  2
OBJECTS
  0
DICTIONARY
  5
F000
330
0
100
AcDbDictionary
  3
ACAD_GROUP
350
F001
  0
DICTIONARY
  5
F001
330
F000
100
AcDbDictionary
  0
ENDSEC
  0
EOF