999
FreeCAD v0.19 14555 (Git shallow)
  0
SECTION
  2
HEADER
  9
$ACADVER
  1
AC1014
  9
$ACADMAINTVER
 70
     9
  9
$DWGCODEPAGE
  3
ANSI_1252
  9
$TEXTSTYLE
  7
STANDARD
  9
$DIMSTYLE
  2
STANDARD
  9
$DIMTXSTY
  7
STANDARD
  9
$CMLSTYLE
  2
STANDARD
  9
$PEXTMAX
 10
50
 20
50
 30
50
  9
$PEXTMIN
 10
0
 20
0
 30
0
  9
$HANDSEED
  5
FFFF
  0
ENDSEC
  0
SECTION
  2
CLASSES
  0
CLASS
  1
ACDBDICTIONARYWDFLT
  2
AcDbDictionaryWithDefault
  3
ObjectDBX Classes
 90
        0
280
     0
281
     0
  0
CLASS
  1
XRECORD
  2
AcDbXrecord
  3
ObjectDBX Classes
 90
        0
280
     0
281
     0
  0
CLASS
  1
LWPOLYLINE
  2
AcDbPolyline
  3
ObjectDBX Classes
 90
        0
280
     0
281
     1
  0
ENDSEC
  0
SECTION
  2
TABLES
  0
TABLE
  2
VPORT
  5
20
330
0
100
AcDbSymbolTable
 70
     1
  0
VPORT
  5
21
330
20
100
AcDbSymbolTableRecord
100
AcDbViewportTableRecord
  2
*ACTIVE
 70
     0
  0
ENDTAB
  0
TABLE
  2
LTYPE
  5
22
330
0
100
AcDbSymbolTable
 70
     1
  0
LTYPE
  5
23
330
21
100
AcDbSymbolTableRecord
100
AcDbLinetypeTableRecord
  2
BYBLOCK
 70
     0
  3

 72
    65
 73
     0
 40
0.0
  0
LTYPE
  5
24
330
21
100
AcDbSymbolTableRecord
100
AcDbLinetypeTableRecord
  2
BYLAYER
 70
     0
  3

 72
    65
 73
     0
 40
0.0
  0
LTYPE
  5
25
330
21
100
AcDbSymbolTableRecord
100
AcDbLinetypeTableRecord
  2
CONTINUOUS
 70
     0
  3
Solid line
 72
    65
 73
     0
 40
0.0
  0
ENDTAB
  0
TABLE
  2
LAYER
  5
DEE
330
0
100
AcDbSymbolTable
 70
10
  0
LAYER
  5
DEF
330
DEE
100
AcDbSymbolTableRecord
100
AcDbLayerTableRecord
  2
0
 70
   0
 62
   7
  6
CONTINUOUS
  0
LAYER
  5
DF0
330
DEE
100
AcDbSymbolTableRecord
100
AcDbLayerTableRecord
  2
none
 70
    0
 62
    7
  6
CONTINUOUS
  0
LAYER
  5
DF1
330
DEE
100
AcDbSymbolTableRecord
100
AcDbLayerTableRecord
  2
Shape2DView
 70
    0
 62
    7
  6
CONTINUOUS
  0
LAYER
  5
DF2
330
DEE
100
AcDbSymbolTableRecord
100
AcDbLayerTableRecord
  2
Shape2DView001
 70
    0
 62
    7
  6
CONTINUOUS
  0
LAYER
  5
DF3
330
DEE
100
AcDbSymbolTableRecord
100
AcDbLayerTableRecord
  2
Shape2DView002
 70
    0
 62
    7
  6
CONTINUOUS
  0
LAYER
  5
DF4
330
DEE
100
AcDbSymbolTableRecord
100
AcDbLayerTableRecord
  2
Shape2DView003
 70
    0
 62
    7
  6
CONTINUOUS
  0
LAYER
  5
DF5
330
DEE
100
AcDbSymbolTableRecord
100
AcDbLayerTableRecord
  2
Shape2DView004
 70
    0
 62
    7
  6
CONTINUOUS
  0
LAYER
  5
DF6
330
DEE
100
AcDbSymbolTableRecord
100
AcDbLayerTableRecord
  2
Shape2DView005
 70
    0
 62
    7
  6
CONTINUOUS
  0
LAYER
  5
DF7
330
DEE
100
AcDbSymbolTableRecord
100
AcDbLayerTableRecord
  2
Shape2DView006
 70
    0
 62
    7
  6
CONTINUOUS
  0
LAYER
  5
DF8
330
DEE
100
AcDbSymbolTableRecord
100
AcDbLayerTableRecord
  2
Shape2DView007
 70
    0
 62
    7
  6
CONTINUOUS
  0
ENDTAB
  0
TABLE
  2
STYLE
  5
70
330
0
100
AcDbSymbolTable
 70
     2
  0
STYLE
  5
71
330
70
100
AcDbSymbolTableRecord
100
AcDbTextStyleTableRecord
  2
STANDARD
 70
     0
 40
0.0
 41
1.0
 50
0.0
 71
     0
 42
2.5
  3
arial.ttf
  4

  0
STYLE
  5
72
330
70
100
AcDbSymbolTableRecord
100
AcDbTextStyleTableRecord
  2
ANNOTATIVE
 70
     0
 40
0.0
 41
1.0
 50
0.0
 71
     0
 42
2.5
  3
arial.ttf
  4

  0
ENDTAB
  0
TABLE
  2
VIEW
  5
73
330
0
100
AcDbSymbolTable
 70
     0
  0
ENDTAB
  0
TABLE
  2
UCS
  5
74
330
0
100
AcDbSymbolTable
 70
     0
  0
ENDTAB
  0
TABLE
  2
APPID
  5
75
330
0
100
AcDbSymbolTable
 70
     2
  0
APPID
  5
76
330
75
100
AcDbSymbolTableRecord
100
AcDbRegAppTableRecord
  2
ACAD
 70
     0
  0
APPID
  5
77
330
75
100
AcDbSymbolTableRecord
100
AcDbRegAppTableRecord
  2
ACADANNOTATIVE
 70
     0
  0
ENDTAB
  0
TABLE
  2
DIMSTYLE
  5
78
330
0
100
AcDbSymbolTable
 70
     2
  0
DIMSTYLE
105
79
330
78
100
AcDbSymbolTableRecord
100
AcDbDimStyleTableRecord
  2
STANDARD
 70
     0
  3

  4

  5

  6

  7

 40
0.0
 41
2.5
 42
0.625
 43
3.75
 44
1.25
 45
0.0
 46
0.0
 47
0.0
 48
0.0
140
2.5
141
2.5
142
0.0
143
0.03937007874016
144
1.0
145
0.0
146
1.0
147
0.625
 71
     0
 72
     0
 73
     0
 74
     0
 75
     0
 76
     0
 77
     1
 78
     8
170
     0
171
     3
172
     1
173
     0
174
     0
175
     0
176
     0
177
     0
178
     0
270
     2
271
     2
272
     2
273
     2
274
     3
340
71
275
     0
280
     0
281
     0
282
     0
283
     0
284
     8
285
     0
286
     0
287
     3
288
     0
  0
ENDTAB
  0
TABLE
  2
BLOCK_RECORD
  5
A01
330
0
100
AcDbSymbolTable
  70
5
  0
BLOCK_RECORD
  5
A02
330
A01
100
AcDbSymbolTableRecord
100
AcDbBlockTableRecord
  2
*MODEL_SPACE
  0
BLOCK_RECORD
  5
A03
330
A01
100
AcDbSymbolTableRecord
100
AcDbBlockTableRecord
  2
*PAPER_SPACE
  0
ENDTAB
  0
ENDSEC
  0
SECTION
  2
BLOCKS
  0
BLOCK
  5
A04
330
A02
100
AcDbEntity
  8
0
100
AcDbBlockBegin
  2
*MODEL_SPACE
 70
   0
 10
0
 20
0
 30
0
  3
*MODEL_SPACE
  1
 
  0
ENDBLK
  5
A05
330
A02
100
AcDbEntity
  8
0
100
AcDbBlockEnd
  0
BLOCK
  5
A06
330
A03
100
AcDbEntity
 67
1
  8
0
100
AcDbBlockBegin
  2
*PAPER_SPACE
 70
   0
 10
0
 20
0
 30
0
  3
*PAPER_SPACE
  1
 
  0
ENDBLK
  5
A07
330
A03
100
AcDbEntity
 67
    1
  8
0
100
AcDbBlockEnd
  0
ENDSEC
  0
SECTION
  2
ENTITIES
  0
LINE
  5
A08
330
A02
100
AcDbEntity
  8
Shape2DView
100
AcDbLine
 10
0
 20
3
 30
0
 11
0
 21
205
 31
0
  0
LINE
  5
A09
330
A02
100
AcDbEntity
  8
Shape2DView
100
AcDbLine
 10
0
 20
3
 30
0
 11
8.9
 21
3
 31
0
  0
LINE
  5
A0A
330
A02
100
AcDbEntity
  8
Shape2DView
100
AcDbLine
 10
0
 20
205
 30
0
 11
8.9
 21
205
 31
0
  0
LINE
  5
A0B
330
A02
100
AcDbEntity
  8
Shape2DView
100
AcDbLine
 10
8.9
 20
3
 30
0
 11
8.9
 21
-7.54952e-15
 31
0
  0
LINE
  5
A0C
330
A02
100
AcDbEntity
  8
Shape2DView
100
AcDbLine
 10
8.9
 20
205
 30
0
 11
8.9
 21
208
 31
0
  0
LINE
  5
A0D
330
A02
100
AcDbEntity
  8
Shape2DView
100
AcDbLine
 10
19.1
 20
-4.88498e-15
 30
0
 11
8.9
 21
-7.14984e-15
 31
0
  0
LINE
  5
A0E
330
A02
100
AcDbEntity
  8
Shape2DView
100
AcDbLine
 10
8.9
 20
208
 30
0
 11
19.1
 21
208
 31
0
  0
LINE
  5
A0F
330
A02
100
AcDbEntity
  8
Shape2DView
100
AcDbLine
 10
19.1
 20
205
 30
0
 11
36.9
 21
205
 31
0
  0
LINE
  5
A10
330
A02
100
AcDbEntity
  8
Shape2DView
100
AcDbLine
 10
19.1
 20
205
 30
0
 11
19.1
 21
208
 31
0
  0
LINE
  5
A11
330
A02
100
AcDbEntity
  8
Shape2DView
100
AcDbLine
 10
36.9
 20
205
 30
0
 11
36.9
 21
208
 31
0
  0
LINE
  5
A12
330
A02
100
AcDbEntity
  8
Shape2DView
100
AcDbLine
 10
36.9
 20
208
 30
0
 11
47.1
 21
208
 31
0
  0
LINE
  5
A13
330
A02
100
AcDbEntity
  8
Shape2DView
100
AcDbLine
 10
47.1
 20
205
 30
0
 11
64.9
 21
205
 31
0
  0
LINE
  5
A14
330
A02
100
AcDbEntity
  8
Shape2DView
100
AcDbLine
 10
47.1
 20
205
 30
0
 11
47.1
 21
208
 31
0
  0
LINE
  5
A15
330
A02
100
AcDbEntity
  8
Shape2DView
100
AcDbLine
 10
64.9
 20
205
 30
0
 11
64.9
 21
208
 31
0
  0
LINE
  5
A16
330
A02
100
AcDbEntity
  8
Shape2DView
100
AcDbLine
 10
64.9
 20
208
 30
0
 11
75.1
 21
208
 31
0
  0
LINE
  5
A17
330
A02
100
AcDbEntity
  8
Shape2DView
100
AcDbLine
 10
75.1
 20
205
 30
0
 11
84
 21
205
 31
0
  0
LINE
  5
A18
330
A02
100
AcDbEntity
  8
Shape2DView
100
AcDbLine
 10
84
 20
3
 30
0
 11
84
 21
205
 31
0
  0
LINE
  5
A19
330
A02
100
AcDbEntity
  8
Shape2DView
100
AcDbLine
 10
75.1
 20
3
 30
0
 11
84
 21
3
 31
0
  0
LINE
  5
A1A
330
A02
100
AcDbEntity
  8
Shape2DView
100
AcDbLine
 10
75.1
 20
205
 30
0
 11
75.1
 21
208
 31
0
  0
LINE
  5
A1B
330
A02
100
AcDbEntity
  8
Shape2DView
100
AcDbLine
 10
19.1
 20
3
 30
0
 11
19.1
 21
-4.88498e-15
 31
0
  0
LINE
  5
A1C
330
A02
100
AcDbEntity
  8
Shape2DView
100
AcDbLine
 10
19.1
 20
3
 30
0
 11
36.9
 21
3
 31
0
  0
LINE
  5
A1D
330
A02
100
AcDbEntity
  8
Shape2DView
100
AcDbLine
 10
36.9
 20
3
 30
0
 11
36.9
 21
-1.33227e-15
 31
0
  0
LINE
  5
A1E
330
A02
100
AcDbEntity
  8
Shape2DView
100
AcDbLine
 10
47.1
 20
1.33227e-15
 30
0
 11
36.9
 21
-9.32587e-16
 31
0
  0
LINE
  5
A1F
330
A02
100
AcDbEntity
  8
Shape2DView
100
AcDbLine
 10
47.1
 20
3
 30
0
 11
47.1
 21
1.33227e-15
 31
0
  0
LINE
  5
A20
330
A02
100
AcDbEntity
  8
Shape2DView
100
AcDbLine
 10
47.1
 20
3
 30
0
 11
64.9
 21
3
 31
0
  0
LINE
  5
A21
330
A02
100
AcDbEntity
  8
Shape2DView
100
AcDbLine
 10
64.9
 20
3
 30
0
 11
64.9
 21
4.88498e-15
 31
0
  0
LINE
  5
A22
330
A02
100
AcDbEntity
  8
Shape2DView
100
AcDbLine
 10
75.1
 20
7.54952e-15
 30
0
 11
64.9
 21
5.28466e-15
 31
0
  0
LINE
  5
A23
330
A02
100
AcDbEntity
  8
Shape2DView
100
AcDbLine
 10
75.1
 20
3
 30
0
 11
75.1
 21
7.54952e-15
 31
0
  0
LINE
  5
A24
330
A02
100
AcDbEntity
  8
Shape2DView001
100
AcDbLine
 10
94
 20
3
 30
0
 11
94
 21
205
 31
0
  0
LINE
  5
A25
330
A02
100
AcDbEntity
  8
Shape2DView001
100
AcDbLine
 10
94
 20
3
 30
0
 11
102.9
 21
3
 31
0
  0
LINE
  5
A26
330
A02
100
AcDbEntity
  8
Shape2DView001
100
AcDbLine
 10
94
 20
205
 30
0
 11
102.9
 21
205
 31
0
  0
LINE
  5
A27
330
A02
100
AcDbEntity
  8
Shape2DView001
100
AcDbLine
 10
102.9
 20
3
 30
0
 11
102.9
 21
-7.54952e-15
 31
0
  0
LINE
  5
A28
330
A02
100
AcDbEntity
  8
Shape2DView001
100
AcDbLine
 10
102.9
 20
205
 30
0
 11
102.9
 21
208
 31
0
  0
LINE
  5
A29
330
A02
100
AcDbEntity
  8
Shape2DView001
100
AcDbLine
 10
113.1
 20
-4.88498e-15
 30
0
 11
102.9
 21
-7.14984e-15
 31
0
  0
LINE
  5
A2A
330
A02
100
AcDbEntity
  8
Shape2DView001
100
AcDbLine
 10
102.9
 20
208
 30
0
 11
113.1
 21
208
 31
0
  0
LINE
  5
A2B
330
A02
100
AcDbEntity
  8
Shape2DView001
100
AcDbLine
 10
113.1
 20
205
 30
0
 11
130.9
 21
205
 31
0
  0
LINE
  5
A2C
330
A02
100
AcDbEntity
  8
Shape2DView001
100
AcDbLine
 10
113.1
 20
205
 30
0
 11
113.1
 21
208
 31
0
  0
LINE
  5
A2D
330
A02
100
AcDbEntity
  8
Shape2DView001
100
AcDbLine
 10
130.9
 20
205
 30
0
 11
130.9
 21
208
 31
0
  0
LINE
  5
A2E
330
A02
100
AcDbEntity
  8
Shape2DView001
100
AcDbLine
 10
130.9
 20
208
 30
0
 11
141.1
 21
208
 31
0
  0
LINE
  5
A2F
330
A02
100
AcDbEntity
  8
Shape2DView001
100
AcDbLine
 10
141.1
 20
205
 30
0
 11
158.9
 21
205
 31
0
  0
LINE
  5
A30
330
A02
100
AcDbEntity
  8
Shape2DView001
100
AcDbLine
 10
141.1
 20
205
 30
0
 11
141.1
 21
208
 31
0
  0
LINE
  5
A31
330
A02
100
AcDbEntity
  8
Shape2DView001
100
AcDbLine
 10
158.9
 20
205
 30
0
 11
158.9
 21
208
 31
0
  0
LINE
  5
A32
330
A02
100
AcDbEntity
  8
Shape2DView001
100
AcDbLine
 10
158.9
 20
208
 30
0
 11
169.1
 21
208
 31
0
  0
LINE
  5
A33
330
A02
100
AcDbEntity
  8
Shape2DView001
100
AcDbLine
 10
169.1
 20
205
 30
0
 11
178
 21
205
 31
0
  0
LINE
  5
A34
330
A02
100
AcDbEntity
  8
Shape2DView001
100
AcDbLine
 10
178
 20
3
 30
0
 11
178
 21
205
 31
0
  0
LINE
  5
A35
330
A02
100
AcDbEntity
  8
Shape2DView001
100
AcDbLine
 10
169.1
 20
3
 30
0
 11
178
 21
3
 31
0
  0
LINE
  5
A36
330
A02
100
AcDbEntity
  8
Shape2DView001
100
AcDbLine
 10
169.1
 20
205
 30
0
 11
169.1
 21
208
 31
0
  0
LINE
  5
A37
330
A02
100
AcDbEntity
  8
Shape2DView001
100
AcDbLine
 10
113.1
 20
3
 30
0
 11
113.1
 21
-4.88498e-15
 31
0
  0
LINE
  5
A38
330
A02
100
AcDbEntity
  8
Shape2DView001
100
AcDbLine
 10
113.1
 20
3
 30
0
 11
130.9
 21
3
 31
0
  0
LINE
  5
A39
330
A02
100
AcDbEntity
  8
Shape2DView001
100
AcDbLine
 10
130.9
 20
3
 30
0
 11
130.9
 21
-1.33227e-15
 31
0
  0
LINE
  5
A3A
330
A02
100
AcDbEntity
  8
Shape2DView001
100
AcDbLine
 10
141.1
 20
1.33227e-15
 30
0
 11
130.9
 21
-9.32587e-16
 31
0
  0
LINE
  5
A3B
330
A02
100
AcDbEntity
  8
Shape2DView001
100
AcDbLine
 10
141.1
 20
3
 30
0
 11
141.1
 21
1.33227e-15
 31
0
  0
LINE
  5
A3C
330
A02
100
AcDbEntity
  8
Shape2DView001
100
AcDbLine
 10
141.1
 20
3
 30
0
 11
158.9
 21
3
 31
0
  0
LINE
  5
A3D
330
A02
100
AcDbEntity
  8
Shape2DView001
100
AcDbLine
 10
158.9
 20
3
 30
0
 11
158.9
 21
4.88498e-15
 31
0
  0
LINE
  5
A3E
330
A02
100
AcDbEntity
  8
Shape2DView001
100
AcDbLine
 10
169.1
 20
7.54952e-15
 30
0
 11
158.9
 21
5.28466e-15
 31
0
  0
LINE
  5
A3F
330
A02
100
AcDbEntity
  8
Shape2DView001
100
AcDbLine
 10
169.1
 20
3
 30
0
 11
169.1
 21
7.54952e-15
 31
0
  0
LINE
  5
A40
330
A02
100
AcDbEntity
  8
Shape2DView002
100
AcDbLine
 10
0
 20
221
 30
0
 11
0
 21
495
 31
0
  0
LINE
  5
A41
330
A02
100
AcDbEntity
  8
Shape2DView002
100
AcDbLine
 10
0
 20
495
 30
0
 11
8.9
 21
495
 31
0
  0
LINE
  5
A42
330
A02
100
AcDbEntity
  8
Shape2DView002
100
AcDbLine
 10
0
 20
221
 30
0
 11
8.9
 21
221
 31
0
  0
LINE
  5
A43
330
A02
100
AcDbEntity
  8
Shape2DView002
100
AcDbLine
 10
8.9
 20
495
 30
0
 11
8.9
 21
498
 31
0
  0
LINE
  5
A44
330
A02
100
AcDbEntity
  8
Shape2DView002
100
AcDbLine
 10
8.9
 20
221
 30
0
 11
8.9
 21
218
 31
0
  0
LINE
  5
A45
330
A02
100
AcDbEntity
  8
Shape2DView002
100
AcDbLine
 10
19.1
 20
218
 30
0
 11
8.9
 21
218
 31
0
  0
LINE
  5
A46
330
A02
100
AcDbEntity
  8
Shape2DView002
100
AcDbLine
 10
19.1
 20
221
 30
0
 11
19.1
 21
218
 31
0
  0
LINE
  5
A47
330
A02
100
AcDbEntity
  8
Shape2DView002
100
AcDbLine
 10
19.1
 20
221
 30
0
 11
36.9
 21
221
 31
0
  0
LINE
  5
A48
330
A02
100
AcDbEntity
  8
Shape2DView002
100
AcDbLine
 10
36.9
 20
221
 30
0
 11
36.9
 21
218
 31
0
  0
LINE
  5
A49
330
A02
100
AcDbEntity
  8
Shape2DView002
100
AcDbLine
 10
19.1
 20
498
 30
0
 11
8.9
 21
498
 31
0
  0
LINE
  5
A4A
330
A02
100
AcDbEntity
  8
Shape2DView002
100
AcDbLine
 10
19.1
 20
495
 30
0
 11
19.1
 21
498
 31
0
  0
LINE
  5
A4B
330
A02
100
AcDbEntity
  8
Shape2DView002
100
AcDbLine
 10
19.1
 20
495
 30
0
 11
36.9
 21
495
 31
0
  0
LINE
  5
A4C
330
A02
100
AcDbEntity
  8
Shape2DView002
100
AcDbLine
 10
47.1
 20
218
 30
0
 11
36.9
 21
218
 31
0
  0
LINE
  5
A4D
330
A02
100
AcDbEntity
  8
Shape2DView002
100
AcDbLine
 10
47.1
 20
221
 30
0
 11
47.1
 21
218
 31
0
  0
LINE
  5
A4E
330
A02
100
AcDbEntity
  8
Shape2DView002
100
AcDbLine
 10
47.1
 20
221
 30
0
 11
64.9
 21
221
 31
0
  0
LINE
  5
A4F
330
A02
100
AcDbEntity
  8
Shape2DView002
100
AcDbLine
 10
36.9
 20
495
 30
0
 11
36.9
 21
498
 31
0
  0
LINE
  5
A50
330
A02
100
AcDbEntity
  8
Shape2DView002
100
AcDbLine
 10
64.9
 20
221
 30
0
 11
64.9
 21
218
 31
0
  0
LINE
  5
A51
330
A02
100
AcDbEntity
  8
Shape2DView002
100
AcDbLine
 10
47.1
 20
498
 30
0
 11
36.9
 21
498
 31
0
  0
LINE
  5
A52
330
A02
100
AcDbEntity
  8
Shape2DView002
100
AcDbLine
 10
47.1
 20
495
 30
0
 11
47.1
 21
498
 31
0
  0
LINE
  5
A53
330
A02
100
AcDbEntity
  8
Shape2DView002
100
AcDbLine
 10
47.1
 20
495
 30
0
 11
64.9
 21
495
 31
0
  0
LINE
  5
A54
330
A02
100
AcDbEntity
  8
Shape2DView002
100
AcDbLine
 10
75.1
 20
218
 30
0
 11
64.9
 21
218
 31
0
  0
LINE
  5
A55
330
A02
100
AcDbEntity
  8
Shape2DView002
100
AcDbLine
 10
75.1
 20
221
 30
0
 11
75.1
 21
218
 31
0
  0
LINE
  5
A56
330
A02
100
AcDbEntity
  8
Shape2DView002
100
AcDbLine
 10
75.1
 20
221
 30
0
 11
84
 21
221
 31
0
  0
LINE
  5
A57
330
A02
100
AcDbEntity
  8
Shape2DView002
100
AcDbLine
 10
84
 20
221
 30
0
 11
84
 21
495
 31
0
  0
LINE
  5
A58
330
A02
100
AcDbEntity
  8
Shape2DView002
100
AcDbLine
 10
75.1
 20
495
 30
0
 11
84
 21
495
 31
0
  0
LINE
  5
A59
330
A02
100
AcDbEntity
  8
Shape2DView002
100
AcDbLine
 10
64.9
 20
495
 30
0
 11
64.9
 21
498
 31
0
  0
LINE
  5
A5A
330
A02
100
AcDbEntity
  8
Shape2DView002
100
AcDbLine
 10
75.1
 20
498
 30
0
 11
64.9
 21
498
 31
0
  0
LINE
  5
A5B
330
A02
100
AcDbEntity
  8
Shape2DView002
100
AcDbLine
 10
75.1
 20
495
 30
0
 11
75.1
 21
498
 31
0
  0
ARC
  5
A5C
330
A02
100
AcDbEntity
  8
Shape2DView002
100
AcDbCircle
 10
74.7967
 20
358.053
 30
0
 40
0.206667
100
AcDbArc
 50
-90
 51
60
  0
ARC
  5
A5D
330
A02
100
AcDbEntity
  8
Shape2DView002
100
AcDbCircle
 10
74.7967
 20
358.053
 30
0
 40
0.206667
100
AcDbArc
 50
-150
 51
-90
  0
LINE
  5
A5E
330
A02
100
AcDbEntity
  8
Shape2DView002
100
AcDbLine
 10
65.3823
 20
357.95
 30
0
 11
74.6177
 21
357.95
 31
0
  0
ARC
  5
A5F
330
A02
100
AcDbEntity
  8
Shape2DView002
100
AcDbCircle
 10
65.2033
 20
358.053
 30
0
 40
0.206667
100
AcDbArc
 50
-90
 51
-30
  0
ARC
  5
A60
330
A02
100
AcDbEntity
  8
Shape2DView002
100
AcDbCircle
 10
65.2033
 20
358.053
 30
0
 40
0.206667
100
AcDbArc
 50
120
 51
-90
  0
LINE
  5
A61
330
A02
100
AcDbEntity
  8
Shape2DView002
100
AcDbLine
 10
65.1
 20
360.768
 30
0
 11
65.1
 21
358.232
 31
0
  0
ARC
  5
A62
330
A02
100
AcDbEntity
  8
Shape2DView002
100
AcDbCircle
 10
65.2033
 20
360.947
 30
0
 40
0.206667
100
AcDbArc
 50
30
 51
-120
  0
LINE
  5
A63
330
A02
100
AcDbEntity
  8
Shape2DView002
100
AcDbLine
 10
65.3823
 20
361.05
 30
0
 11
74.6177
 21
361.05
 31
0
  0
ARC
  5
A64
330
A02
100
AcDbEntity
  8
Shape2DView002
100
AcDbCircle
 10
74.7967
 20
360.947
 30
0
 40
0.206667
100
AcDbArc
 50
-60
 51
150
  0
LINE
  5
A65
330
A02
100
AcDbEntity
  8
Shape2DView002
100
AcDbLine
 10
74.9
 20
360.768
 30
0
 11
74.9
 21
358.232
 31
0
  0
ARC
  5
A66
330
A02
100
AcDbEntity
  8
Shape2DView002
100
AcDbCircle
 10
74.7967
 20
428.053
 30
0
 40
0.206667
100
AcDbArc
 50
-90
 51
60
  0
ARC
  5
A67
330
A02
100
AcDbEntity
  8
Shape2DView002
100
AcDbCircle
 10
74.7967
 20
428.053
 30
0
 40
0.206667
100
AcDbArc
 50
-150
 51
-90
  0
LINE
  5
A68
330
A02
100
AcDbEntity
  8
Shape2DView002
100
AcDbLine
 10
65.3823
 20
427.95
 30
0
 11
74.6177
 21
427.95
 31
0
  0
ARC
  5
A69
330
A02
100
AcDbEntity
  8
Shape2DView002
100
AcDbCircle
 10
65.2033
 20
428.053
 30
0
 40
0.206667
100
AcDbArc
 50
-90
 51
-30
  0
ARC
  5
A6A
330
A02
100
AcDbEntity
  8
Shape2DView002
100
AcDbCircle
 10
65.2033
 20
428.053
 30
0
 40
0.206667
100
AcDbArc
 50
120
 51
-90
  0
LINE
  5
A6B
330
A02
100
AcDbEntity
  8
Shape2DView002
100
AcDbLine
 10
65.1
 20
430.768
 30
0
 11
65.1
 21
428.232
 31
0
  0
ARC
  5
A6C
330
A02
100
AcDbEntity
  8
Shape2DView002
100
AcDbCircle
 10
65.2033
 20
430.947
 30
0
 40
0.206667
100
AcDbArc
 50
30
 51
-120
  0
LINE
  5
A6D
330
A02
100
AcDbEntity
  8
Shape2DView002
100
AcDbLine
 10
65.3823
 20
431.05
 30
0
 11
74.6177
 21
431.05
 31
0
  0
ARC
  5
A6E
330
A02
100
AcDbEntity
  8
Shape2DView002
100
AcDbCircle
 10
74.7967
 20
430.947
 30
0
 40
0.206667
100
AcDbArc
 50
-60
 51
150
  0
LINE
  5
A6F
330
A02
100
AcDbEntity
  8
Shape2DView002
100
AcDbLine
 10
74.9
 20
430.768
 30
0
 11
74.9
 21
428.232
 31
0
  0
ARC
  5
A70
330
A02
100
AcDbEntity
  8
Shape2DView002
100
AcDbCircle
 10
18.7967
 20
358.053
 30
0
 40
0.206667
100
AcDbArc
 50
-90
 51
60
  0
ARC
  5
A71
330
A02
100
AcDbEntity
  8
Shape2DView002
100
AcDbCircle
 10
18.7967
 20
358.053
 30
0
 40
0.206667
100
AcDbArc
 50
-150
 51
-90
  0
LINE
  5
A72
330
A02
100
AcDbEntity
  8
Shape2DView002
100
AcDbLine
 10
9.38231
 20
357.95
 30
0
 11
18.6177
 21
357.95
 31
0
  0
ARC
  5
A73
330
A02
100
AcDbEntity
  8
Shape2DView002
100
AcDbCircle
 10
9.20333
 20
358.053
 30
0
 40
0.206667
100
AcDbArc
 50
-90
 51
-30
  0
ARC
  5
A74
330
A02
100
AcDbEntity
  8
Shape2DView002
100
AcDbCircle
 10
9.20333
 20
358.053
 30
0
 40
0.206667
100
AcDbArc
 50
120
 51
-90
  0
LINE
  5
A75
330
A02
100
AcDbEntity
  8
Shape2DView002
100
AcDbLine
 10
9.1
 20
360.768
 30
0
 11
9.1
 21
358.232
 31
0
  0
ARC
  5
A76
330
A02
100
AcDbEntity
  8
Shape2DView002
100
AcDbCircle
 10
9.20333
 20
360.947
 30
0
 40
0.206667
100
AcDbArc
 50
30
 51
-120
  0
LINE
  5
A77
330
A02
100
AcDbEntity
  8
Shape2DView002
100
AcDbLine
 10
9.38231
 20
361.05
 30
0
 11
18.6177
 21
361.05
 31
0
  0
ARC
  5
A78
330
A02
100
AcDbEntity
  8
Shape2DView002
100
AcDbCircle
 10
18.7967
 20
360.947
 30
0
 40
0.206667
100
AcDbArc
 50
-60
 51
150
  0
LINE
  5
A79
330
A02
100
AcDbEntity
  8
Shape2DView002
100
AcDbLine
 10
18.9
 20
360.768
 30
0
 11
18.9
 21
358.232
 31
0
  0
ARC
  5
A7A
330
A02
100
AcDbEntity
  8
Shape2DView002
100
AcDbCircle
 10
18.7967
 20
428.053
 30
0
 40
0.206667
100
AcDbArc
 50
-90
 51
60
  0
ARC
  5
A7B
330
A02
100
AcDbEntity
  8
Shape2DView002
100
AcDbCircle
 10
18.7967
 20
428.053
 30
0
 40
0.206667
100
AcDbArc
 50
-150
 51
-90
  0
LINE
  5
A7C
330
A02
100
AcDbEntity
  8
Shape2DView002
100
AcDbLine
 10
9.38231
 20
427.95
 30
0
 11
18.6177
 21
427.95
 31
0
  0
ARC
  5
A7D
330
A02
100
AcDbEntity
  8
Shape2DView002
100
AcDbCircle
 10
9.20333
 20
428.053
 30
0
 40
0.206667
100
AcDbArc
 50
-90
 51
-30
  0
ARC
  5
A7E
330
A02
100
AcDbEntity
  8
Shape2DView002
100
AcDbCircle
 10
9.20333
 20
428.053
 30
0
 40
0.206667
100
AcDbArc
 50
120
 51
-90
  0
LINE
  5
A7F
330
A02
100
AcDbEntity
  8
Shape2DView002
100
AcDbLine
 10
9.1
 20
430.768
 30
0
 11
9.1
 21
428.232
 31
0
  0
ARC
  5
A80
330
A02
100
AcDbEntity
  8
Shape2DView002
100
AcDbCircle
 10
9.20333
 20
430.947
 30
0
 40
0.206667
100
AcDbArc
 50
30
 51
-120
  0
LINE
  5
A81
330
A02
100
AcDbEntity
  8
Shape2DView002
100
AcDbLine
 10
9.38231
 20
431.05
 30
0
 11
18.6177
 21
431.05
 31
0
  0
ARC
  5
A82
330
A02
100
AcDbEntity
  8
Shape2DView002
100
AcDbCircle
 10
18.7967
 20
430.947
 30
0
 40
0.206667
100
AcDbArc
 50
-60
 51
150
  0
LINE
  5
A83
330
A02
100
AcDbEntity
  8
Shape2DView002
100
AcDbLine
 10
18.9
 20
430.768
 30
0
 11
18.9
 21
428.232
 31
0
  0
ARC
  5
A84
330
A02
100
AcDbEntity
  8
Shape2DView002
100
AcDbCircle
 10
46.7967
 20
428.053
 30
0
 40
0.206667
100
AcDbArc
 50
-90
 51
60
  0
ARC
  5
A85
330
A02
100
AcDbEntity
  8
Shape2DView002
100
AcDbCircle
 10
46.7967
 20
428.053
 30
0
 40
0.206667
100
AcDbArc
 50
-150
 51
-90
  0
LINE
  5
A86
330
A02
100
AcDbEntity
  8
Shape2DView002
100
AcDbLine
 10
37.3823
 20
427.95
 30
0
 11
46.6177
 21
427.95
 31
0
  0
ARC
  5
A87
330
A02
100
AcDbEntity
  8
Shape2DView002
100
AcDbCircle
 10
37.2033
 20
428.053
 30
0
 40
0.206667
100
AcDbArc
 50
-90
 51
-30
  0
ARC
  5
A88
330
A02
100
AcDbEntity
  8
Shape2DView002
100
AcDbCircle
 10
37.2033
 20
428.053
 30
0
 40
0.206667
100
AcDbArc
 50
120
 51
-90
  0
LINE
  5
A89
330
A02
100
AcDbEntity
  8
Shape2DView002
100
AcDbLine
 10
37.1
 20
430.768
 30
0
 11
37.1
 21
428.232
 31
0
  0
ARC
  5
A8A
330
A02
100
AcDbEntity
  8
Shape2DView002
100
AcDbCircle
 10
37.2033
 20
430.947
 30
0
 40
0.206667
100
AcDbArc
 50
30
 51
-120
  0
LINE
  5
A8B
330
A02
100
AcDbEntity
  8
Shape2DView002
100
AcDbLine
 10
37.3823
 20
431.05
 30
0
 11
46.6177
 21
431.05
 31
0
  0
ARC
  5
A8C
330
A02
100
AcDbEntity
  8
Shape2DView002
100
AcDbCircle
 10
46.7967
 20
430.947
 30
0
 40
0.206667
100
AcDbArc
 50
-60
 51
150
  0
LINE
  5
A8D
330
A02
100
AcDbEntity
  8
Shape2DView002
100
AcDbLine
 10
46.9
 20
430.768
 30
0
 11
46.9
 21
428.232
 31
0
  0
ARC
  5
A8E
330
A02
100
AcDbEntity
  8
Shape2DView002
100
AcDbCircle
 10
46.7967
 20
358.053
 30
0
 40
0.206667
100
AcDbArc
 50
-90
 51
60
  0
ARC
  5
A8F
330
A02
100
AcDbEntity
  8
Shape2DView002
100
AcDbCircle
 10
46.7967
 20
358.053
 30
0
 40
0.206667
100
AcDbArc
 50
-150
 51
-90
  0
LINE
  5
A90
330
A02
100
AcDbEntity
  8
Shape2DView002
100
AcDbLine
 10
37.3823
 20
357.95
 30
0
 11
46.6177
 21
357.95
 31
0
  0
ARC
  5
A91
330
A02
100
AcDbEntity
  8
Shape2DView002
100
AcDbCircle
 10
37.2033
 20
358.053
 30
0
 40
0.206667
100
AcDbArc
 50
-90
 51
-30
  0
ARC
  5
A92
330
A02
100
AcDbEntity
  8
Shape2DView002
100
AcDbCircle
 10
37.2033
 20
358.053
 30
0
 40
0.206667
100
AcDbArc
 50
120
 51
-90
  0
LINE
  5
A93
330
A02
100
AcDbEntity
  8
Shape2DView002
100
AcDbLine
 10
37.1
 20
360.768
 30
0
 11
37.1
 21
358.232
 31
0
  0
ARC
  5
A94
330
A02
100
AcDbEntity
  8
Shape2DView002
100
AcDbCircle
 10
37.2033
 20
360.947
 30
0
 40
0.206667
100
AcDbArc
 50
30
 51
-120
  0
LINE
  5
A95
330
A02
100
AcDbEntity
  8
Shape2DView002
100
AcDbLine
 10
37.3823
 20
361.05
 30
0
 11
46.6177
 21
361.05
 31
0
  0
ARC
  5
A96
330
A02
100
AcDbEntity
  8
Shape2DView002
100
AcDbCircle
 10
46.7967
 20
360.947
 30
0
 40
0.206667
100
AcDbArc
 50
-60
 51
150
  0
LINE
  5
A97
330
A02
100
AcDbEntity
  8
Shape2DView002
100
AcDbLine
 10
46.9
 20
360.768
 30
0
 11
46.9
 21
358.232
 31
0
  0
LINE
  5
A98
330
A02
100
AcDbEntity
  8
Shape2DView003
100
AcDbLine
 10
184
 20
218
 30
0
 11
184
 21
228.767
 31
0
  0
LINE
  5
A99
330
A02
100
AcDbEntity
  8
Shape2DView003
100
AcDbLine
 10
173.9
 20
218
 30
0
 11
184
 21
218
 31
0
  0
LINE
  5
A9A
330
A02
100
AcDbEntity
  8
Shape2DView003
100
AcDbLine
 10
173.9
 20
218
 30
0
 11
173.9
 21
220.759
 31
0
  0
ARC
  5
A9B
330
A02
100
AcDbEntity
  8
Shape2DView003
100
AcDbCircle
 10
173.793
 20
220.943
 30
0
 40
0.213333
100
AcDbArc
 50
-60
 51
90
  0
ARC
  5
A9C
330
A02
100
AcDbEntity
  8
Shape2DView003
100
AcDbCircle
 10
173.793
 20
220.943
 30
0
 40
0.213333
100
AcDbArc
 50
90
 51
150
  0
LINE
  5
A9D
330
A02
100
AcDbEntity
  8
Shape2DView003
100
AcDbLine
 10
173.609
 20
221.05
 30
0
 11
164.391
 21
221.05
 31
0
  0
ARC
  5
A9E
330
A02
100
AcDbEntity
  8
Shape2DView003
100
AcDbCircle
 10
164.207
 20
220.943
 30
0
 40
0.213333
100
AcDbArc
 50
30
 51
90
  0
ARC
  5
A9F
330
A02
100
AcDbEntity
  8
Shape2DView003
100
AcDbCircle
 10
164.207
 20
220.943
 30
0
 40
0.213333
100
AcDbArc
 50
90
 51
-120
  0
LINE
  5
AA0
330
A02
100
AcDbEntity
  8
Shape2DView003
100
AcDbLine
 10
164.1
 20
218
 30
0
 11
164.1
 21
220.759
 31
0
  0
LINE
  5
AA1
330
A02
100
AcDbEntity
  8
Shape2DView003
100
AcDbLine
 10
143.9
 20
218
 30
0
 11
164.1
 21
218
 31
0
  0
LINE
  5
AA2
330
A02
100
AcDbEntity
  8
Shape2DView003
100
AcDbLine
 10
143.9
 20
218
 30
0
 11
143.9
 21
220.759
 31
0
  0
ARC
  5
AA3
330
A02
100
AcDbEntity
  8
Shape2DView003
100
AcDbCircle
 10
143.793
 20
220.943
 30
0
 40
0.213333
100
AcDbArc
 50
-60
 51
90
  0
ARC
  5
AA4
330
A02
100
AcDbEntity
  8
Shape2DView003
100
AcDbCircle
 10
143.793
 20
220.943
 30
0
 40
0.213333
100
AcDbArc
 50
90
 51
150
  0
LINE
  5
AA5
330
A02
100
AcDbEntity
  8
Shape2DView003
100
AcDbLine
 10
143.609
 20
221.05
 30
0
 11
134.391
 21
221.05
 31
0
  0
ARC
  5
AA6
330
A02
100
AcDbEntity
  8
Shape2DView003
100
AcDbCircle
 10
134.207
 20
220.943
 30
0
 40
0.213333
100
AcDbArc
 50
30
 51
90
  0
ARC
  5
AA7
330
A02
100
AcDbEntity
  8
Shape2DView003
100
AcDbCircle
 10
134.207
 20
220.943
 30
0
 40
0.213333
100
AcDbArc
 50
90
 51
-120
  0
LINE
  5
AA8
330
A02
100
AcDbEntity
  8
Shape2DView003
100
AcDbLine
 10
134.1
 20
218
 30
0
 11
134.1
 21
220.759
 31
0
  0
LINE
  5
AA9
330
A02
100
AcDbEntity
  8
Shape2DView003
100
AcDbLine
 10
113.9
 20
218
 30
0
 11
134.1
 21
218
 31
0
  0
LINE
  5
AAA
330
A02
100
AcDbEntity
  8
Shape2DView003
100
AcDbLine
 10
113.9
 20
218
 30
0
 11
113.9
 21
220.759
 31
0
  0
ARC
  5
AAB
330
A02
100
AcDbEntity
  8
Shape2DView003
100
AcDbCircle
 10
113.793
 20
220.943
 30
0
 40
0.213333
100
AcDbArc
 50
-60
 51
90
  0
ARC
  5
AAC
330
A02
100
AcDbEntity
  8
Shape2DView003
100
AcDbCircle
 10
113.793
 20
220.943
 30
0
 40
0.213333
100
AcDbArc
 50
90
 51
150
  0
LINE
  5
AAD
330
A02
100
AcDbEntity
  8
Shape2DView003
100
AcDbLine
 10
113.609
 20
221.05
 30
0
 11
104.391
 21
221.05
 31
0
  0
ARC
  5
AAE
330
A02
100
AcDbEntity
  8
Shape2DView003
100
AcDbCircle
 10
104.207
 20
220.943
 30
0
 40
0.213333
100
AcDbArc
 50
30
 51
90
  0
ARC
  5
AAF
330
A02
100
AcDbEntity
  8
Shape2DView003
100
AcDbCircle
 10
104.207
 20
220.943
 30
0
 40
0.213333
100
AcDbArc
 50
90
 51
-120
  0
LINE
  5
AB0
330
A02
100
AcDbEntity
  8
Shape2DView003
100
AcDbLine
 10
104.1
 20
218
 30
0
 11
104.1
 21
220.759
 31
0
  0
LINE
  5
AB1
330
A02
100
AcDbEntity
  8
Shape2DView003
100
AcDbLine
 10
94
 20
218
 30
0
 11
104.1
 21
218
 31
0
  0
LINE
  5
AB2
330
A02
100
AcDbEntity
  8
Shape2DView003
100
AcDbLine
 10
94
 20
528
 30
0
 11
94
 21
218
 31
0
  0
LINE
  5
AB3
330
A02
100
AcDbEntity
  8
Shape2DView003
100
AcDbLine
 10
104.1
 20
528
 30
0
 11
94
 21
528
 31
0
  0
LINE
  5
AB4
330
A02
100
AcDbEntity
  8
Shape2DView003
100
AcDbLine
 10
104.1
 20
528
 30
0
 11
104.1
 21
525.241
 31
0
  0
ARC
  5
AB5
330
A02
100
AcDbEntity
  8
Shape2DView003
100
AcDbCircle
 10
104.207
 20
525.057
 30
0
 40
0.213333
100
AcDbArc
 50
120
 51
-90
  0
ARC
  5
AB6
330
A02
100
AcDbEntity
  8
Shape2DView003
100
AcDbCircle
 10
104.207
 20
525.057
 30
0
 40
0.213333
100
AcDbArc
 50
-90
 51
-30
  0
LINE
  5
AB7
330
A02
100
AcDbEntity
  8
Shape2DView003
100
AcDbLine
 10
104.391
 20
524.95
 30
0
 11
113.609
 21
524.95
 31
0
  0
ARC
  5
AB8
330
A02
100
AcDbEntity
  8
Shape2DView003
100
AcDbCircle
 10
113.793
 20
525.057
 30
0
 40
0.213333
100
AcDbArc
 50
-150
 51
-90
  0
ARC
  5
AB9
330
A02
100
AcDbEntity
  8
Shape2DView003
100
AcDbCircle
 10
113.793
 20
525.057
 30
0
 40
0.213333
100
AcDbArc
 50
-90
 51
60
  0
LINE
  5
ABA
330
A02
100
AcDbEntity
  8
Shape2DView003
100
AcDbLine
 10
113.9
 20
528
 30
0
 11
113.9
 21
525.241
 31
0
  0
LINE
  5
ABB
330
A02
100
AcDbEntity
  8
Shape2DView003
100
AcDbLine
 10
134.1
 20
528
 30
0
 11
113.9
 21
528
 31
0
  0
LINE
  5
ABC
330
A02
100
AcDbEntity
  8
Shape2DView003
100
AcDbLine
 10
134.1
 20
528
 30
0
 11
134.1
 21
525.241
 31
0
  0
ARC
  5
ABD
330
A02
100
AcDbEntity
  8
Shape2DView003
100
AcDbCircle
 10
134.207
 20
525.057
 30
0
 40
0.213333
100
AcDbArc
 50
120
 51
-90
  0
ARC
  5
ABE
330
A02
100
AcDbEntity
  8
Shape2DView003
100
AcDbCircle
 10
134.207
 20
525.057
 30
0
 40
0.213333
100
AcDbArc
 50
-90
 51
-30
  0
LINE
  5
ABF
330
A02
100
AcDbEntity
  8
Shape2DView003
100
AcDbLine
 10
134.391
 20
524.95
 30
0
 11
143.609
 21
524.95
 31
0
  0
ARC
  5
AC0
330
A02
100
AcDbEntity
  8
Shape2DView003
100
AcDbCircle
 10
143.793
 20
525.057
 30
0
 40
0.213333
100
AcDbArc
 50
-150
 51
-90
  0
ARC
  5
AC1
330
A02
100
AcDbEntity
  8
Shape2DView003
100
AcDbCircle
 10
143.793
 20
525.057
 30
0
 40
0.213333
100
AcDbArc
 50
-90
 51
60
  0
LINE
  5
AC2
330
A02
100
AcDbEntity
  8
Shape2DView003
100
AcDbLine
 10
143.9
 20
528
 30
0
 11
143.9
 21
525.241
 31
0
  0
LINE
  5
AC3
330
A02
100
AcDbEntity
  8
Shape2DView003
100
AcDbLine
 10
164.1
 20
528
 30
0
 11
143.9
 21
528
 31
0
  0
LINE
  5
AC4
330
A02
100
AcDbEntity
  8
Shape2DView003
100
AcDbLine
 10
164.1
 20
528
 30
0
 11
164.1
 21
525.241
 31
0
  0
ARC
  5
AC5
330
A02
100
AcDbEntity
  8
Shape2DView003
100
AcDbCircle
 10
164.207
 20
525.057
 30
0
 40
0.213333
100
AcDbArc
 50
120
 51
-90
  0
ARC
  5
AC6
330
A02
100
AcDbEntity
  8
Shape2DView003
100
AcDbCircle
 10
164.207
 20
525.057
 30
0
 40
0.213333
100
AcDbArc
 50
-90
 51
-30
  0
LINE
  5
AC7
330
A02
100
AcDbEntity
  8
Shape2DView003
100
AcDbLine
 10
164.391
 20
524.95
 30
0
 11
173.609
 21
524.95
 31
0
  0
ARC
  5
AC8
330
A02
100
AcDbEntity
  8
Shape2DView003
100
AcDbCircle
 10
173.793
 20
525.057
 30
0
 40
0.213333
100
AcDbArc
 50
-150
 51
-90
  0
ARC
  5
AC9
330
A02
100
AcDbEntity
  8
Shape2DView003
100
AcDbCircle
 10
173.793
 20
525.057
 30
0
 40
0.213333
100
AcDbArc
 50
-90
 51
60
  0
LINE
  5
ACA
330
A02
100
AcDbEntity
  8
Shape2DView003
100
AcDbLine
 10
173.9
 20
528
 30
0
 11
173.9
 21
525.241
 31
0
  0
LINE
  5
ACB
330
A02
100
AcDbEntity
  8
Shape2DView003
100
AcDbLine
 10
184
 20
528
 30
0
 11
173.9
 21
528
 31
0
  0
LINE
  5
ACC
330
A02
100
AcDbEntity
  8
Shape2DView003
100
AcDbLine
 10
184
 20
517.233
 30
0
 11
184
 21
528
 31
0
  0
LINE
  5
ACD
330
A02
100
AcDbEntity
  8
Shape2DView003
100
AcDbLine
 10
184
 20
517.233
 30
0
 11
181.241
 21
517.233
 31
0
  0
ARC
  5
ACE
330
A02
100
AcDbEntity
  8
Shape2DView003
100
AcDbCircle
 10
181.057
 20
517.127
 30
0
 40
0.213333
100
AcDbArc
 50
30
 51
180
  0
ARC
  5
ACF
330
A02
100
AcDbEntity
  8
Shape2DView003
100
AcDbCircle
 10
181.057
 20
517.127
 30
0
 40
0.213333
100
AcDbArc
 50
180
 51
-120
  0
LINE
  5
AD0
330
A02
100
AcDbEntity
  8
Shape2DView003
100
AcDbLine
 10
180.95
 20
516.942
 30
0
 11
180.95
 21
507.725
 31
0
  0
ARC
  5
AD1
330
A02
100
AcDbEntity
  8
Shape2DView003
100
AcDbCircle
 10
181.057
 20
507.54
 30
0
 40
0.213333
100
AcDbArc
 50
120
 51
180
  0
ARC
  5
AD2
330
A02
100
AcDbEntity
  8
Shape2DView003
100
AcDbCircle
 10
181.057
 20
507.54
 30
0
 40
0.213333
100
AcDbArc
 50
180
 51
-30
  0
LINE
  5
AD3
330
A02
100
AcDbEntity
  8
Shape2DView003
100
AcDbLine
 10
184
 20
507.433
 30
0
 11
181.241
 21
507.433
 31
0
  0
LINE
  5
AD4
330
A02
100
AcDbEntity
  8
Shape2DView003
100
AcDbLine
 10
184
 20
491.9
 30
0
 11
184
 21
507.433
 31
0
  0
LINE
  5
AD5
330
A02
100
AcDbEntity
  8
Shape2DView003
100
AcDbLine
 10
184
 20
491.9
 30
0
 11
181.241
 21
491.9
 31
0
  0
ARC
  5
AD6
330
A02
100
AcDbEntity
  8
Shape2DView003
100
AcDbCircle
 10
181.057
 20
491.793
 30
0
 40
0.213333
100
AcDbArc
 50
30
 51
180
  0
ARC
  5
AD7
330
A02
100
AcDbEntity
  8
Shape2DView003
100
AcDbCircle
 10
181.057
 20
491.793
 30
0
 40
0.213333
100
AcDbArc
 50
180
 51
-120
  0
LINE
  5
AD8
330
A02
100
AcDbEntity
  8
Shape2DView003
100
AcDbLine
 10
180.95
 20
491.609
 30
0
 11
180.95
 21
482.391
 31
0
  0
ARC
  5
AD9
330
A02
100
AcDbEntity
  8
Shape2DView003
100
AcDbCircle
 10
181.057
 20
482.207
 30
0
 40
0.213333
100
AcDbArc
 50
120
 51
180
  0
ARC
  5
ADA
330
A02
100
AcDbEntity
  8
Shape2DView003
100
AcDbCircle
 10
181.057
 20
482.207
 30
0
 40
0.213333
100
AcDbArc
 50
180
 51
-30
  0
LINE
  5
ADB
330
A02
100
AcDbEntity
  8
Shape2DView003
100
AcDbLine
 10
184
 20
482.1
 30
0
 11
181.241
 21
482.1
 31
0
  0
LINE
  5
ADC
330
A02
100
AcDbEntity
  8
Shape2DView003
100
AcDbLine
 10
184
 20
466.567
 30
0
 11
184
 21
482.1
 31
0
  0
LINE
  5
ADD
330
A02
100
AcDbEntity
  8
Shape2DView003
100
AcDbLine
 10
184
 20
466.567
 30
0
 11
181.241
 21
466.567
 31
0
  0
ARC
  5
ADE
330
A02
100
AcDbEntity
  8
Shape2DView003
100
AcDbCircle
 10
181.057
 20
466.46
 30
0
 40
0.213333
100
AcDbArc
 50
30
 51
180
  0
ARC
  5
ADF
330
A02
100
AcDbEntity
  8
Shape2DView003
100
AcDbCircle
 10
181.057
 20
466.46
 30
0
 40
0.213333
100
AcDbArc
 50
180
 51
-120
  0
LINE
  5
AE0
330
A02
100
AcDbEntity
  8
Shape2DView003
100
AcDbLine
 10
180.95
 20
466.275
 30
0
 11
180.95
 21
457.058
 31
0
  0
ARC
  5
AE1
330
A02
100
AcDbEntity
  8
Shape2DView003
100
AcDbCircle
 10
181.057
 20
456.873
 30
0
 40
0.213333
100
AcDbArc
 50
120
 51
180
  0
ARC
  5
AE2
330
A02
100
AcDbEntity
  8
Shape2DView003
100
AcDbCircle
 10
181.057
 20
456.873
 30
0
 40
0.213333
100
AcDbArc
 50
180
 51
-30
  0
LINE
  5
AE3
330
A02
100
AcDbEntity
  8
Shape2DView003
100
AcDbLine
 10
184
 20
456.767
 30
0
 11
181.241
 21
456.767
 31
0
  0
LINE
  5
AE4
330
A02
100
AcDbEntity
  8
Shape2DView003
100
AcDbLine
 10
184
 20
441.233
 30
0
 11
184
 21
456.767
 31
0
  0
LINE
  5
AE5
330
A02
100
AcDbEntity
  8
Shape2DView003
100
AcDbLine
 10
184
 20
441.233
 30
0
 11
181.241
 21
441.233
 31
0
  0
ARC
  5
AE6
330
A02
100
AcDbEntity
  8
Shape2DView003
100
AcDbCircle
 10
181.057
 20
441.127
 30
0
 40
0.213333
100
AcDbArc
 50
30
 51
180
  0
ARC
  5
AE7
330
A02
100
AcDbEntity
  8
Shape2DView003
100
AcDbCircle
 10
181.057
 20
441.127
 30
0
 40
0.213333
100
AcDbArc
 50
180
 51
-120
  0
LINE
  5
AE8
330
A02
100
AcDbEntity
  8
Shape2DView003
100
AcDbLine
 10
180.95
 20
440.942
 30
0
 11
180.95
 21
431.725
 31
0
  0
ARC
  5
AE9
330
A02
100
AcDbEntity
  8
Shape2DView003
100
AcDbCircle
 10
181.057
 20
431.54
 30
0
 40
0.213333
100
AcDbArc
 50
120
 51
180
  0
ARC
  5
AEA
330
A02
100
AcDbEntity
  8
Shape2DView003
100
AcDbCircle
 10
181.057
 20
431.54
 30
0
 40
0.213333
100
AcDbArc
 50
180
 51
-30
  0
LINE
  5
AEB
330
A02
100
AcDbEntity
  8
Shape2DView003
100
AcDbLine
 10
184
 20
431.433
 30
0
 11
181.241
 21
431.433
 31
0
  0
LINE
  5
AEC
330
A02
100
AcDbEntity
  8
Shape2DView003
100
AcDbLine
 10
184
 20
415.9
 30
0
 11
184
 21
431.433
 31
0
  0
LINE
  5
AED
330
A02
100
AcDbEntity
  8
Shape2DView003
100
AcDbLine
 10
184
 20
415.9
 30
0
 11
181.241
 21
415.9
 31
0
  0
ARC
  5
AEE
330
A02
100
AcDbEntity
  8
Shape2DView003
100
AcDbCircle
 10
181.057
 20
415.793
 30
0
 40
0.213333
100
AcDbArc
 50
30
 51
180
  0
ARC
  5
AEF
330
A02
100
AcDbEntity
  8
Shape2DView003
100
AcDbCircle
 10
181.057
 20
415.793
 30
0
 40
0.213333
100
AcDbArc
 50
180
 51
-120
  0
LINE
  5
AF0
330
A02
100
AcDbEntity
  8
Shape2DView003
100
AcDbLine
 10
180.95
 20
415.609
 30
0
 11
180.95
 21
406.391
 31
0
  0
ARC
  5
AF1
330
A02
100
AcDbEntity
  8
Shape2DView003
100
AcDbCircle
 10
181.057
 20
406.207
 30
0
 40
0.213333
100
AcDbArc
 50
120
 51
180
  0
ARC
  5
AF2
330
A02
100
AcDbEntity
  8
Shape2DView003
100
AcDbCircle
 10
181.057
 20
406.207
 30
0
 40
0.213333
100
AcDbArc
 50
180
 51
-30
  0
LINE
  5
AF3
330
A02
100
AcDbEntity
  8
Shape2DView003
100
AcDbLine
 10
184
 20
406.1
 30
0
 11
181.241
 21
406.1
 31
0
  0
LINE
  5
AF4
330
A02
100
AcDbEntity
  8
Shape2DView003
100
AcDbLine
 10
184
 20
390.567
 30
0
 11
184
 21
406.1
 31
0
  0
LINE
  5
AF5
330
A02
100
AcDbEntity
  8
Shape2DView003
100
AcDbLine
 10
184
 20
390.567
 30
0
 11
181.241
 21
390.567
 31
0
  0
ARC
  5
AF6
330
A02
100
AcDbEntity
  8
Shape2DView003
100
AcDbCircle
 10
181.057
 20
390.46
 30
0
 40
0.213333
100
AcDbArc
 50
30
 51
180
  0
ARC
  5
AF7
330
A02
100
AcDbEntity
  8
Shape2DView003
100
AcDbCircle
 10
181.057
 20
390.46
 30
0
 40
0.213333
100
AcDbArc
 50
180
 51
-120
  0
LINE
  5
AF8
330
A02
100
AcDbEntity
  8
Shape2DView003
100
AcDbLine
 10
180.95
 20
390.275
 30
0
 11
180.95
 21
381.058
 31
0
  0
ARC
  5
AF9
330
A02
100
AcDbEntity
  8
Shape2DView003
100
AcDbCircle
 10
181.057
 20
380.873
 30
0
 40
0.213333
100
AcDbArc
 50
120
 51
180
  0
ARC
  5
AFA
330
A02
100
AcDbEntity
  8
Shape2DView003
100
AcDbCircle
 10
181.057
 20
380.873
 30
0
 40
0.213333
100
AcDbArc
 50
180
 51
-30
  0
LINE
  5
AFB
330
A02
100
AcDbEntity
  8
Shape2DView003
100
AcDbLine
 10
184
 20
380.767
 30
0
 11
181.241
 21
380.767
 31
0
  0
LINE
  5
AFC
330
A02
100
AcDbEntity
  8
Shape2DView003
100
AcDbLine
 10
184
 20
365.233
 30
0
 11
184
 21
380.767
 31
0
  0
LINE
  5
AFD
330
A02
100
AcDbEntity
  8
Shape2DView003
100
AcDbLine
 10
184
 20
365.233
 30
0
 11
181.241
 21
365.233
 31
0
  0
ARC
  5
AFE
330
A02
100
AcDbEntity
  8
Shape2DView003
100
AcDbCircle
 10
181.057
 20
365.127
 30
0
 40
0.213333
100
AcDbArc
 50
30
 51
180
  0
ARC
  5
AFF
330
A02
100
AcDbEntity
  8
Shape2DView003
100
AcDbCircle
 10
181.057
 20
365.127
 30
0
 40
0.213333
100
AcDbArc
 50
180
 51
-120
  0
LINE
  5
B00
330
A02
100
AcDbEntity
  8
Shape2DView003
100
AcDbLine
 10
180.95
 20
364.942
 30
0
 11
180.95
 21
355.725
 31
0
  0
ARC
  5
B01
330
A02
100
AcDbEntity
  8
Shape2DView003
100
AcDbCircle
 10
181.057
 20
355.54
 30
0
 40
0.213333
100
AcDbArc
 50
120
 51
180
  0
ARC
  5
B02
330
A02
100
AcDbEntity
  8
Shape2DView003
100
AcDbCircle
 10
181.057
 20
355.54
 30
0
 40
0.213333
100
AcDbArc
 50
180
 51
-30
  0
LINE
  5
B03
330
A02
100
AcDbEntity
  8
Shape2DView003
100
AcDbLine
 10
184
 20
355.433
 30
0
 11
181.241
 21
355.433
 31
0
  0
LINE
  5
B04
330
A02
100
AcDbEntity
  8
Shape2DView003
100
AcDbLine
 10
184
 20
339.9
 30
0
 11
184
 21
355.433
 31
0
  0
LINE
  5
B05
330
A02
100
AcDbEntity
  8
Shape2DView003
100
AcDbLine
 10
184
 20
339.9
 30
0
 11
181.241
 21
339.9
 31
0
  0
ARC
  5
B06
330
A02
100
AcDbEntity
  8
Shape2DView003
100
AcDbCircle
 10
181.057
 20
339.793
 30
0
 40
0.213333
100
AcDbArc
 50
30
 51
180
  0
ARC
  5
B07
330
A02
100
AcDbEntity
  8
Shape2DView003
100
AcDbCircle
 10
181.057
 20
339.793
 30
0
 40
0.213333
100
AcDbArc
 50
180
 51
-120
  0
LINE
  5
B08
330
A02
100
AcDbEntity
  8
Shape2DView003
100
AcDbLine
 10
180.95
 20
339.609
 30
0
 11
180.95
 21
330.391
 31
0
  0
ARC
  5
B09
330
A02
100
AcDbEntity
  8
Shape2DView003
100
AcDbCircle
 10
181.057
 20
330.207
 30
0
 40
0.213333
100
AcDbArc
 50
120
 51
180
  0
ARC
  5
B0A
330
A02
100
AcDbEntity
  8
Shape2DView003
100
AcDbCircle
 10
181.057
 20
330.207
 30
0
 40
0.213333
100
AcDbArc
 50
180
 51
-30
  0
LINE
  5
B0B
330
A02
100
AcDbEntity
  8
Shape2DView003
100
AcDbLine
 10
184
 20
330.1
 30
0
 11
181.241
 21
330.1
 31
0
  0
LINE
  5
B0C
330
A02
100
AcDbEntity
  8
Shape2DView003
100
AcDbLine
 10
184
 20
314.567
 30
0
 11
184
 21
330.1
 31
0
  0
LINE
  5
B0D
330
A02
100
AcDbEntity
  8
Shape2DView003
100
AcDbLine
 10
184
 20
314.567
 30
0
 11
181.241
 21
314.567
 31
0
  0
ARC
  5
B0E
330
A02
100
AcDbEntity
  8
Shape2DView003
100
AcDbCircle
 10
181.057
 20
314.46
 30
0
 40
0.213333
100
AcDbArc
 50
30
 51
180
  0
ARC
  5
B0F
330
A02
100
AcDbEntity
  8
Shape2DView003
100
AcDbCircle
 10
181.057
 20
314.46
 30
0
 40
0.213333
100
AcDbArc
 50
180
 51
-120
  0
LINE
  5
B10
330
A02
100
AcDbEntity
  8
Shape2DView003
100
AcDbLine
 10
180.95
 20
314.275
 30
0
 11
180.95
 21
305.058
 31
0
  0
ARC
  5
B11
330
A02
100
AcDbEntity
  8
Shape2DView003
100
AcDbCircle
 10
181.057
 20
304.873
 30
0
 40
0.213333
100
AcDbArc
 50
120
 51
180
  0
ARC
  5
B12
330
A02
100
AcDbEntity
  8
Shape2DView003
100
AcDbCircle
 10
181.057
 20
304.873
 30
0
 40
0.213333
100
AcDbArc
 50
180
 51
-30
  0
LINE
  5
B13
330
A02
100
AcDbEntity
  8
Shape2DView003
100
AcDbLine
 10
184
 20
304.767
 30
0
 11
181.241
 21
304.767
 31
0
  0
LINE
  5
B14
330
A02
100
AcDbEntity
  8
Shape2DView003
100
AcDbLine
 10
184
 20
289.233
 30
0
 11
184
 21
304.767
 31
0
  0
LINE
  5
B15
330
A02
100
AcDbEntity
  8
Shape2DView003
100
AcDbLine
 10
184
 20
289.233
 30
0
 11
181.241
 21
289.233
 31
0
  0
ARC
  5
B16
330
A02
100
AcDbEntity
  8
Shape2DView003
100
AcDbCircle
 10
181.057
 20
289.127
 30
0
 40
0.213333
100
AcDbArc
 50
30
 51
180
  0
ARC
  5
B17
330
A02
100
AcDbEntity
  8
Shape2DView003
100
AcDbCircle
 10
181.057
 20
289.127
 30
0
 40
0.213333
100
AcDbArc
 50
180
 51
-120
  0
LINE
  5
B18
330
A02
100
AcDbEntity
  8
Shape2DView003
100
AcDbLine
 10
180.95
 20
288.942
 30
0
 11
180.95
 21
279.725
 31
0
  0
ARC
  5
B19
330
A02
100
AcDbEntity
  8
Shape2DView003
100
AcDbCircle
 10
181.057
 20
279.54
 30
0
 40
0.213333
100
AcDbArc
 50
120
 51
180
  0
ARC
  5
B1A
330
A02
100
AcDbEntity
  8
Shape2DView003
100
AcDbCircle
 10
181.057
 20
279.54
 30
0
 40
0.213333
100
AcDbArc
 50
180
 51
-30
  0
LINE
  5
B1B
330
A02
100
AcDbEntity
  8
Shape2DView003
100
AcDbLine
 10
184
 20
279.433
 30
0
 11
181.241
 21
279.433
 31
0
  0
LINE
  5
B1C
330
A02
100
AcDbEntity
  8
Shape2DView003
100
AcDbLine
 10
184
 20
263.9
 30
0
 11
184
 21
279.433
 31
0
  0
LINE
  5
B1D
330
A02
100
AcDbEntity
  8
Shape2DView003
100
AcDbLine
 10
184
 20
263.9
 30
0
 11
181.241
 21
263.9
 31
0
  0
ARC
  5
B1E
330
A02
100
AcDbEntity
  8
Shape2DView003
100
AcDbCircle
 10
181.057
 20
263.793
 30
0
 40
0.213333
100
AcDbArc
 50
30
 51
180
  0
ARC
  5
B1F
330
A02
100
AcDbEntity
  8
Shape2DView003
100
AcDbCircle
 10
181.057
 20
263.793
 30
0
 40
0.213333
100
AcDbArc
 50
180
 51
-120
  0
LINE
  5
B20
330
A02
100
AcDbEntity
  8
Shape2DView003
100
AcDbLine
 10
180.95
 20
263.609
 30
0
 11
180.95
 21
254.391
 31
0
  0
ARC
  5
B21
330
A02
100
AcDbEntity
  8
Shape2DView003
100
AcDbCircle
 10
181.057
 20
254.207
 30
0
 40
0.213333
100
AcDbArc
 50
120
 51
180
  0
ARC
  5
B22
330
A02
100
AcDbEntity
  8
Shape2DView003
100
AcDbCircle
 10
181.057
 20
254.207
 30
0
 40
0.213333
100
AcDbArc
 50
180
 51
-30
  0
LINE
  5
B23
330
A02
100
AcDbEntity
  8
Shape2DView003
100
AcDbLine
 10
184
 20
254.1
 30
0
 11
181.241
 21
254.1
 31
0
  0
LINE
  5
B24
330
A02
100
AcDbEntity
  8
Shape2DView003
100
AcDbLine
 10
184
 20
238.567
 30
0
 11
184
 21
254.1
 31
0
  0
LINE
  5
B25
330
A02
100
AcDbEntity
  8
Shape2DView003
100
AcDbLine
 10
184
 20
238.567
 30
0
 11
181.241
 21
238.567
 31
0
  0
ARC
  5
B26
330
A02
100
AcDbEntity
  8
Shape2DView003
100
AcDbCircle
 10
181.057
 20
238.46
 30
0
 40
0.213333
100
AcDbArc
 50
30
 51
180
  0
ARC
  5
B27
330
A02
100
AcDbEntity
  8
Shape2DView003
100
AcDbCircle
 10
181.057
 20
238.46
 30
0
 40
0.213333
100
AcDbArc
 50
180
 51
-120
  0
LINE
  5
B28
330
A02
100
AcDbEntity
  8
Shape2DView003
100
AcDbLine
 10
180.95
 20
238.275
 30
0
 11
180.95
 21
229.058
 31
0
  0
ARC
  5
B29
330
A02
100
AcDbEntity
  8
Shape2DView003
100
AcDbCircle
 10
181.057
 20
228.873
 30
0
 40
0.213333
100
AcDbArc
 50
120
 51
180
  0
ARC
  5
B2A
330
A02
100
AcDbEntity
  8
Shape2DView003
100
AcDbCircle
 10
181.057
 20
228.873
 30
0
 40
0.213333
100
AcDbArc
 50
180
 51
-30
  0
LINE
  5
B2B
330
A02
100
AcDbEntity
  8
Shape2DView003
100
AcDbLine
 10
184
 20
228.767
 30
0
 11
181.241
 21
228.767
 31
0
  0
LINE
  5
B2C
330
A02
100
AcDbEntity
  8
Shape2DView003
100
AcDbLine
 10
115.9
 20
425.768
 30
0
 11
115.9
 21
423.232
 31
0
  0
ARC
  5
B2D
330
A02
100
AcDbEntity
  8
Shape2DView003
100
AcDbCircle
 10
115.797
 20
425.947
 30
0
 40
0.206667
100
AcDbArc
 50
-60
 51
150
  0
LINE
  5
B2E
330
A02
100
AcDbEntity
  8
Shape2DView003
100
AcDbLine
 10
106.382
 20
426.05
 30
0
 11
115.618
 21
426.05
 31
0
  0
ARC
  5
B2F
330
A02
100
AcDbEntity
  8
Shape2DView003
100
AcDbCircle
 10
106.203
 20
425.947
 30
0
 40
0.206667
100
AcDbArc
 50
30
 51
-120
  0
LINE
  5
B30
330
A02
100
AcDbEntity
  8
Shape2DView003
100
AcDbLine
 10
106.1
 20
425.768
 30
0
 11
106.1
 21
423.232
 31
0
  0
ARC
  5
B31
330
A02
100
AcDbEntity
  8
Shape2DView003
100
AcDbCircle
 10
106.203
 20
423.053
 30
0
 40
0.206667
100
AcDbArc
 50
120
 51
-90
  0
ARC
  5
B32
330
A02
100
AcDbEntity
  8
Shape2DView003
100
AcDbCircle
 10
106.203
 20
423.053
 30
0
 40
0.206667
100
AcDbArc
 50
-90
 51
-30
  0
LINE
  5
B33
330
A02
100
AcDbEntity
  8
Shape2DView003
100
AcDbLine
 10
106.382
 20
422.95
 30
0
 11
115.618
 21
422.95
 31
0
  0
ARC
  5
B34
330
A02
100
AcDbEntity
  8
Shape2DView003
100
AcDbCircle
 10
115.797
 20
423.053
 30
0
 40
0.206667
100
AcDbArc
 50
-150
 51
-90
  0
ARC
  5
B35
330
A02
100
AcDbEntity
  8
Shape2DView003
100
AcDbCircle
 10
115.797
 20
423.053
 30
0
 40
0.206667
100
AcDbArc
 50
-90
 51
60
  0
LINE
  5
B36
330
A02
100
AcDbEntity
  8
Shape2DView003
100
AcDbLine
 10
143.9
 20
425.768
 30
0
 11
143.9
 21
423.232
 31
0
  0
ARC
  5
B37
330
A02
100
AcDbEntity
  8
Shape2DView003
100
AcDbCircle
 10
143.797
 20
425.947
 30
0
 40
0.206667
100
AcDbArc
 50
-60
 51
150
  0
LINE
  5
B38
330
A02
100
AcDbEntity
  8
Shape2DView003
100
AcDbLine
 10
134.382
 20
426.05
 30
0
 11
143.618
 21
426.05
 31
0
  0
ARC
  5
B39
330
A02
100
AcDbEntity
  8
Shape2DView003
100
AcDbCircle
 10
134.203
 20
425.947
 30
0
 40
0.206667
100
AcDbArc
 50
30
 51
-120
  0
LINE
  5
B3A
330
A02
100
AcDbEntity
  8
Shape2DView003
100
AcDbLine
 10
134.1
 20
425.768
 30
0
 11
134.1
 21
423.232
 31
0
  0
ARC
  5
B3B
330
A02
100
AcDbEntity
  8
Shape2DView003
100
AcDbCircle
 10
134.203
 20
423.053
 30
0
 40
0.206667
100
AcDbArc
 50
120
 51
-90
  0
ARC
  5
B3C
330
A02
100
AcDbEntity
  8
Shape2DView003
100
AcDbCircle
 10
134.203
 20
423.053
 30
0
 40
0.206667
100
AcDbArc
 50
-90
 51
-30
  0
LINE
  5
B3D
330
A02
100
AcDbEntity
  8
Shape2DView003
100
AcDbLine
 10
134.382
 20
422.95
 30
0
 11
143.618
 21
422.95
 31
0
  0
ARC
  5
B3E
330
A02
100
AcDbEntity
  8
Shape2DView003
100
AcDbCircle
 10
143.797
 20
423.053
 30
0
 40
0.206667
100
AcDbArc
 50
-150
 51
-90
  0
ARC
  5
B3F
330
A02
100
AcDbEntity
  8
Shape2DView003
100
AcDbCircle
 10
143.797
 20
423.053
 30
0
 40
0.206667
100
AcDbArc
 50
-90
 51
60
  0
LINE
  5
B40
330
A02
100
AcDbEntity
  8
Shape2DView003
100
AcDbLine
 10
171.9
 20
425.768
 30
0
 11
171.9
 21
423.232
 31
0
  0
ARC
  5
B41
330
A02
100
AcDbEntity
  8
Shape2DView003
100
AcDbCircle
 10
171.797
 20
425.947
 30
0
 40
0.206667
100
AcDbArc
 50
-60
 51
150
  0
LINE
  5
B42
330
A02
100
AcDbEntity
  8
Shape2DView003
100
AcDbLine
 10
162.382
 20
426.05
 30
0
 11
171.618
 21
426.05
 31
0
  0
ARC
  5
B43
330
A02
100
AcDbEntity
  8
Shape2DView003
100
AcDbCircle
 10
162.203
 20
425.947
 30
0
 40
0.206667
100
AcDbArc
 50
30
 51
-120
  0
LINE
  5
B44
330
A02
100
AcDbEntity
  8
Shape2DView003
100
AcDbLine
 10
162.1
 20
425.768
 30
0
 11
162.1
 21
423.232
 31
0
  0
ARC
  5
B45
330
A02
100
AcDbEntity
  8
Shape2DView003
100
AcDbCircle
 10
162.203
 20
423.053
 30
0
 40
0.206667
100
AcDbArc
 50
120
 51
-90
  0
ARC
  5
B46
330
A02
100
AcDbEntity
  8
Shape2DView003
100
AcDbCircle
 10
162.203
 20
423.053
 30
0
 40
0.206667
100
AcDbArc
 50
-90
 51
-30
  0
LINE
  5
B47
330
A02
100
AcDbEntity
  8
Shape2DView003
100
AcDbLine
 10
162.382
 20
422.95
 30
0
 11
171.618
 21
422.95
 31
0
  0
ARC
  5
B48
330
A02
100
AcDbEntity
  8
Shape2DView003
100
AcDbCircle
 10
171.797
 20
423.053
 30
0
 40
0.206667
100
AcDbArc
 50
-150
 51
-90
  0
ARC
  5
B49
330
A02
100
AcDbEntity
  8
Shape2DView003
100
AcDbCircle
 10
171.797
 20
423.053
 30
0
 40
0.206667
100
AcDbArc
 50
-90
 51
60
  0
LINE
  5
B4A
330
A02
100
AcDbEntity
  8
Shape2DView004
100
AcDbLine
 10
90
 20
538
 30
0
 11
90
 21
548.767
 31
0
  0
LINE
  5
B4B
330
A02
100
AcDbEntity
  8
Shape2DView004
100
AcDbLine
 10
79.9
 20
538
 30
0
 11
90
 21
538
 31
0
  0
LINE
  5
B4C
330
A02
100
AcDbEntity
  8
Shape2DView004
100
AcDbLine
 10
79.9
 20
540.759
 30
0
 11
79.9
 21
538
 31
0
  0
ARC
  5
B4D
330
A02
100
AcDbEntity
  8
Shape2DView004
100
AcDbCircle
 10
79.7933
 20
540.943
 30
0
 40
0.213333
100
AcDbArc
 50
-60
 51
150
  0
LINE
  5
B4E
330
A02
100
AcDbEntity
  8
Shape2DView004
100
AcDbLine
 10
79.6086
 20
541.05
 30
0
 11
70.3914
 21
541.05
 31
0
  0
ARC
  5
B4F
330
A02
100
AcDbEntity
  8
Shape2DView004
100
AcDbCircle
 10
70.2067
 20
540.943
 30
0
 40
0.213333
100
AcDbArc
 50
30
 51
-120
  0
LINE
  5
B50
330
A02
100
AcDbEntity
  8
Shape2DView004
100
AcDbLine
 10
70.1
 20
540.759
 30
0
 11
70.1
 21
538
 31
0
  0
LINE
  5
B51
330
A02
100
AcDbEntity
  8
Shape2DView004
100
AcDbLine
 10
49.9
 20
538
 30
0
 11
70.1
 21
538
 31
0
  0
LINE
  5
B52
330
A02
100
AcDbEntity
  8
Shape2DView004
100
AcDbLine
 10
49.9
 20
540.759
 30
0
 11
49.9
 21
538
 31
0
  0
ARC
  5
B53
330
A02
100
AcDbEntity
  8
Shape2DView004
100
AcDbCircle
 10
49.7933
 20
540.943
 30
0
 40
0.213333
100
AcDbArc
 50
-60
 51
150
  0
LINE
  5
B54
330
A02
100
AcDbEntity
  8
Shape2DView004
100
AcDbLine
 10
49.6086
 20
541.05
 30
0
 11
40.3914
 21
541.05
 31
0
  0
ARC
  5
B55
330
A02
100
AcDbEntity
  8
Shape2DView004
100
AcDbCircle
 10
40.2067
 20
540.943
 30
0
 40
0.213333
100
AcDbArc
 50
30
 51
-120
  0
LINE
  5
B56
330
A02
100
AcDbEntity
  8
Shape2DView004
100
AcDbLine
 10
40.1
 20
540.759
 30
0
 11
40.1
 21
538
 31
0
  0
LINE
  5
B57
330
A02
100
AcDbEntity
  8
Shape2DView004
100
AcDbLine
 10
19.9
 20
538
 30
0
 11
40.1
 21
538
 31
0
  0
LINE
  5
B58
330
A02
100
AcDbEntity
  8
Shape2DView004
100
AcDbLine
 10
19.9
 20
540.759
 30
0
 11
19.9
 21
538
 31
0
  0
ARC
  5
B59
330
A02
100
AcDbEntity
  8
Shape2DView004
100
AcDbCircle
 10
19.7933
 20
540.943
 30
0
 40
0.213333
100
AcDbArc
 50
-60
 51
150
  0
LINE
  5
B5A
330
A02
100
AcDbEntity
  8
Shape2DView004
100
AcDbLine
 10
19.6086
 20
541.05
 30
0
 11
10.3914
 21
541.05
 31
0
  0
ARC
  5
B5B
330
A02
100
AcDbEntity
  8
Shape2DView004
100
AcDbCircle
 10
10.2067
 20
540.943
 30
0
 40
0.213333
100
AcDbArc
 50
30
 51
-120
  0
LINE
  5
B5C
330
A02
100
AcDbEntity
  8
Shape2DView004
100
AcDbLine
 10
10.1
 20
540.759
 30
0
 11
10.1
 21
538
 31
0
  0
LINE
  5
B5D
330
A02
100
AcDbEntity
  8
Shape2DView004
100
AcDbLine
 10
0
 20
538
 30
0
 11
10.1
 21
538
 31
0
  0
LINE
  5
B5E
330
A02
100
AcDbEntity
  8
Shape2DView004
100
AcDbLine
 10
0
 20
848
 30
0
 11
0
 21
538
 31
0
  0
LINE
  5
B5F
330
A02
100
AcDbEntity
  8
Shape2DView004
100
AcDbLine
 10
10.1
 20
848
 30
0
 11
0
 21
848
 31
0
  0
LINE
  5
B60
330
A02
100
AcDbEntity
  8
Shape2DView004
100
AcDbLine
 10
10.1
 20
848
 30
0
 11
10.1
 21
845.241
 31
0
  0
ARC
  5
B61
330
A02
100
AcDbEntity
  8
Shape2DView004
100
AcDbCircle
 10
10.2067
 20
845.057
 30
0
 40
0.213333
100
AcDbArc
 50
120
 51
-90
  0
ARC
  5
B62
330
A02
100
AcDbEntity
  8
Shape2DView004
100
AcDbCircle
 10
10.2067
 20
845.057
 30
0
 40
0.213333
100
AcDbArc
 50
-90
 51
-30
  0
LINE
  5
B63
330
A02
100
AcDbEntity
  8
Shape2DView004
100
AcDbLine
 10
19.6086
 20
844.95
 30
0
 11
10.3914
 21
844.95
 31
0
  0
ARC
  5
B64
330
A02
100
AcDbEntity
  8
Shape2DView004
100
AcDbCircle
 10
19.7933
 20
845.057
 30
0
 40
0.213333
100
AcDbArc
 50
-150
 51
-90
  0
ARC
  5
B65
330
A02
100
AcDbEntity
  8
Shape2DView004
100
AcDbCircle
 10
19.7933
 20
845.057
 30
0
 40
0.213333
100
AcDbArc
 50
-90
 51
60
  0
LINE
  5
B66
330
A02
100
AcDbEntity
  8
Shape2DView004
100
AcDbLine
 10
19.9
 20
848
 30
0
 11
19.9
 21
845.241
 31
0
  0
LINE
  5
B67
330
A02
100
AcDbEntity
  8
Shape2DView004
100
AcDbLine
 10
40.1
 20
848
 30
0
 11
19.9
 21
848
 31
0
  0
LINE
  5
B68
330
A02
100
AcDbEntity
  8
Shape2DView004
100
AcDbLine
 10
40.1
 20
848
 30
0
 11
40.1
 21
845.241
 31
0
  0
ARC
  5
B69
330
A02
100
AcDbEntity
  8
Shape2DView004
100
AcDbCircle
 10
40.2067
 20
845.057
 30
0
 40
0.213333
100
AcDbArc
 50
120
 51
-90
  0
ARC
  5
B6A
330
A02
100
AcDbEntity
  8
Shape2DView004
100
AcDbCircle
 10
40.2067
 20
845.057
 30
0
 40
0.213333
100
AcDbArc
 50
-90
 51
-30
  0
LINE
  5
B6B
330
A02
100
AcDbEntity
  8
Shape2DView004
100
AcDbLine
 10
49.6086
 20
844.95
 30
0
 11
40.3914
 21
844.95
 31
0
  0
ARC
  5
B6C
330
A02
100
AcDbEntity
  8
Shape2DView004
100
AcDbCircle
 10
49.7933
 20
845.057
 30
0
 40
0.213333
100
AcDbArc
 50
-150
 51
-90
  0
ARC
  5
B6D
330
A02
100
AcDbEntity
  8
Shape2DView004
100
AcDbCircle
 10
49.7933
 20
845.057
 30
0
 40
0.213333
100
AcDbArc
 50
-90
 51
60
  0
LINE
  5
B6E
330
A02
100
AcDbEntity
  8
Shape2DView004
100
AcDbLine
 10
49.9
 20
848
 30
0
 11
49.9
 21
845.241
 31
0
  0
LINE
  5
B6F
330
A02
100
AcDbEntity
  8
Shape2DView004
100
AcDbLine
 10
70.1
 20
848
 30
0
 11
49.9
 21
848
 31
0
  0
LINE
  5
B70
330
A02
100
AcDbEntity
  8
Shape2DView004
100
AcDbLine
 10
70.1
 20
848
 30
0
 11
70.1
 21
845.241
 31
0
  0
ARC
  5
B71
330
A02
100
AcDbEntity
  8
Shape2DView004
100
AcDbCircle
 10
70.2067
 20
845.057
 30
0
 40
0.213333
100
AcDbArc
 50
120
 51
-90
  0
ARC
  5
B72
330
A02
100
AcDbEntity
  8
Shape2DView004
100
AcDbCircle
 10
70.2067
 20
845.057
 30
0
 40
0.213333
100
AcDbArc
 50
-90
 51
-30
  0
LINE
  5
B73
330
A02
100
AcDbEntity
  8
Shape2DView004
100
AcDbLine
 10
79.6086
 20
844.95
 30
0
 11
70.3914
 21
844.95
 31
0
  0
ARC
  5
B74
330
A02
100
AcDbEntity
  8
Shape2DView004
100
AcDbCircle
 10
79.7933
 20
845.057
 30
0
 40
0.213333
100
AcDbArc
 50
-150
 51
-90
  0
ARC
  5
B75
330
A02
100
AcDbEntity
  8
Shape2DView004
100
AcDbCircle
 10
79.7933
 20
845.057
 30
0
 40
0.213333
100
AcDbArc
 50
-90
 51
60
  0
LINE
  5
B76
330
A02
100
AcDbEntity
  8
Shape2DView004
100
AcDbLine
 10
79.9
 20
848
 30
0
 11
79.9
 21
845.241
 31
0
  0
LINE
  5
B77
330
A02
100
AcDbEntity
  8
Shape2DView004
100
AcDbLine
 10
90
 20
848
 30
0
 11
79.9
 21
848
 31
0
  0
LINE
  5
B78
330
A02
100
AcDbEntity
  8
Shape2DView004
100
AcDbLine
 10
90
 20
837.233
 30
0
 11
90
 21
848
 31
0
  0
LINE
  5
B79
330
A02
100
AcDbEntity
  8
Shape2DView004
100
AcDbLine
 10
90
 20
837.233
 30
0
 11
87.2414
 21
837.233
 31
0
  0
ARC
  5
B7A
330
A02
100
AcDbEntity
  8
Shape2DView004
100
AcDbCircle
 10
87.0567
 20
837.127
 30
0
 40
0.213333
100
AcDbArc
 50
30
 51
180
  0
ARC
  5
B7B
330
A02
100
AcDbEntity
  8
Shape2DView004
100
AcDbCircle
 10
87.0567
 20
837.127
 30
0
 40
0.213333
100
AcDbArc
 50
180
 51
-120
  0
LINE
  5
B7C
330
A02
100
AcDbEntity
  8
Shape2DView004
100
AcDbLine
 10
86.95
 20
827.725
 30
0
 11
86.95
 21
836.942
 31
0
  0
ARC
  5
B7D
330
A02
100
AcDbEntity
  8
Shape2DView004
100
AcDbCircle
 10
87.0567
 20
827.54
 30
0
 40
0.213333
100
AcDbArc
 50
120
 51
180
  0
ARC
  5
B7E
330
A02
100
AcDbEntity
  8
Shape2DView004
100
AcDbCircle
 10
87.0567
 20
827.54
 30
0
 40
0.213333
100
AcDbArc
 50
180
 51
-30
  0
LINE
  5
B7F
330
A02
100
AcDbEntity
  8
Shape2DView004
100
AcDbLine
 10
90
 20
827.433
 30
0
 11
87.2414
 21
827.433
 31
0
  0
LINE
  5
B80
330
A02
100
AcDbEntity
  8
Shape2DView004
100
AcDbLine
 10
90
 20
811.9
 30
0
 11
90
 21
827.433
 31
0
  0
LINE
  5
B81
330
A02
100
AcDbEntity
  8
Shape2DView004
100
AcDbLine
 10
90
 20
811.9
 30
0
 11
87.2414
 21
811.9
 31
0
  0
ARC
  5
B82
330
A02
100
AcDbEntity
  8
Shape2DView004
100
AcDbCircle
 10
87.0567
 20
811.793
 30
0
 40
0.213333
100
AcDbArc
 50
30
 51
180
  0
ARC
  5
B83
330
A02
100
AcDbEntity
  8
Shape2DView004
100
AcDbCircle
 10
87.0567
 20
811.793
 30
0
 40
0.213333
100
AcDbArc
 50
180
 51
-120
  0
LINE
  5
B84
330
A02
100
AcDbEntity
  8
Shape2DView004
100
AcDbLine
 10
86.95
 20
802.391
 30
0
 11
86.95
 21
811.609
 31
0
  0
ARC
  5
B85
330
A02
100
AcDbEntity
  8
Shape2DView004
100
AcDbCircle
 10
87.0567
 20
802.207
 30
0
 40
0.213333
100
AcDbArc
 50
120
 51
180
  0
ARC
  5
B86
330
A02
100
AcDbEntity
  8
Shape2DView004
100
AcDbCircle
 10
87.0567
 20
802.207
 30
0
 40
0.213333
100
AcDbArc
 50
180
 51
-30
  0
LINE
  5
B87
330
A02
100
AcDbEntity
  8
Shape2DView004
100
AcDbLine
 10
90
 20
802.1
 30
0
 11
87.2414
 21
802.1
 31
0
  0
LINE
  5
B88
330
A02
100
AcDbEntity
  8
Shape2DView004
100
AcDbLine
 10
90
 20
786.567
 30
0
 11
90
 21
802.1
 31
0
  0
LINE
  5
B89
330
A02
100
AcDbEntity
  8
Shape2DView004
100
AcDbLine
 10
90
 20
786.567
 30
0
 11
87.2414
 21
786.567
 31
0
  0
ARC
  5
B8A
330
A02
100
AcDbEntity
  8
Shape2DView004
100
AcDbCircle
 10
87.0567
 20
786.46
 30
0
 40
0.213333
100
AcDbArc
 50
30
 51
180
  0
ARC
  5
B8B
330
A02
100
AcDbEntity
  8
Shape2DView004
100
AcDbCircle
 10
87.0567
 20
786.46
 30
0
 40
0.213333
100
AcDbArc
 50
180
 51
-120
  0
LINE
  5
B8C
330
A02
100
AcDbEntity
  8
Shape2DView004
100
AcDbLine
 10
86.95
 20
777.058
 30
0
 11
86.95
 21
786.275
 31
0
  0
ARC
  5
B8D
330
A02
100
AcDbEntity
  8
Shape2DView004
100
AcDbCircle
 10
87.0567
 20
776.873
 30
0
 40
0.213333
100
AcDbArc
 50
120
 51
180
  0
ARC
  5
B8E
330
A02
100
AcDbEntity
  8
Shape2DView004
100
AcDbCircle
 10
87.0567
 20
776.873
 30
0
 40
0.213333
100
AcDbArc
 50
180
 51
-30
  0
LINE
  5
B8F
330
A02
100
AcDbEntity
  8
Shape2DView004
100
AcDbLine
 10
90
 20
776.767
 30
0
 11
87.2414
 21
776.767
 31
0
  0
LINE
  5
B90
330
A02
100
AcDbEntity
  8
Shape2DView004
100
AcDbLine
 10
90
 20
761.233
 30
0
 11
90
 21
776.767
 31
0
  0
LINE
  5
B91
330
A02
100
AcDbEntity
  8
Shape2DView004
100
AcDbLine
 10
90
 20
761.233
 30
0
 11
87.2414
 21
761.233
 31
0
  0
ARC
  5
B92
330
A02
100
AcDbEntity
  8
Shape2DView004
100
AcDbCircle
 10
87.0567
 20
761.127
 30
0
 40
0.213333
100
AcDbArc
 50
30
 51
180
  0
ARC
  5
B93
330
A02
100
AcDbEntity
  8
Shape2DView004
100
AcDbCircle
 10
87.0567
 20
761.127
 30
0
 40
0.213333
100
AcDbArc
 50
180
 51
-120
  0
LINE
  5
B94
330
A02
100
AcDbEntity
  8
Shape2DView004
100
AcDbLine
 10
86.95
 20
751.725
 30
0
 11
86.95
 21
760.942
 31
0
  0
ARC
  5
B95
330
A02
100
AcDbEntity
  8
Shape2DView004
100
AcDbCircle
 10
87.0567
 20
751.54
 30
0
 40
0.213333
100
AcDbArc
 50
120
 51
180
  0
ARC
  5
B96
330
A02
100
AcDbEntity
  8
Shape2DView004
100
AcDbCircle
 10
87.0567
 20
751.54
 30
0
 40
0.213333
100
AcDbArc
 50
180
 51
-30
  0
LINE
  5
B97
330
A02
100
AcDbEntity
  8
Shape2DView004
100
AcDbLine
 10
90
 20
751.433
 30
0
 11
87.2414
 21
751.433
 31
0
  0
LINE
  5
B98
330
A02
100
AcDbEntity
  8
Shape2DView004
100
AcDbLine
 10
90
 20
735.9
 30
0
 11
90
 21
751.433
 31
0
  0
LINE
  5
B99
330
A02
100
AcDbEntity
  8
Shape2DView004
100
AcDbLine
 10
90
 20
735.9
 30
0
 11
87.2414
 21
735.9
 31
0
  0
ARC
  5
B9A
330
A02
100
AcDbEntity
  8
Shape2DView004
100
AcDbCircle
 10
87.0567
 20
735.793
 30
0
 40
0.213333
100
AcDbArc
 50
30
 51
180
  0
ARC
  5
B9B
330
A02
100
AcDbEntity
  8
Shape2DView004
100
AcDbCircle
 10
87.0567
 20
735.793
 30
0
 40
0.213333
100
AcDbArc
 50
180
 51
-120
  0
LINE
  5
B9C
330
A02
100
AcDbEntity
  8
Shape2DView004
100
AcDbLine
 10
86.95
 20
726.391
 30
0
 11
86.95
 21
735.609
 31
0
  0
ARC
  5
B9D
330
A02
100
AcDbEntity
  8
Shape2DView004
100
AcDbCircle
 10
87.0567
 20
726.207
 30
0
 40
0.213333
100
AcDbArc
 50
120
 51
180
  0
ARC
  5
B9E
330
A02
100
AcDbEntity
  8
Shape2DView004
100
AcDbCircle
 10
87.0567
 20
726.207
 30
0
 40
0.213333
100
AcDbArc
 50
180
 51
-30
  0
LINE
  5
B9F
330
A02
100
AcDbEntity
  8
Shape2DView004
100
AcDbLine
 10
90
 20
726.1
 30
0
 11
87.2414
 21
726.1
 31
0
  0
LINE
  5
BA0
330
A02
100
AcDbEntity
  8
Shape2DView004
100
AcDbLine
 10
90
 20
710.567
 30
0
 11
90
 21
726.1
 31
0
  0
LINE
  5
BA1
330
A02
100
AcDbEntity
  8
Shape2DView004
100
AcDbLine
 10
90
 20
710.567
 30
0
 11
87.2414
 21
710.567
 31
0
  0
ARC
  5
BA2
330
A02
100
AcDbEntity
  8
Shape2DView004
100
AcDbCircle
 10
87.0567
 20
710.46
 30
0
 40
0.213333
100
AcDbArc
 50
30
 51
180
  0
ARC
  5
BA3
330
A02
100
AcDbEntity
  8
Shape2DView004
100
AcDbCircle
 10
87.0567
 20
710.46
 30
0
 40
0.213333
100
AcDbArc
 50
180
 51
-120
  0
LINE
  5
BA4
330
A02
100
AcDbEntity
  8
Shape2DView004
100
AcDbLine
 10
86.95
 20
701.058
 30
0
 11
86.95
 21
710.275
 31
0
  0
ARC
  5
BA5
330
A02
100
AcDbEntity
  8
Shape2DView004
100
AcDbCircle
 10
87.0567
 20
700.873
 30
0
 40
0.213333
100
AcDbArc
 50
120
 51
180
  0
ARC
  5
BA6
330
A02
100
AcDbEntity
  8
Shape2DView004
100
AcDbCircle
 10
87.0567
 20
700.873
 30
0
 40
0.213333
100
AcDbArc
 50
180
 51
-30
  0
LINE
  5
BA7
330
A02
100
AcDbEntity
  8
Shape2DView004
100
AcDbLine
 10
90
 20
700.767
 30
0
 11
87.2414
 21
700.767
 31
0
  0
LINE
  5
BA8
330
A02
100
AcDbEntity
  8
Shape2DView004
100
AcDbLine
 10
90
 20
685.233
 30
0
 11
90
 21
700.767
 31
0
  0
LINE
  5
BA9
330
A02
100
AcDbEntity
  8
Shape2DView004
100
AcDbLine
 10
90
 20
685.233
 30
0
 11
87.2414
 21
685.233
 31
0
  0
ARC
  5
BAA
330
A02
100
AcDbEntity
  8
Shape2DView004
100
AcDbCircle
 10
87.0567
 20
685.127
 30
0
 40
0.213333
100
AcDbArc
 50
30
 51
180
  0
ARC
  5
BAB
330
A02
100
AcDbEntity
  8
Shape2DView004
100
AcDbCircle
 10
87.0567
 20
685.127
 30
0
 40
0.213333
100
AcDbArc
 50
180
 51
-120
  0
LINE
  5
BAC
330
A02
100
AcDbEntity
  8
Shape2DView004
100
AcDbLine
 10
86.95
 20
675.725
 30
0
 11
86.95
 21
684.942
 31
0
  0
ARC
  5
BAD
330
A02
100
AcDbEntity
  8
Shape2DView004
100
AcDbCircle
 10
87.0567
 20
675.54
 30
0
 40
0.213333
100
AcDbArc
 50
120
 51
180
  0
ARC
  5
BAE
330
A02
100
AcDbEntity
  8
Shape2DView004
100
AcDbCircle
 10
87.0567
 20
675.54
 30
0
 40
0.213333
100
AcDbArc
 50
180
 51
-30
  0
LINE
  5
BAF
330
A02
100
AcDbEntity
  8
Shape2DView004
100
AcDbLine
 10
90
 20
675.433
 30
0
 11
87.2414
 21
675.433
 31
0
  0
LINE
  5
BB0
330
A02
100
AcDbEntity
  8
Shape2DView004
100
AcDbLine
 10
90
 20
659.9
 30
0
 11
90
 21
675.433
 31
0
  0
LINE
  5
BB1
330
A02
100
AcDbEntity
  8
Shape2DView004
100
AcDbLine
 10
90
 20
659.9
 30
0
 11
87.2414
 21
659.9
 31
0
  0
ARC
  5
BB2
330
A02
100
AcDbEntity
  8
Shape2DView004
100
AcDbCircle
 10
87.0567
 20
659.793
 30
0
 40
0.213333
100
AcDbArc
 50
30
 51
180
  0
ARC
  5
BB3
330
A02
100
AcDbEntity
  8
Shape2DView004
100
AcDbCircle
 10
87.0567
 20
659.793
 30
0
 40
0.213333
100
AcDbArc
 50
180
 51
-120
  0
LINE
  5
BB4
330
A02
100
AcDbEntity
  8
Shape2DView004
100
AcDbLine
 10
86.95
 20
650.391
 30
0
 11
86.95
 21
659.609
 31
0
  0
ARC
  5
BB5
330
A02
100
AcDbEntity
  8
Shape2DView004
100
AcDbCircle
 10
87.0567
 20
650.207
 30
0
 40
0.213333
100
AcDbArc
 50
120
 51
180
  0
ARC
  5
BB6
330
A02
100
AcDbEntity
  8
Shape2DView004
100
AcDbCircle
 10
87.0567
 20
650.207
 30
0
 40
0.213333
100
AcDbArc
 50
180
 51
-30
  0
LINE
  5
BB7
330
A02
100
AcDbEntity
  8
Shape2DView004
100
AcDbLine
 10
90
 20
650.1
 30
0
 11
87.2414
 21
650.1
 31
0
  0
LINE
  5
BB8
330
A02
100
AcDbEntity
  8
Shape2DView004
100
AcDbLine
 10
90
 20
634.567
 30
0
 11
90
 21
650.1
 31
0
  0
LINE
  5
BB9
330
A02
100
AcDbEntity
  8
Shape2DView004
100
AcDbLine
 10
90
 20
634.567
 30
0
 11
87.2414
 21
634.567
 31
0
  0
ARC
  5
BBA
330
A02
100
AcDbEntity
  8
Shape2DView004
100
AcDbCircle
 10
87.0567
 20
634.46
 30
0
 40
0.213333
100
AcDbArc
 50
30
 51
180
  0
ARC
  5
BBB
330
A02
100
AcDbEntity
  8
Shape2DView004
100
AcDbCircle
 10
87.0567
 20
634.46
 30
0
 40
0.213333
100
AcDbArc
 50
180
 51
-120
  0
LINE
  5
BBC
330
A02
100
AcDbEntity
  8
Shape2DView004
100
AcDbLine
 10
86.95
 20
625.058
 30
0
 11
86.95
 21
634.275
 31
0
  0
ARC
  5
BBD
330
A02
100
AcDbEntity
  8
Shape2DView004
100
AcDbCircle
 10
87.0567
 20
624.873
 30
0
 40
0.213333
100
AcDbArc
 50
120
 51
180
  0
ARC
  5
BBE
330
A02
100
AcDbEntity
  8
Shape2DView004
100
AcDbCircle
 10
87.0567
 20
624.873
 30
0
 40
0.213333
100
AcDbArc
 50
180
 51
-30
  0
LINE
  5
BBF
330
A02
100
AcDbEntity
  8
Shape2DView004
100
AcDbLine
 10
90
 20
624.767
 30
0
 11
87.2414
 21
624.767
 31
0
  0
LINE
  5
BC0
330
A02
100
AcDbEntity
  8
Shape2DView004
100
AcDbLine
 10
90
 20
609.233
 30
0
 11
90
 21
624.767
 31
0
  0
LINE
  5
BC1
330
A02
100
AcDbEntity
  8
Shape2DView004
100
AcDbLine
 10
90
 20
609.233
 30
0
 11
87.2414
 21
609.233
 31
0
  0
ARC
  5
BC2
330
A02
100
AcDbEntity
  8
Shape2DView004
100
AcDbCircle
 10
87.0567
 20
609.127
 30
0
 40
0.213333
100
AcDbArc
 50
30
 51
180
  0
ARC
  5
BC3
330
A02
100
AcDbEntity
  8
Shape2DView004
100
AcDbCircle
 10
87.0567
 20
609.127
 30
0
 40
0.213333
100
AcDbArc
 50
180
 51
-120
  0
LINE
  5
BC4
330
A02
100
AcDbEntity
  8
Shape2DView004
100
AcDbLine
 10
86.95
 20
599.725
 30
0
 11
86.95
 21
608.942
 31
0
  0
ARC
  5
BC5
330
A02
100
AcDbEntity
  8
Shape2DView004
100
AcDbCircle
 10
87.0567
 20
599.54
 30
0
 40
0.213333
100
AcDbArc
 50
120
 51
180
  0
ARC
  5
BC6
330
A02
100
AcDbEntity
  8
Shape2DView004
100
AcDbCircle
 10
87.0567
 20
599.54
 30
0
 40
0.213333
100
AcDbArc
 50
180
 51
-30
  0
LINE
  5
BC7
330
A02
100
AcDbEntity
  8
Shape2DView004
100
AcDbLine
 10
90
 20
599.433
 30
0
 11
87.2414
 21
599.433
 31
0
  0
LINE
  5
BC8
330
A02
100
AcDbEntity
  8
Shape2DView004
100
AcDbLine
 10
90
 20
583.9
 30
0
 11
90
 21
599.433
 31
0
  0
LINE
  5
BC9
330
A02
100
AcDbEntity
  8
Shape2DView004
100
AcDbLine
 10
90
 20
583.9
 30
0
 11
87.2414
 21
583.9
 31
0
  0
ARC
  5
BCA
330
A02
100
AcDbEntity
  8
Shape2DView004
100
AcDbCircle
 10
87.0567
 20
583.793
 30
0
 40
0.213333
100
AcDbArc
 50
30
 51
180
  0
ARC
  5
BCB
330
A02
100
AcDbEntity
  8
Shape2DView004
100
AcDbCircle
 10
87.0567
 20
583.793
 30
0
 40
0.213333
100
AcDbArc
 50
180
 51
-120
  0
LINE
  5
BCC
330
A02
100
AcDbEntity
  8
Shape2DView004
100
AcDbLine
 10
86.95
 20
574.391
 30
0
 11
86.95
 21
583.609
 31
0
  0
ARC
  5
BCD
330
A02
100
AcDbEntity
  8
Shape2DView004
100
AcDbCircle
 10
87.0567
 20
574.207
 30
0
 40
0.213333
100
AcDbArc
 50
120
 51
180
  0
ARC
  5
BCE
330
A02
100
AcDbEntity
  8
Shape2DView004
100
AcDbCircle
 10
87.0567
 20
574.207
 30
0
 40
0.213333
100
AcDbArc
 50
180
 51
-30
  0
LINE
  5
BCF
330
A02
100
AcDbEntity
  8
Shape2DView004
100
AcDbLine
 10
90
 20
574.1
 30
0
 11
87.2414
 21
574.1
 31
0
  0
LINE
  5
BD0
330
A02
100
AcDbEntity
  8
Shape2DView004
100
AcDbLine
 10
90
 20
558.567
 30
0
 11
90
 21
574.1
 31
0
  0
LINE
  5
BD1
330
A02
100
AcDbEntity
  8
Shape2DView004
100
AcDbLine
 10
90
 20
558.567
 30
0
 11
87.2414
 21
558.567
 31
0
  0
ARC
  5
BD2
330
A02
100
AcDbEntity
  8
Shape2DView004
100
AcDbCircle
 10
87.0567
 20
558.46
 30
0
 40
0.213333
100
AcDbArc
 50
30
 51
180
  0
ARC
  5
BD3
330
A02
100
AcDbEntity
  8
Shape2DView004
100
AcDbCircle
 10
87.0567
 20
558.46
 30
0
 40
0.213333
100
AcDbArc
 50
180
 51
-120
  0
LINE
  5
BD4
330
A02
100
AcDbEntity
  8
Shape2DView004
100
AcDbLine
 10
86.95
 20
549.058
 30
0
 11
86.95
 21
558.275
 31
0
  0
ARC
  5
BD5
330
A02
100
AcDbEntity
  8
Shape2DView004
100
AcDbCircle
 10
87.0567
 20
548.873
 30
0
 40
0.213333
100
AcDbArc
 50
120
 51
180
  0
ARC
  5
BD6
330
A02
100
AcDbEntity
  8
Shape2DView004
100
AcDbCircle
 10
87.0567
 20
548.873
 30
0
 40
0.213333
100
AcDbArc
 50
180
 51
-30
  0
LINE
  5
BD7
330
A02
100
AcDbEntity
  8
Shape2DView004
100
AcDbLine
 10
90
 20
548.767
 30
0
 11
87.2414
 21
548.767
 31
0
  0
ARC
  5
BD8
330
A02
100
AcDbEntity
  8
Shape2DView004
100
AcDbCircle
 10
21.7967
 20
745.947
 30
0
 40
0.206667
100
AcDbArc
 50
-60
 51
90
  0
ARC
  5
BD9
330
A02
100
AcDbEntity
  8
Shape2DView004
100
AcDbCircle
 10
21.7967
 20
745.947
 30
0
 40
0.206667
100
AcDbArc
 50
90
 51
150
  0
LINE
  5
BDA
330
A02
100
AcDbEntity
  8
Shape2DView004
100
AcDbLine
 10
12.3823
 20
746.05
 30
0
 11
21.6177
 21
746.05
 31
0
  0
ARC
  5
BDB
330
A02
100
AcDbEntity
  8
Shape2DView004
100
AcDbCircle
 10
12.2033
 20
745.947
 30
0
 40
0.206667
100
AcDbArc
 50
30
 51
90
  0
ARC
  5
BDC
330
A02
100
AcDbEntity
  8
Shape2DView004
100
AcDbCircle
 10
12.2033
 20
745.947
 30
0
 40
0.206667
100
AcDbArc
 50
90
 51
-120
  0
LINE
  5
BDD
330
A02
100
AcDbEntity
  8
Shape2DView004
100
AcDbLine
 10
12.1
 20
743.232
 30
0
 11
12.1
 21
745.768
 31
0
  0
ARC
  5
BDE
330
A02
100
AcDbEntity
  8
Shape2DView004
100
AcDbCircle
 10
12.2033
 20
743.053
 30
0
 40
0.206667
100
AcDbArc
 50
120
 51
-30
  0
LINE
  5
BDF
330
A02
100
AcDbEntity
  8
Shape2DView004
100
AcDbLine
 10
12.3823
 20
742.95
 30
0
 11
21.6177
 21
742.95
 31
0
  0
ARC
  5
BE0
330
A02
100
AcDbEntity
  8
Shape2DView004
100
AcDbCircle
 10
21.7967
 20
743.053
 30
0
 40
0.206667
100
AcDbArc
 50
-150
 51
60
  0
LINE
  5
BE1
330
A02
100
AcDbEntity
  8
Shape2DView004
100
AcDbLine
 10
21.9
 20
743.232
 30
0
 11
21.9
 21
745.768
 31
0
  0
ARC
  5
BE2
330
A02
100
AcDbEntity
  8
Shape2DView004
100
AcDbCircle
 10
49.7967
 20
745.947
 30
0
 40
0.206667
100
AcDbArc
 50
-60
 51
90
  0
ARC
  5
BE3
330
A02
100
AcDbEntity
  8
Shape2DView004
100
AcDbCircle
 10
49.7967
 20
745.947
 30
0
 40
0.206667
100
AcDbArc
 50
90
 51
150
  0
LINE
  5
BE4
330
A02
100
AcDbEntity
  8
Shape2DView004
100
AcDbLine
 10
40.3823
 20
746.05
 30
0
 11
49.6177
 21
746.05
 31
0
  0
ARC
  5
BE5
330
A02
100
AcDbEntity
  8
Shape2DView004
100
AcDbCircle
 10
40.2033
 20
745.947
 30
0
 40
0.206667
100
AcDbArc
 50
30
 51
90
  0
ARC
  5
BE6
330
A02
100
AcDbEntity
  8
Shape2DView004
100
AcDbCircle
 10
40.2033
 20
745.947
 30
0
 40
0.206667
100
AcDbArc
 50
90
 51
-120
  0
LINE
  5
BE7
330
A02
100
AcDbEntity
  8
Shape2DView004
100
AcDbLine
 10
40.1
 20
743.232
 30
0
 11
40.1
 21
745.768
 31
0
  0
ARC
  5
BE8
330
A02
100
AcDbEntity
  8
Shape2DView004
100
AcDbCircle
 10
40.2033
 20
743.053
 30
0
 40
0.206667
100
AcDbArc
 50
120
 51
-30
  0
LINE
  5
BE9
330
A02
100
AcDbEntity
  8
Shape2DView004
100
AcDbLine
 10
40.3823
 20
742.95
 30
0
 11
49.6177
 21
742.95
 31
0
  0
ARC
  5
BEA
330
A02
100
AcDbEntity
  8
Shape2DView004
100
AcDbCircle
 10
49.7967
 20
743.053
 30
0
 40
0.206667
100
AcDbArc
 50
-150
 51
60
  0
LINE
  5
BEB
330
A02
100
AcDbEntity
  8
Shape2DView004
100
AcDbLine
 10
49.9
 20
743.232
 30
0
 11
49.9
 21
745.768
 31
0
  0
ARC
  5
BEC
330
A02
100
AcDbEntity
  8
Shape2DView004
100
AcDbCircle
 10
77.7967
 20
745.947
 30
0
 40
0.206667
100
AcDbArc
 50
-60
 51
90
  0
ARC
  5
BED
330
A02
100
AcDbEntity
  8
Shape2DView004
100
AcDbCircle
 10
77.7967
 20
745.947
 30
0
 40
0.206667
100
AcDbArc
 50
90
 51
150
  0
LINE
  5
BEE
330
A02
100
AcDbEntity
  8
Shape2DView004
100
AcDbLine
 10
68.3823
 20
746.05
 30
0
 11
77.6177
 21
746.05
 31
0
  0
ARC
  5
BEF
330
A02
100
AcDbEntity
  8
Shape2DView004
100
AcDbCircle
 10
68.2033
 20
745.947
 30
0
 40
0.206667
100
AcDbArc
 50
30
 51
90
  0
ARC
  5
BF0
330
A02
100
AcDbEntity
  8
Shape2DView004
100
AcDbCircle
 10
68.2033
 20
745.947
 30
0
 40
0.206667
100
AcDbArc
 50
90
 51
-120
  0
LINE
  5
BF1
330
A02
100
AcDbEntity
  8
Shape2DView004
100
AcDbLine
 10
68.1
 20
743.232
 30
0
 11
68.1
 21
745.768
 31
0
  0
ARC
  5
BF2
330
A02
100
AcDbEntity
  8
Shape2DView004
100
AcDbCircle
 10
68.2033
 20
743.053
 30
0
 40
0.206667
100
AcDbArc
 50
120
 51
-30
  0
LINE
  5
BF3
330
A02
100
AcDbEntity
  8
Shape2DView004
100
AcDbLine
 10
68.3823
 20
742.95
 30
0
 11
77.6177
 21
742.95
 31
0
  0
ARC
  5
BF4
330
A02
100
AcDbEntity
  8
Shape2DView004
100
AcDbCircle
 10
77.7967
 20
743.053
 30
0
 40
0.206667
100
AcDbArc
 50
-150
 51
60
  0
LINE
  5
BF5
330
A02
100
AcDbEntity
  8
Shape2DView004
100
AcDbLine
 10
77.9
 20
743.232
 30
0
 11
77.9
 21
745.768
 31
0
  0
LINE
  5
BF6
330
A02
100
AcDbEntity
  8
Shape2DView005
100
AcDbLine
 10
103
 20
541
 30
0
 11
109.317
 21
541
 31
0
  0
LINE
  5
BF7
330
A02
100
AcDbEntity
  8
Shape2DView005
100
AcDbLine
 10
109.317
 20
541
 30
0
 11
109.317
 21
538
 31
0
  0
LINE
  5
BF8
330
A02
100
AcDbEntity
  8
Shape2DView005
100
AcDbLine
 10
103
 20
548.567
 30
0
 11
103
 21
541
 31
0
  0
LINE
  5
BF9
330
A02
100
AcDbEntity
  8
Shape2DView005
100
AcDbLine
 10
119.517
 20
538
 30
0
 11
109.317
 21
538
 31
0
  0
LINE
  5
BFA
330
A02
100
AcDbEntity
  8
Shape2DView005
100
AcDbLine
 10
103
 20
548.567
 30
0
 11
100
 21
548.567
 31
0
  0
LINE
  5
BFB
330
A02
100
AcDbEntity
  8
Shape2DView005
100
AcDbLine
 10
119.517
 20
541
 30
0
 11
119.517
 21
538
 31
0
  0
LINE
  5
BFC
330
A02
100
AcDbEntity
  8
Shape2DView005
100
AcDbLine
 10
119.517
 20
541
 30
0
 11
132.15
 21
541
 31
0
  0
LINE
  5
BFD
330
A02
100
AcDbEntity
  8
Shape2DView005
100
AcDbLine
 10
132.15
 20
541
 30
0
 11
132.15
 21
538
 31
0
  0
LINE
  5
BFE
330
A02
100
AcDbEntity
  8
Shape2DView005
100
AcDbLine
 10
142.35
 20
538
 30
0
 11
132.15
 21
538
 31
0
  0
LINE
  5
BFF
330
A02
100
AcDbEntity
  8
Shape2DView005
100
AcDbLine
 10
142.35
 20
541
 30
0
 11
142.35
 21
538
 31
0
  0
LINE
  5
C00
330
A02
100
AcDbEntity
  8
Shape2DView005
100
AcDbLine
 10
142.35
 20
541
 30
0
 11
154.983
 21
541
 31
0
  0
LINE
  5
C01
330
A02
100
AcDbEntity
  8
Shape2DView005
100
AcDbLine
 10
154.983
 20
541
 30
0
 11
154.983
 21
538
 31
0
  0
LINE
  5
C02
330
A02
100
AcDbEntity
  8
Shape2DView005
100
AcDbLine
 10
165.183
 20
538
 30
0
 11
154.983
 21
538
 31
0
  0
LINE
  5
C03
330
A02
100
AcDbEntity
  8
Shape2DView005
100
AcDbLine
 10
165.183
 20
541
 30
0
 11
165.183
 21
538
 31
0
  0
LINE
  5
C04
330
A02
100
AcDbEntity
  8
Shape2DView005
100
AcDbLine
 10
165.183
 20
541
 30
0
 11
177.817
 21
541
 31
0
  0
LINE
  5
C05
330
A02
100
AcDbEntity
  8
Shape2DView005
100
AcDbLine
 10
177.817
 20
541
 30
0
 11
177.817
 21
538
 31
0
  0
LINE
  5
C06
330
A02
100
AcDbEntity
  8
Shape2DView005
100
AcDbLine
 10
188.017
 20
538
 30
0
 11
177.817
 21
538
 31
0
  0
LINE
  5
C07
330
A02
100
AcDbEntity
  8
Shape2DView005
100
AcDbLine
 10
188.017
 20
541
 30
0
 11
188.017
 21
538
 31
0
  0
LINE
  5
C08
330
A02
100
AcDbEntity
  8
Shape2DView005
100
AcDbLine
 10
188.017
 20
541
 30
0
 11
200.65
 21
541
 31
0
  0
LINE
  5
C09
330
A02
100
AcDbEntity
  8
Shape2DView005
100
AcDbLine
 10
200.65
 20
541
 30
0
 11
200.65
 21
538
 31
0
  0
LINE
  5
C0A
330
A02
100
AcDbEntity
  8
Shape2DView005
100
AcDbLine
 10
210.85
 20
538
 30
0
 11
200.65
 21
538
 31
0
  0
LINE
  5
C0B
330
A02
100
AcDbEntity
  8
Shape2DView005
100
AcDbLine
 10
210.85
 20
541
 30
0
 11
210.85
 21
538
 31
0
  0
LINE
  5
C0C
330
A02
100
AcDbEntity
  8
Shape2DView005
100
AcDbLine
 10
210.85
 20
541
 30
0
 11
223.483
 21
541
 31
0
  0
LINE
  5
C0D
330
A02
100
AcDbEntity
  8
Shape2DView005
100
AcDbLine
 10
223.483
 20
541
 30
0
 11
223.483
 21
538
 31
0
  0
LINE
  5
C0E
330
A02
100
AcDbEntity
  8
Shape2DView005
100
AcDbLine
 10
233.683
 20
538
 30
0
 11
223.483
 21
538
 31
0
  0
LINE
  5
C0F
330
A02
100
AcDbEntity
  8
Shape2DView005
100
AcDbLine
 10
233.683
 20
541
 30
0
 11
233.683
 21
538
 31
0
  0
LINE
  5
C10
330
A02
100
AcDbEntity
  8
Shape2DView005
100
AcDbLine
 10
233.683
 20
541
 30
0
 11
246.317
 21
541
 31
0
  0
LINE
  5
C11
330
A02
100
AcDbEntity
  8
Shape2DView005
100
AcDbLine
 10
246.317
 20
541
 30
0
 11
246.317
 21
538
 31
0
  0
LINE
  5
C12
330
A02
100
AcDbEntity
  8
Shape2DView005
100
AcDbLine
 10
256.517
 20
538
 30
0
 11
246.317
 21
538
 31
0
  0
LINE
  5
C13
330
A02
100
AcDbEntity
  8
Shape2DView005
100
AcDbLine
 10
256.517
 20
541
 30
0
 11
256.517
 21
538
 31
0
  0
LINE
  5
C14
330
A02
100
AcDbEntity
  8
Shape2DView005
100
AcDbLine
 10
256.517
 20
541
 30
0
 11
269.15
 21
541
 31
0
  0
LINE
  5
C15
330
A02
100
AcDbEntity
  8
Shape2DView005
100
AcDbLine
 10
269.15
 20
541
 30
0
 11
269.15
 21
538
 31
0
  0
LINE
  5
C16
330
A02
100
AcDbEntity
  8
Shape2DView005
100
AcDbLine
 10
279.35
 20
538
 30
0
 11
269.15
 21
538
 31
0
  0
LINE
  5
C17
330
A02
100
AcDbEntity
  8
Shape2DView005
100
AcDbLine
 10
279.35
 20
541
 30
0
 11
279.35
 21
538
 31
0
  0
LINE
  5
C18
330
A02
100
AcDbEntity
  8
Shape2DView005
100
AcDbLine
 10
279.35
 20
541
 30
0
 11
291.983
 21
541
 31
0
  0
LINE
  5
C19
330
A02
100
AcDbEntity
  8
Shape2DView005
100
AcDbLine
 10
291.983
 20
541
 30
0
 11
291.983
 21
538
 31
0
  0
LINE
  5
C1A
330
A02
100
AcDbEntity
  8
Shape2DView005
100
AcDbLine
 10
302.183
 20
538
 30
0
 11
291.983
 21
538
 31
0
  0
LINE
  5
C1B
330
A02
100
AcDbEntity
  8
Shape2DView005
100
AcDbLine
 10
302.183
 20
541
 30
0
 11
302.183
 21
538
 31
0
  0
LINE
  5
C1C
330
A02
100
AcDbEntity
  8
Shape2DView005
100
AcDbLine
 10
302.183
 20
541
 30
0
 11
314.817
 21
541
 31
0
  0
LINE
  5
C1D
330
A02
100
AcDbEntity
  8
Shape2DView005
100
AcDbLine
 10
314.817
 20
541
 30
0
 11
314.817
 21
538
 31
0
  0
LINE
  5
C1E
330
A02
100
AcDbEntity
  8
Shape2DView005
100
AcDbLine
 10
325.017
 20
538
 30
0
 11
314.817
 21
538
 31
0
  0
LINE
  5
C1F
330
A02
100
AcDbEntity
  8
Shape2DView005
100
AcDbLine
 10
325.017
 20
541
 30
0
 11
325.017
 21
538
 31
0
  0
LINE
  5
C20
330
A02
100
AcDbEntity
  8
Shape2DView005
100
AcDbLine
 10
325.017
 20
541
 30
0
 11
337.65
 21
541
 31
0
  0
LINE
  5
C21
330
A02
100
AcDbEntity
  8
Shape2DView005
100
AcDbLine
 10
337.65
 20
541
 30
0
 11
337.65
 21
538
 31
0
  0
LINE
  5
C22
330
A02
100
AcDbEntity
  8
Shape2DView005
100
AcDbLine
 10
347.85
 20
538
 30
0
 11
337.65
 21
538
 31
0
  0
LINE
  5
C23
330
A02
100
AcDbEntity
  8
Shape2DView005
100
AcDbLine
 10
347.85
 20
541
 30
0
 11
347.85
 21
538
 31
0
  0
LINE
  5
C24
330
A02
100
AcDbEntity
  8
Shape2DView005
100
AcDbLine
 10
347.85
 20
541
 30
0
 11
360.483
 21
541
 31
0
  0
LINE
  5
C25
330
A02
100
AcDbEntity
  8
Shape2DView005
100
AcDbLine
 10
360.483
 20
541
 30
0
 11
360.483
 21
538
 31
0
  0
LINE
  5
C26
330
A02
100
AcDbEntity
  8
Shape2DView005
100
AcDbLine
 10
370.683
 20
538
 30
0
 11
360.483
 21
538
 31
0
  0
LINE
  5
C27
330
A02
100
AcDbEntity
  8
Shape2DView005
100
AcDbLine
 10
370.683
 20
541
 30
0
 11
370.683
 21
538
 31
0
  0
LINE
  5
C28
330
A02
100
AcDbEntity
  8
Shape2DView005
100
AcDbLine
 10
370.683
 20
541
 30
0
 11
377
 21
541
 31
0
  0
LINE
  5
C29
330
A02
100
AcDbEntity
  8
Shape2DView005
100
AcDbLine
 10
377
 20
541
 30
0
 11
377
 21
548.567
 31
0
  0
LINE
  5
C2A
330
A02
100
AcDbEntity
  8
Shape2DView005
100
AcDbLine
 10
377
 20
548.567
 30
0
 11
380
 21
548.567
 31
0
  0
LINE
  5
C2B
330
A02
100
AcDbEntity
  8
Shape2DView005
100
AcDbLine
 10
380
 20
558.767
 30
0
 11
380
 21
548.567
 31
0
  0
LINE
  5
C2C
330
A02
100
AcDbEntity
  8
Shape2DView005
100
AcDbLine
 10
377
 20
558.767
 30
0
 11
380
 21
558.767
 31
0
  0
LINE
  5
C2D
330
A02
100
AcDbEntity
  8
Shape2DView005
100
AcDbLine
 10
377
 20
558.767
 30
0
 11
377
 21
573.9
 31
0
  0
LINE
  5
C2E
330
A02
100
AcDbEntity
  8
Shape2DView005
100
AcDbLine
 10
377
 20
573.9
 30
0
 11
380
 21
573.9
 31
0
  0
LINE
  5
C2F
330
A02
100
AcDbEntity
  8
Shape2DView005
100
AcDbLine
 10
380
 20
584.1
 30
0
 11
380
 21
573.9
 31
0
  0
LINE
  5
C30
330
A02
100
AcDbEntity
  8
Shape2DView005
100
AcDbLine
 10
377
 20
584.1
 30
0
 11
380
 21
584.1
 31
0
  0
LINE
  5
C31
330
A02
100
AcDbEntity
  8
Shape2DView005
100
AcDbLine
 10
377
 20
584.1
 30
0
 11
377
 21
599.233
 31
0
  0
LINE
  5
C32
330
A02
100
AcDbEntity
  8
Shape2DView005
100
AcDbLine
 10
377
 20
599.233
 30
0
 11
380
 21
599.233
 31
0
  0
LINE
  5
C33
330
A02
100
AcDbEntity
  8
Shape2DView005
100
AcDbLine
 10
380
 20
609.433
 30
0
 11
380
 21
599.233
 31
0
  0
LINE
  5
C34
330
A02
100
AcDbEntity
  8
Shape2DView005
100
AcDbLine
 10
377
 20
609.433
 30
0
 11
380
 21
609.433
 31
0
  0
LINE
  5
C35
330
A02
100
AcDbEntity
  8
Shape2DView005
100
AcDbLine
 10
377
 20
609.433
 30
0
 11
377
 21
624.567
 31
0
  0
LINE
  5
C36
330
A02
100
AcDbEntity
  8
Shape2DView005
100
AcDbLine
 10
377
 20
624.567
 30
0
 11
380
 21
624.567
 31
0
  0
LINE
  5
C37
330
A02
100
AcDbEntity
  8
Shape2DView005
100
AcDbLine
 10
380
 20
634.767
 30
0
 11
380
 21
624.567
 31
0
  0
LINE
  5
C38
330
A02
100
AcDbEntity
  8
Shape2DView005
100
AcDbLine
 10
377
 20
634.767
 30
0
 11
380
 21
634.767
 31
0
  0
LINE
  5
C39
330
A02
100
AcDbEntity
  8
Shape2DView005
100
AcDbLine
 10
377
 20
634.767
 30
0
 11
377
 21
649.9
 31
0
  0
LINE
  5
C3A
330
A02
100
AcDbEntity
  8
Shape2DView005
100
AcDbLine
 10
377
 20
649.9
 30
0
 11
380
 21
649.9
 31
0
  0
LINE
  5
C3B
330
A02
100
AcDbEntity
  8
Shape2DView005
100
AcDbLine
 10
380
 20
660.1
 30
0
 11
380
 21
649.9
 31
0
  0
LINE
  5
C3C
330
A02
100
AcDbEntity
  8
Shape2DView005
100
AcDbLine
 10
377
 20
660.1
 30
0
 11
380
 21
660.1
 31
0
  0
LINE
  5
C3D
330
A02
100
AcDbEntity
  8
Shape2DView005
100
AcDbLine
 10
377
 20
660.1
 30
0
 11
377
 21
675.233
 31
0
  0
LINE
  5
C3E
330
A02
100
AcDbEntity
  8
Shape2DView005
100
AcDbLine
 10
377
 20
675.233
 30
0
 11
380
 21
675.233
 31
0
  0
LINE
  5
C3F
330
A02
100
AcDbEntity
  8
Shape2DView005
100
AcDbLine
 10
380
 20
685.433
 30
0
 11
380
 21
675.233
 31
0
  0
LINE
  5
C40
330
A02
100
AcDbEntity
  8
Shape2DView005
100
AcDbLine
 10
377
 20
685.433
 30
0
 11
380
 21
685.433
 31
0
  0
LINE
  5
C41
330
A02
100
AcDbEntity
  8
Shape2DView005
100
AcDbLine
 10
377
 20
685.433
 30
0
 11
377
 21
700.567
 31
0
  0
LINE
  5
C42
330
A02
100
AcDbEntity
  8
Shape2DView005
100
AcDbLine
 10
377
 20
700.567
 30
0
 11
380
 21
700.567
 31
0
  0
LINE
  5
C43
330
A02
100
AcDbEntity
  8
Shape2DView005
100
AcDbLine
 10
380
 20
710.767
 30
0
 11
380
 21
700.567
 31
0
  0
LINE
  5
C44
330
A02
100
AcDbEntity
  8
Shape2DView005
100
AcDbLine
 10
377
 20
710.767
 30
0
 11
380
 21
710.767
 31
0
  0
LINE
  5
C45
330
A02
100
AcDbEntity
  8
Shape2DView005
100
AcDbLine
 10
377
 20
710.767
 30
0
 11
377
 21
725.9
 31
0
  0
LINE
  5
C46
330
A02
100
AcDbEntity
  8
Shape2DView005
100
AcDbLine
 10
377
 20
725.9
 30
0
 11
380
 21
725.9
 31
0
  0
LINE
  5
C47
330
A02
100
AcDbEntity
  8
Shape2DView005
100
AcDbLine
 10
380
 20
736.1
 30
0
 11
380
 21
725.9
 31
0
  0
LINE
  5
C48
330
A02
100
AcDbEntity
  8
Shape2DView005
100
AcDbLine
 10
377
 20
736.1
 30
0
 11
380
 21
736.1
 31
0
  0
LINE
  5
C49
330
A02
100
AcDbEntity
  8
Shape2DView005
100
AcDbLine
 10
377
 20
736.1
 30
0
 11
377
 21
751.233
 31
0
  0
LINE
  5
C4A
330
A02
100
AcDbEntity
  8
Shape2DView005
100
AcDbLine
 10
377
 20
751.233
 30
0
 11
380
 21
751.233
 31
0
  0
LINE
  5
C4B
330
A02
100
AcDbEntity
  8
Shape2DView005
100
AcDbLine
 10
380
 20
761.433
 30
0
 11
380
 21
751.233
 31
0
  0
LINE
  5
C4C
330
A02
100
AcDbEntity
  8
Shape2DView005
100
AcDbLine
 10
377
 20
761.433
 30
0
 11
380
 21
761.433
 31
0
  0
LINE
  5
C4D
330
A02
100
AcDbEntity
  8
Shape2DView005
100
AcDbLine
 10
377
 20
761.433
 30
0
 11
377
 21
776.567
 31
0
  0
LINE
  5
C4E
330
A02
100
AcDbEntity
  8
Shape2DView005
100
AcDbLine
 10
377
 20
776.567
 30
0
 11
380
 21
776.567
 31
0
  0
LINE
  5
C4F
330
A02
100
AcDbEntity
  8
Shape2DView005
100
AcDbLine
 10
380
 20
786.767
 30
0
 11
380
 21
776.567
 31
0
  0
LINE
  5
C50
330
A02
100
AcDbEntity
  8
Shape2DView005
100
AcDbLine
 10
377
 20
786.767
 30
0
 11
380
 21
786.767
 31
0
  0
LINE
  5
C51
330
A02
100
AcDbEntity
  8
Shape2DView005
100
AcDbLine
 10
377
 20
786.767
 30
0
 11
377
 21
801.9
 31
0
  0
LINE
  5
C52
330
A02
100
AcDbEntity
  8
Shape2DView005
100
AcDbLine
 10
377
 20
801.9
 30
0
 11
380
 21
801.9
 31
0
  0
LINE
  5
C53
330
A02
100
AcDbEntity
  8
Shape2DView005
100
AcDbLine
 10
380
 20
812.1
 30
0
 11
380
 21
801.9
 31
0
  0
LINE
  5
C54
330
A02
100
AcDbEntity
  8
Shape2DView005
100
AcDbLine
 10
377
 20
812.1
 30
0
 11
380
 21
812.1
 31
0
  0
LINE
  5
C55
330
A02
100
AcDbEntity
  8
Shape2DView005
100
AcDbLine
 10
377
 20
812.1
 30
0
 11
377
 21
827.233
 31
0
  0
LINE
  5
C56
330
A02
100
AcDbEntity
  8
Shape2DView005
100
AcDbLine
 10
377
 20
827.233
 30
0
 11
380
 21
827.233
 31
0
  0
LINE
  5
C57
330
A02
100
AcDbEntity
  8
Shape2DView005
100
AcDbLine
 10
380
 20
837.433
 30
0
 11
380
 21
827.233
 31
0
  0
LINE
  5
C58
330
A02
100
AcDbEntity
  8
Shape2DView005
100
AcDbLine
 10
377
 20
837.433
 30
0
 11
380
 21
837.433
 31
0
  0
LINE
  5
C59
330
A02
100
AcDbEntity
  8
Shape2DView005
100
AcDbLine
 10
377
 20
837.433
 30
0
 11
377
 21
845
 31
0
  0
LINE
  5
C5A
330
A02
100
AcDbEntity
  8
Shape2DView005
100
AcDbLine
 10
377
 20
845
 30
0
 11
370.683
 21
845
 31
0
  0
LINE
  5
C5B
330
A02
100
AcDbEntity
  8
Shape2DView005
100
AcDbLine
 10
370.683
 20
845
 30
0
 11
370.683
 21
848
 31
0
  0
LINE
  5
C5C
330
A02
100
AcDbEntity
  8
Shape2DView005
100
AcDbLine
 10
360.483
 20
848
 30
0
 11
370.683
 21
848
 31
0
  0
LINE
  5
C5D
330
A02
100
AcDbEntity
  8
Shape2DView005
100
AcDbLine
 10
360.483
 20
845
 30
0
 11
360.483
 21
848
 31
0
  0
LINE
  5
C5E
330
A02
100
AcDbEntity
  8
Shape2DView005
100
AcDbLine
 10
360.483
 20
845
 30
0
 11
347.85
 21
845
 31
0
  0
LINE
  5
C5F
330
A02
100
AcDbEntity
  8
Shape2DView005
100
AcDbLine
 10
347.85
 20
845
 30
0
 11
347.85
 21
848
 31
0
  0
LINE
  5
C60
330
A02
100
AcDbEntity
  8
Shape2DView005
100
AcDbLine
 10
337.65
 20
848
 30
0
 11
347.85
 21
848
 31
0
  0
LINE
  5
C61
330
A02
100
AcDbEntity
  8
Shape2DView005
100
AcDbLine
 10
337.65
 20
845
 30
0
 11
337.65
 21
848
 31
0
  0
LINE
  5
C62
330
A02
100
AcDbEntity
  8
Shape2DView005
100
AcDbLine
 10
337.65
 20
845
 30
0
 11
325.017
 21
845
 31
0
  0
LINE
  5
C63
330
A02
100
AcDbEntity
  8
Shape2DView005
100
AcDbLine
 10
325.017
 20
845
 30
0
 11
325.017
 21
848
 31
0
  0
LINE
  5
C64
330
A02
100
AcDbEntity
  8
Shape2DView005
100
AcDbLine
 10
314.817
 20
848
 30
0
 11
325.017
 21
848
 31
0
  0
LINE
  5
C65
330
A02
100
AcDbEntity
  8
Shape2DView005
100
AcDbLine
 10
314.817
 20
845
 30
0
 11
314.817
 21
848
 31
0
  0
LINE
  5
C66
330
A02
100
AcDbEntity
  8
Shape2DView005
100
AcDbLine
 10
314.817
 20
845
 30
0
 11
302.183
 21
845
 31
0
  0
LINE
  5
C67
330
A02
100
AcDbEntity
  8
Shape2DView005
100
AcDbLine
 10
302.183
 20
845
 30
0
 11
302.183
 21
848
 31
0
  0
LINE
  5
C68
330
A02
100
AcDbEntity
  8
Shape2DView005
100
AcDbLine
 10
291.983
 20
848
 30
0
 11
302.183
 21
848
 31
0
  0
LINE
  5
C69
330
A02
100
AcDbEntity
  8
Shape2DView005
100
AcDbLine
 10
291.983
 20
845
 30
0
 11
291.983
 21
848
 31
0
  0
LINE
  5
C6A
330
A02
100
AcDbEntity
  8
Shape2DView005
100
AcDbLine
 10
291.983
 20
845
 30
0
 11
279.35
 21
845
 31
0
  0
LINE
  5
C6B
330
A02
100
AcDbEntity
  8
Shape2DView005
100
AcDbLine
 10
279.35
 20
845
 30
0
 11
279.35
 21
848
 31
0
  0
LINE
  5
C6C
330
A02
100
AcDbEntity
  8
Shape2DView005
100
AcDbLine
 10
269.15
 20
848
 30
0
 11
279.35
 21
848
 31
0
  0
LINE
  5
C6D
330
A02
100
AcDbEntity
  8
Shape2DView005
100
AcDbLine
 10
269.15
 20
845
 30
0
 11
269.15
 21
848
 31
0
  0
LINE
  5
C6E
330
A02
100
AcDbEntity
  8
Shape2DView005
100
AcDbLine
 10
269.15
 20
845
 30
0
 11
256.517
 21
845
 31
0
  0
LINE
  5
C6F
330
A02
100
AcDbEntity
  8
Shape2DView005
100
AcDbLine
 10
256.517
 20
845
 30
0
 11
256.517
 21
848
 31
0
  0
LINE
  5
C70
330
A02
100
AcDbEntity
  8
Shape2DView005
100
AcDbLine
 10
246.317
 20
848
 30
0
 11
256.517
 21
848
 31
0
  0
LINE
  5
C71
330
A02
100
AcDbEntity
  8
Shape2DView005
100
AcDbLine
 10
246.317
 20
845
 30
0
 11
246.317
 21
848
 31
0
  0
LINE
  5
C72
330
A02
100
AcDbEntity
  8
Shape2DView005
100
AcDbLine
 10
246.317
 20
845
 30
0
 11
233.683
 21
845
 31
0
  0
LINE
  5
C73
330
A02
100
AcDbEntity
  8
Shape2DView005
100
AcDbLine
 10
233.683
 20
845
 30
0
 11
233.683
 21
848
 31
0
  0
LINE
  5
C74
330
A02
100
AcDbEntity
  8
Shape2DView005
100
AcDbLine
 10
223.483
 20
848
 30
0
 11
233.683
 21
848
 31
0
  0
LINE
  5
C75
330
A02
100
AcDbEntity
  8
Shape2DView005
100
AcDbLine
 10
223.483
 20
845
 30
0
 11
223.483
 21
848
 31
0
  0
LINE
  5
C76
330
A02
100
AcDbEntity
  8
Shape2DView005
100
AcDbLine
 10
223.483
 20
845
 30
0
 11
210.85
 21
845
 31
0
  0
LINE
  5
C77
330
A02
100
AcDbEntity
  8
Shape2DView005
100
AcDbLine
 10
210.85
 20
845
 30
0
 11
210.85
 21
848
 31
0
  0
LINE
  5
C78
330
A02
100
AcDbEntity
  8
Shape2DView005
100
AcDbLine
 10
200.65
 20
848
 30
0
 11
210.85
 21
848
 31
0
  0
LINE
  5
C79
330
A02
100
AcDbEntity
  8
Shape2DView005
100
AcDbLine
 10
200.65
 20
845
 30
0
 11
200.65
 21
848
 31
0
  0
LINE
  5
C7A
330
A02
100
AcDbEntity
  8
Shape2DView005
100
AcDbLine
 10
200.65
 20
845
 30
0
 11
188.017
 21
845
 31
0
  0
LINE
  5
C7B
330
A02
100
AcDbEntity
  8
Shape2DView005
100
AcDbLine
 10
188.017
 20
845
 30
0
 11
188.017
 21
848
 31
0
  0
LINE
  5
C7C
330
A02
100
AcDbEntity
  8
Shape2DView005
100
AcDbLine
 10
177.817
 20
848
 30
0
 11
188.017
 21
848
 31
0
  0
LINE
  5
C7D
330
A02
100
AcDbEntity
  8
Shape2DView005
100
AcDbLine
 10
177.817
 20
845
 30
0
 11
177.817
 21
848
 31
0
  0
LINE
  5
C7E
330
A02
100
AcDbEntity
  8
Shape2DView005
100
AcDbLine
 10
177.817
 20
845
 30
0
 11
165.183
 21
845
 31
0
  0
LINE
  5
C7F
330
A02
100
AcDbEntity
  8
Shape2DView005
100
AcDbLine
 10
165.183
 20
845
 30
0
 11
165.183
 21
848
 31
0
  0
LINE
  5
C80
330
A02
100
AcDbEntity
  8
Shape2DView005
100
AcDbLine
 10
154.983
 20
848
 30
0
 11
165.183
 21
848
 31
0
  0
LINE
  5
C81
330
A02
100
AcDbEntity
  8
Shape2DView005
100
AcDbLine
 10
154.983
 20
845
 30
0
 11
154.983
 21
848
 31
0
  0
LINE
  5
C82
330
A02
100
AcDbEntity
  8
Shape2DView005
100
AcDbLine
 10
154.983
 20
845
 30
0
 11
142.35
 21
845
 31
0
  0
LINE
  5
C83
330
A02
100
AcDbEntity
  8
Shape2DView005
100
AcDbLine
 10
142.35
 20
845
 30
0
 11
142.35
 21
848
 31
0
  0
LINE
  5
C84
330
A02
100
AcDbEntity
  8
Shape2DView005
100
AcDbLine
 10
132.15
 20
848
 30
0
 11
142.35
 21
848
 31
0
  0
LINE
  5
C85
330
A02
100
AcDbEntity
  8
Shape2DView005
100
AcDbLine
 10
132.15
 20
845
 30
0
 11
132.15
 21
848
 31
0
  0
LINE
  5
C86
330
A02
100
AcDbEntity
  8
Shape2DView005
100
AcDbLine
 10
132.15
 20
845
 30
0
 11
119.517
 21
845
 31
0
  0
LINE
  5
C87
330
A02
100
AcDbEntity
  8
Shape2DView005
100
AcDbLine
 10
119.517
 20
845
 30
0
 11
119.517
 21
848
 31
0
  0
LINE
  5
C88
330
A02
100
AcDbEntity
  8
Shape2DView005
100
AcDbLine
 10
109.317
 20
848
 30
0
 11
119.517
 21
848
 31
0
  0
LINE
  5
C89
330
A02
100
AcDbEntity
  8
Shape2DView005
100
AcDbLine
 10
109.317
 20
845
 30
0
 11
109.317
 21
848
 31
0
  0
LINE
  5
C8A
330
A02
100
AcDbEntity
  8
Shape2DView005
100
AcDbLine
 10
109.317
 20
845
 30
0
 11
103
 21
845
 31
0
  0
LINE
  5
C8B
330
A02
100
AcDbEntity
  8
Shape2DView005
100
AcDbLine
 10
103
 20
845
 30
0
 11
103
 21
837.433
 31
0
  0
LINE
  5
C8C
330
A02
100
AcDbEntity
  8
Shape2DView005
100
AcDbLine
 10
103
 20
837.433
 30
0
 11
100
 21
837.433
 31
0
  0
LINE
  5
C8D
330
A02
100
AcDbEntity
  8
Shape2DView005
100
AcDbLine
 10
100
 20
827.233
 30
0
 11
100
 21
837.433
 31
0
  0
LINE
  5
C8E
330
A02
100
AcDbEntity
  8
Shape2DView005
100
AcDbLine
 10
103
 20
827.233
 30
0
 11
100
 21
827.233
 31
0
  0
LINE
  5
C8F
330
A02
100
AcDbEntity
  8
Shape2DView005
100
AcDbLine
 10
103
 20
827.233
 30
0
 11
103
 21
812.1
 31
0
  0
LINE
  5
C90
330
A02
100
AcDbEntity
  8
Shape2DView005
100
AcDbLine
 10
103
 20
812.1
 30
0
 11
100
 21
812.1
 31
0
  0
LINE
  5
C91
330
A02
100
AcDbEntity
  8
Shape2DView005
100
AcDbLine
 10
100
 20
801.9
 30
0
 11
100
 21
812.1
 31
0
  0
LINE
  5
C92
330
A02
100
AcDbEntity
  8
Shape2DView005
100
AcDbLine
 10
103
 20
801.9
 30
0
 11
100
 21
801.9
 31
0
  0
LINE
  5
C93
330
A02
100
AcDbEntity
  8
Shape2DView005
100
AcDbLine
 10
103
 20
801.9
 30
0
 11
103
 21
786.767
 31
0
  0
LINE
  5
C94
330
A02
100
AcDbEntity
  8
Shape2DView005
100
AcDbLine
 10
103
 20
786.767
 30
0
 11
100
 21
786.767
 31
0
  0
LINE
  5
C95
330
A02
100
AcDbEntity
  8
Shape2DView005
100
AcDbLine
 10
100
 20
776.567
 30
0
 11
100
 21
786.767
 31
0
  0
LINE
  5
C96
330
A02
100
AcDbEntity
  8
Shape2DView005
100
AcDbLine
 10
103
 20
776.567
 30
0
 11
100
 21
776.567
 31
0
  0
LINE
  5
C97
330
A02
100
AcDbEntity
  8
Shape2DView005
100
AcDbLine
 10
103
 20
776.567
 30
0
 11
103
 21
761.433
 31
0
  0
LINE
  5
C98
330
A02
100
AcDbEntity
  8
Shape2DView005
100
AcDbLine
 10
103
 20
761.433
 30
0
 11
100
 21
761.433
 31
0
  0
LINE
  5
C99
330
A02
100
AcDbEntity
  8
Shape2DView005
100
AcDbLine
 10
100
 20
751.233
 30
0
 11
100
 21
761.433
 31
0
  0
LINE
  5
C9A
330
A02
100
AcDbEntity
  8
Shape2DView005
100
AcDbLine
 10
103
 20
751.233
 30
0
 11
100
 21
751.233
 31
0
  0
LINE
  5
C9B
330
A02
100
AcDbEntity
  8
Shape2DView005
100
AcDbLine
 10
103
 20
751.233
 30
0
 11
103
 21
736.1
 31
0
  0
LINE
  5
C9C
330
A02
100
AcDbEntity
  8
Shape2DView005
100
AcDbLine
 10
103
 20
736.1
 30
0
 11
100
 21
736.1
 31
0
  0
LINE
  5
C9D
330
A02
100
AcDbEntity
  8
Shape2DView005
100
AcDbLine
 10
100
 20
725.9
 30
0
 11
100
 21
736.1
 31
0
  0
LINE
  5
C9E
330
A02
100
AcDbEntity
  8
Shape2DView005
100
AcDbLine
 10
103
 20
725.9
 30
0
 11
100
 21
725.9
 31
0
  0
LINE
  5
C9F
330
A02
100
AcDbEntity
  8
Shape2DView005
100
AcDbLine
 10
103
 20
725.9
 30
0
 11
103
 21
710.767
 31
0
  0
LINE
  5
CA0
330
A02
100
AcDbEntity
  8
Shape2DView005
100
AcDbLine
 10
103
 20
710.767
 30
0
 11
100
 21
710.767
 31
0
  0
LINE
  5
CA1
330
A02
100
AcDbEntity
  8
Shape2DView005
100
AcDbLine
 10
100
 20
700.567
 30
0
 11
100
 21
710.767
 31
0
  0
LINE
  5
CA2
330
A02
100
AcDbEntity
  8
Shape2DView005
100
AcDbLine
 10
103
 20
700.567
 30
0
 11
100
 21
700.567
 31
0
  0
LINE
  5
CA3
330
A02
100
AcDbEntity
  8
Shape2DView005
100
AcDbLine
 10
103
 20
700.567
 30
0
 11
103
 21
685.433
 31
0
  0
LINE
  5
CA4
330
A02
100
AcDbEntity
  8
Shape2DView005
100
AcDbLine
 10
103
 20
685.433
 30
0
 11
100
 21
685.433
 31
0
  0
LINE
  5
CA5
330
A02
100
AcDbEntity
  8
Shape2DView005
100
AcDbLine
 10
100
 20
675.233
 30
0
 11
100
 21
685.433
 31
0
  0
LINE
  5
CA6
330
A02
100
AcDbEntity
  8
Shape2DView005
100
AcDbLine
 10
103
 20
675.233
 30
0
 11
100
 21
675.233
 31
0
  0
LINE
  5
CA7
330
A02
100
AcDbEntity
  8
Shape2DView005
100
AcDbLine
 10
103
 20
675.233
 30
0
 11
103
 21
660.1
 31
0
  0
LINE
  5
CA8
330
A02
100
AcDbEntity
  8
Shape2DView005
100
AcDbLine
 10
103
 20
660.1
 30
0
 11
100
 21
660.1
 31
0
  0
LINE
  5
CA9
330
A02
100
AcDbEntity
  8
Shape2DView005
100
AcDbLine
 10
100
 20
649.9
 30
0
 11
100
 21
660.1
 31
0
  0
LINE
  5
CAA
330
A02
100
AcDbEntity
  8
Shape2DView005
100
AcDbLine
 10
103
 20
649.9
 30
0
 11
100
 21
649.9
 31
0
  0
LINE
  5
CAB
330
A02
100
AcDbEntity
  8
Shape2DView005
100
AcDbLine
 10
103
 20
649.9
 30
0
 11
103
 21
634.767
 31
0
  0
LINE
  5
CAC
330
A02
100
AcDbEntity
  8
Shape2DView005
100
AcDbLine
 10
103
 20
634.767
 30
0
 11
100
 21
634.767
 31
0
  0
LINE
  5
CAD
330
A02
100
AcDbEntity
  8
Shape2DView005
100
AcDbLine
 10
100
 20
624.567
 30
0
 11
100
 21
634.767
 31
0
  0
LINE
  5
CAE
330
A02
100
AcDbEntity
  8
Shape2DView005
100
AcDbLine
 10
103
 20
624.567
 30
0
 11
100
 21
624.567
 31
0
  0
LINE
  5
CAF
330
A02
100
AcDbEntity
  8
Shape2DView005
100
AcDbLine
 10
103
 20
624.567
 30
0
 11
103
 21
609.433
 31
0
  0
LINE
  5
CB0
330
A02
100
AcDbEntity
  8
Shape2DView005
100
AcDbLine
 10
103
 20
609.433
 30
0
 11
100
 21
609.433
 31
0
  0
LINE
  5
CB1
330
A02
100
AcDbEntity
  8
Shape2DView005
100
AcDbLine
 10
100
 20
599.233
 30
0
 11
100
 21
609.433
 31
0
  0
LINE
  5
CB2
330
A02
100
AcDbEntity
  8
Shape2DView005
100
AcDbLine
 10
103
 20
599.233
 30
0
 11
100
 21
599.233
 31
0
  0
LINE
  5
CB3
330
A02
100
AcDbEntity
  8
Shape2DView005
100
AcDbLine
 10
103
 20
599.233
 30
0
 11
103
 21
584.1
 31
0
  0
LINE
  5
CB4
330
A02
100
AcDbEntity
  8
Shape2DView005
100
AcDbLine
 10
103
 20
584.1
 30
0
 11
100
 21
584.1
 31
0
  0
LINE
  5
CB5
330
A02
100
AcDbEntity
  8
Shape2DView005
100
AcDbLine
 10
100
 20
573.9
 30
0
 11
100
 21
584.1
 31
0
  0
LINE
  5
CB6
330
A02
100
AcDbEntity
  8
Shape2DView005
100
AcDbLine
 10
103
 20
573.9
 30
0
 11
100
 21
573.9
 31
0
  0
LINE
  5
CB7
330
A02
100
AcDbEntity
  8
Shape2DView005
100
AcDbLine
 10
103
 20
573.9
 30
0
 11
103
 21
558.767
 31
0
  0
LINE
  5
CB8
330
A02
100
AcDbEntity
  8
Shape2DView005
100
AcDbLine
 10
103
 20
558.767
 30
0
 11
100
 21
558.767
 31
0
  0
LINE
  5
CB9
330
A02
100
AcDbEntity
  8
Shape2DView005
100
AcDbLine
 10
100
 20
548.567
 30
0
 11
100
 21
558.767
 31
0
  0
LINE
  5
CBA
330
A02
100
AcDbEntity
  8
Shape2DView006
100
AcDbLine
 10
0
 20
861
 30
0
 11
0
 21
867.517
 31
0
  0
LINE
  5
CBB
330
A02
100
AcDbEntity
  8
Shape2DView006
100
AcDbLine
 10
-1.33227e-15
 20
867.517
 30
0
 11
2.75858
 21
867.517
 31
0
  0
LINE
  5
CBC
330
A02
100
AcDbEntity
  8
Shape2DView006
100
AcDbLine
 10
9.9
 20
861
 30
0
 11
0
 21
861
 31
0
  0
LINE
  5
CBD
330
A02
100
AcDbEntity
  8
Shape2DView006
100
AcDbLine
 10
9.9
 20
861
 30
0
 11
9.9
 21
858
 31
0
  0
LINE
  5
CBE
330
A02
100
AcDbEntity
  8
Shape2DView006
100
AcDbLine
 10
9.9
 20
858
 30
0
 11
20.1
 21
858
 31
0
  0
LINE
  5
CBF
330
A02
100
AcDbEntity
  8
Shape2DView006
100
AcDbLine
 10
39.9
 20
861
 30
0
 11
20.1
 21
861
 31
0
  0
LINE
  5
CC0
330
A02
100
AcDbEntity
  8
Shape2DView006
100
AcDbLine
 10
20.1
 20
861
 30
0
 11
20.1
 21
858
 31
0
  0
LINE
  5
CC1
330
A02
100
AcDbEntity
  8
Shape2DView006
100
AcDbLine
 10
39.9
 20
861
 30
0
 11
39.9
 21
858
 31
0
  0
LINE
  5
CC2
330
A02
100
AcDbEntity
  8
Shape2DView006
100
AcDbLine
 10
39.9
 20
858
 30
0
 11
50.1
 21
858
 31
0
  0
LINE
  5
CC3
330
A02
100
AcDbEntity
  8
Shape2DView006
100
AcDbLine
 10
69.9
 20
861
 30
0
 11
50.1
 21
861
 31
0
  0
LINE
  5
CC4
330
A02
100
AcDbEntity
  8
Shape2DView006
100
AcDbLine
 10
50.1
 20
861
 30
0
 11
50.1
 21
858
 31
0
  0
LINE
  5
CC5
330
A02
100
AcDbEntity
  8
Shape2DView006
100
AcDbLine
 10
69.9
 20
861
 30
0
 11
69.9
 21
858
 31
0
  0
LINE
  5
CC6
330
A02
100
AcDbEntity
  8
Shape2DView006
100
AcDbLine
 10
69.9
 20
858
 30
0
 11
80.1
 21
858
 31
0
  0
LINE
  5
CC7
330
A02
100
AcDbEntity
  8
Shape2DView006
100
AcDbLine
 10
90
 20
861
 30
0
 11
80.1
 21
861
 31
0
  0
LINE
  5
CC8
330
A02
100
AcDbEntity
  8
Shape2DView006
100
AcDbLine
 10
90
 20
1135
 30
0
 11
90
 21
861
 31
0
  0
LINE
  5
CC9
330
A02
100
AcDbEntity
  8
Shape2DView006
100
AcDbLine
 10
80.1
 20
1135
 30
0
 11
90
 21
1135
 31
0
  0
LINE
  5
CCA
330
A02
100
AcDbEntity
  8
Shape2DView006
100
AcDbLine
 10
80.1
 20
861
 30
0
 11
80.1
 21
858
 31
0
  0
LINE
  5
CCB
330
A02
100
AcDbEntity
  8
Shape2DView006
100
AcDbLine
 10
80.1
 20
1135
 30
0
 11
80.1
 21
1138
 31
0
  0
LINE
  5
CCC
330
A02
100
AcDbEntity
  8
Shape2DView006
100
AcDbLine
 10
69.9
 20
1138
 30
0
 11
80.1
 21
1138
 31
0
  0
LINE
  5
CCD
330
A02
100
AcDbEntity
  8
Shape2DView006
100
AcDbLine
 10
69.9
 20
1135
 30
0
 11
69.9
 21
1138
 31
0
  0
LINE
  5
CCE
330
A02
100
AcDbEntity
  8
Shape2DView006
100
AcDbLine
 10
50.1
 20
1135
 30
0
 11
69.9
 21
1135
 31
0
  0
LINE
  5
CCF
330
A02
100
AcDbEntity
  8
Shape2DView006
100
AcDbLine
 10
50.1
 20
1135
 30
0
 11
50.1
 21
1138
 31
0
  0
LINE
  5
CD0
330
A02
100
AcDbEntity
  8
Shape2DView006
100
AcDbLine
 10
39.9
 20
1138
 30
0
 11
50.1
 21
1138
 31
0
  0
LINE
  5
CD1
330
A02
100
AcDbEntity
  8
Shape2DView006
100
AcDbLine
 10
39.9
 20
1135
 30
0
 11
39.9
 21
1138
 31
0
  0
LINE
  5
CD2
330
A02
100
AcDbEntity
  8
Shape2DView006
100
AcDbLine
 10
20.1
 20
1135
 30
0
 11
39.9
 21
1135
 31
0
  0
LINE
  5
CD3
330
A02
100
AcDbEntity
  8
Shape2DView006
100
AcDbLine
 10
20.1
 20
1135
 30
0
 11
20.1
 21
1138
 31
0
  0
LINE
  5
CD4
330
A02
100
AcDbEntity
  8
Shape2DView006
100
AcDbLine
 10
9.9
 20
1138
 30
0
 11
20.1
 21
1138
 31
0
  0
LINE
  5
CD5
330
A02
100
AcDbEntity
  8
Shape2DView006
100
AcDbLine
 10
9.9
 20
1135
 30
0
 11
9.9
 21
1138
 31
0
  0
LINE
  5
CD6
330
A02
100
AcDbEntity
  8
Shape2DView006
100
AcDbLine
 10
0
 20
1135
 30
0
 11
9.9
 21
1135
 31
0
  0
LINE
  5
CD7
330
A02
100
AcDbEntity
  8
Shape2DView006
100
AcDbLine
 10
0
 20
1128.48
 30
0
 11
0
 21
1135
 31
0
  0
LINE
  5
CD8
330
A02
100
AcDbEntity
  8
Shape2DView006
100
AcDbLine
 10
-1.33227e-15
 20
1128.48
 30
0
 11
2.75858
 21
1128.48
 31
0
  0
ARC
  5
CD9
330
A02
100
AcDbEntity
  8
Shape2DView006
100
AcDbCircle
 10
2.94333
 20
1128.38
 30
0
 40
0.213333
100
AcDbArc
 50
0
 51
150
  0
ARC
  5
CDA
330
A02
100
AcDbEntity
  8
Shape2DView006
100
AcDbCircle
 10
2.94333
 20
1128.38
 30
0
 40
0.213333
100
AcDbArc
 50
-60
 51
0
  0
LINE
  5
CDB
330
A02
100
AcDbEntity
  8
Shape2DView006
100
AcDbLine
 10
3.05
 20
1128.19
 30
0
 11
3.05
 21
1118.97
 31
0
  0
ARC
  5
CDC
330
A02
100
AcDbEntity
  8
Shape2DView006
100
AcDbCircle
 10
2.94333
 20
1118.79
 30
0
 40
0.213333
100
AcDbArc
 50
0
 51
60
  0
ARC
  5
CDD
330
A02
100
AcDbEntity
  8
Shape2DView006
100
AcDbCircle
 10
2.94333
 20
1118.79
 30
0
 40
0.213333
100
AcDbArc
 50
-150
 51
0
  0
LINE
  5
CDE
330
A02
100
AcDbEntity
  8
Shape2DView006
100
AcDbLine
 10
-1.33227e-15
 20
1118.68
 30
0
 11
2.75858
 21
1118.68
 31
0
  0
LINE
  5
CDF
330
A02
100
AcDbEntity
  8
Shape2DView006
100
AcDbLine
 10
0
 20
1105.65
 30
0
 11
0
 21
1118.68
 31
0
  0
LINE
  5
CE0
330
A02
100
AcDbEntity
  8
Shape2DView006
100
AcDbLine
 10
-1.33227e-15
 20
1105.65
 30
0
 11
2.75858
 21
1105.65
 31
0
  0
ARC
  5
CE1
330
A02
100
AcDbEntity
  8
Shape2DView006
100
AcDbCircle
 10
2.94333
 20
1105.54
 30
0
 40
0.213333
100
AcDbArc
 50
0
 51
150
  0
ARC
  5
CE2
330
A02
100
AcDbEntity
  8
Shape2DView006
100
AcDbCircle
 10
2.94333
 20
1105.54
 30
0
 40
0.213333
100
AcDbArc
 50
-60
 51
0
  0
LINE
  5
CE3
330
A02
100
AcDbEntity
  8
Shape2DView006
100
AcDbLine
 10
3.05
 20
1105.36
 30
0
 11
3.05
 21
1096.14
 31
0
  0
ARC
  5
CE4
330
A02
100
AcDbEntity
  8
Shape2DView006
100
AcDbCircle
 10
2.94333
 20
1095.96
 30
0
 40
0.213333
100
AcDbArc
 50
0
 51
60
  0
ARC
  5
CE5
330
A02
100
AcDbEntity
  8
Shape2DView006
100
AcDbCircle
 10
2.94333
 20
1095.96
 30
0
 40
0.213333
100
AcDbArc
 50
-150
 51
0
  0
LINE
  5
CE6
330
A02
100
AcDbEntity
  8
Shape2DView006
100
AcDbLine
 10
-1.33227e-15
 20
1095.85
 30
0
 11
2.75858
 21
1095.85
 31
0
  0
LINE
  5
CE7
330
A02
100
AcDbEntity
  8
Shape2DView006
100
AcDbLine
 10
0
 20
1082.82
 30
0
 11
0
 21
1095.85
 31
0
  0
LINE
  5
CE8
330
A02
100
AcDbEntity
  8
Shape2DView006
100
AcDbLine
 10
-1.33227e-15
 20
1082.82
 30
0
 11
2.75858
 21
1082.82
 31
0
  0
ARC
  5
CE9
330
A02
100
AcDbEntity
  8
Shape2DView006
100
AcDbCircle
 10
2.94333
 20
1082.71
 30
0
 40
0.213333
100
AcDbArc
 50
0
 51
150
  0
ARC
  5
CEA
330
A02
100
AcDbEntity
  8
Shape2DView006
100
AcDbCircle
 10
2.94333
 20
1082.71
 30
0
 40
0.213333
100
AcDbArc
 50
-60
 51
0
  0
LINE
  5
CEB
330
A02
100
AcDbEntity
  8
Shape2DView006
100
AcDbLine
 10
3.05
 20
1082.53
 30
0
 11
3.05
 21
1073.31
 31
0
  0
ARC
  5
CEC
330
A02
100
AcDbEntity
  8
Shape2DView006
100
AcDbCircle
 10
2.94333
 20
1073.12
 30
0
 40
0.213333
100
AcDbArc
 50
0
 51
60
  0
ARC
  5
CED
330
A02
100
AcDbEntity
  8
Shape2DView006
100
AcDbCircle
 10
2.94333
 20
1073.12
 30
0
 40
0.213333
100
AcDbArc
 50
-150
 51
0
  0
LINE
  5
CEE
330
A02
100
AcDbEntity
  8
Shape2DView006
100
AcDbLine
 10
-1.33227e-15
 20
1073.02
 30
0
 11
2.75858
 21
1073.02
 31
0
  0
LINE
  5
CEF
330
A02
100
AcDbEntity
  8
Shape2DView006
100
AcDbLine
 10
0
 20
1059.98
 30
0
 11
0
 21
1073.02
 31
0
  0
LINE
  5
CF0
330
A02
100
AcDbEntity
  8
Shape2DView006
100
AcDbLine
 10
-1.33227e-15
 20
1059.98
 30
0
 11
2.75858
 21
1059.98
 31
0
  0
ARC
  5
CF1
330
A02
100
AcDbEntity
  8
Shape2DView006
100
AcDbCircle
 10
2.94333
 20
1059.88
 30
0
 40
0.213333
100
AcDbArc
 50
0
 51
150
  0
ARC
  5
CF2
330
A02
100
AcDbEntity
  8
Shape2DView006
100
AcDbCircle
 10
2.94333
 20
1059.88
 30
0
 40
0.213333
100
AcDbArc
 50
-60
 51
0
  0
LINE
  5
CF3
330
A02
100
AcDbEntity
  8
Shape2DView006
100
AcDbLine
 10
3.05
 20
1059.69
 30
0
 11
3.05
 21
1050.47
 31
0
  0
ARC
  5
CF4
330
A02
100
AcDbEntity
  8
Shape2DView006
100
AcDbCircle
 10
2.94333
 20
1050.29
 30
0
 40
0.213333
100
AcDbArc
 50
0
 51
60
  0
ARC
  5
CF5
330
A02
100
AcDbEntity
  8
Shape2DView006
100
AcDbCircle
 10
2.94333
 20
1050.29
 30
0
 40
0.213333
100
AcDbArc
 50
-150
 51
0
  0
LINE
  5
CF6
330
A02
100
AcDbEntity
  8
Shape2DView006
100
AcDbLine
 10
-1.33227e-15
 20
1050.18
 30
0
 11
2.75858
 21
1050.18
 31
0
  0
LINE
  5
CF7
330
A02
100
AcDbEntity
  8
Shape2DView006
100
AcDbLine
 10
0
 20
1037.15
 30
0
 11
0
 21
1050.18
 31
0
  0
LINE
  5
CF8
330
A02
100
AcDbEntity
  8
Shape2DView006
100
AcDbLine
 10
-1.33227e-15
 20
1037.15
 30
0
 11
2.75858
 21
1037.15
 31
0
  0
ARC
  5
CF9
330
A02
100
AcDbEntity
  8
Shape2DView006
100
AcDbCircle
 10
2.94333
 20
1037.04
 30
0
 40
0.213333
100
AcDbArc
 50
0
 51
150
  0
ARC
  5
CFA
330
A02
100
AcDbEntity
  8
Shape2DView006
100
AcDbCircle
 10
2.94333
 20
1037.04
 30
0
 40
0.213333
100
AcDbArc
 50
-60
 51
0
  0
LINE
  5
CFB
330
A02
100
AcDbEntity
  8
Shape2DView006
100
AcDbLine
 10
3.05
 20
1036.86
 30
0
 11
3.05
 21
1027.64
 31
0
  0
ARC
  5
CFC
330
A02
100
AcDbEntity
  8
Shape2DView006
100
AcDbCircle
 10
2.94333
 20
1027.46
 30
0
 40
0.213333
100
AcDbArc
 50
0
 51
60
  0
ARC
  5
CFD
330
A02
100
AcDbEntity
  8
Shape2DView006
100
AcDbCircle
 10
2.94333
 20
1027.46
 30
0
 40
0.213333
100
AcDbArc
 50
-150
 51
0
  0
LINE
  5
CFE
330
A02
100
AcDbEntity
  8
Shape2DView006
100
AcDbLine
 10
-1.33227e-15
 20
1027.35
 30
0
 11
2.75858
 21
1027.35
 31
0
  0
LINE
  5
CFF
330
A02
100
AcDbEntity
  8
Shape2DView006
100
AcDbLine
 10
0
 20
1014.32
 30
0
 11
0
 21
1027.35
 31
0
  0
LINE
  5
D00
330
A02
100
AcDbEntity
  8
Shape2DView006
100
AcDbLine
 10
-1.33227e-15
 20
1014.32
 30
0
 11
2.75858
 21
1014.32
 31
0
  0
ARC
  5
D01
330
A02
100
AcDbEntity
  8
Shape2DView006
100
AcDbCircle
 10
2.94333
 20
1014.21
 30
0
 40
0.213333
100
AcDbArc
 50
0
 51
150
  0
ARC
  5
D02
330
A02
100
AcDbEntity
  8
Shape2DView006
100
AcDbCircle
 10
2.94333
 20
1014.21
 30
0
 40
0.213333
100
AcDbArc
 50
-60
 51
0
  0
LINE
  5
D03
330
A02
100
AcDbEntity
  8
Shape2DView006
100
AcDbLine
 10
3.05
 20
1014.03
 30
0
 11
3.05
 21
1004.81
 31
0
  0
ARC
  5
D04
330
A02
100
AcDbEntity
  8
Shape2DView006
100
AcDbCircle
 10
2.94333
 20
1004.62
 30
0
 40
0.213333
100
AcDbArc
 50
0
 51
60
  0
ARC
  5
D05
330
A02
100
AcDbEntity
  8
Shape2DView006
100
AcDbCircle
 10
2.94333
 20
1004.62
 30
0
 40
0.213333
100
AcDbArc
 50
-150
 51
0
  0
LINE
  5
D06
330
A02
100
AcDbEntity
  8
Shape2DView006
100
AcDbLine
 10
-1.33227e-15
 20
1004.52
 30
0
 11
2.75858
 21
1004.52
 31
0
  0
LINE
  5
D07
330
A02
100
AcDbEntity
  8
Shape2DView006
100
AcDbLine
 10
0
 20
991.483
 30
0
 11
0
 21
1004.52
 31
0
  0
LINE
  5
D08
330
A02
100
AcDbEntity
  8
Shape2DView006
100
AcDbLine
 10
-1.33227e-15
 20
991.483
 30
0
 11
2.75858
 21
991.483
 31
0
  0
ARC
  5
D09
330
A02
100
AcDbEntity
  8
Shape2DView006
100
AcDbCircle
 10
2.94333
 20
991.377
 30
0
 40
0.213333
100
AcDbArc
 50
0
 51
150
  0
ARC
  5
D0A
330
A02
100
AcDbEntity
  8
Shape2DView006
100
AcDbCircle
 10
2.94333
 20
991.377
 30
0
 40
0.213333
100
AcDbArc
 50
-60
 51
0
  0
LINE
  5
D0B
330
A02
100
AcDbEntity
  8
Shape2DView006
100
AcDbLine
 10
3.05
 20
991.192
 30
0
 11
3.05
 21
981.975
 31
0
  0
ARC
  5
D0C
330
A02
100
AcDbEntity
  8
Shape2DView006
100
AcDbCircle
 10
2.94333
 20
981.79
 30
0
 40
0.213333
100
AcDbArc
 50
0
 51
60
  0
ARC
  5
D0D
330
A02
100
AcDbEntity
  8
Shape2DView006
100
AcDbCircle
 10
2.94333
 20
981.79
 30
0
 40
0.213333
100
AcDbArc
 50
-150
 51
0
  0
LINE
  5
D0E
330
A02
100
AcDbEntity
  8
Shape2DView006
100
AcDbLine
 10
-1.33227e-15
 20
981.683
 30
0
 11
2.75858
 21
981.683
 31
0
  0
LINE
  5
D0F
330
A02
100
AcDbEntity
  8
Shape2DView006
100
AcDbLine
 10
0
 20
968.65
 30
0
 11
0
 21
981.683
 31
0
  0
LINE
  5
D10
330
A02
100
AcDbEntity
  8
Shape2DView006
100
AcDbLine
 10
-1.33227e-15
 20
968.65
 30
0
 11
2.75858
 21
968.65
 31
0
  0
ARC
  5
D11
330
A02
100
AcDbEntity
  8
Shape2DView006
100
AcDbCircle
 10
2.94333
 20
968.543
 30
0
 40
0.213333
100
AcDbArc
 50
0
 51
150
  0
ARC
  5
D12
330
A02
100
AcDbEntity
  8
Shape2DView006
100
AcDbCircle
 10
2.94333
 20
968.543
 30
0
 40
0.213333
100
AcDbArc
 50
-60
 51
0
  0
LINE
  5
D13
330
A02
100
AcDbEntity
  8
Shape2DView006
100
AcDbLine
 10
3.05
 20
968.359
 30
0
 11
3.05
 21
959.141
 31
0
  0
ARC
  5
D14
330
A02
100
AcDbEntity
  8
Shape2DView006
100
AcDbCircle
 10
2.94333
 20
958.957
 30
0
 40
0.213333
100
AcDbArc
 50
0
 51
60
  0
ARC
  5
D15
330
A02
100
AcDbEntity
  8
Shape2DView006
100
AcDbCircle
 10
2.94333
 20
958.957
 30
0
 40
0.213333
100
AcDbArc
 50
-150
 51
0
  0
LINE
  5
D16
330
A02
100
AcDbEntity
  8
Shape2DView006
100
AcDbLine
 10
-1.33227e-15
 20
958.85
 30
0
 11
2.75858
 21
958.85
 31
0
  0
LINE
  5
D17
330
A02
100
AcDbEntity
  8
Shape2DView006
100
AcDbLine
 10
0
 20
945.817
 30
0
 11
0
 21
958.85
 31
0
  0
LINE
  5
D18
330
A02
100
AcDbEntity
  8
Shape2DView006
100
AcDbLine
 10
-1.33227e-15
 20
945.817
 30
0
 11
2.75858
 21
945.817
 31
0
  0
ARC
  5
D19
330
A02
100
AcDbEntity
  8
Shape2DView006
100
AcDbCircle
 10
2.94333
 20
945.71
 30
0
 40
0.213333
100
AcDbArc
 50
0
 51
150
  0
ARC
  5
D1A
330
A02
100
AcDbEntity
  8
Shape2DView006
100
AcDbCircle
 10
2.94333
 20
945.71
 30
0
 40
0.213333
100
AcDbArc
 50
-60
 51
0
  0
LINE
  5
D1B
330
A02
100
AcDbEntity
  8
Shape2DView006
100
AcDbLine
 10
3.05
 20
945.525
 30
0
 11
3.05
 21
936.308
 31
0
  0
ARC
  5
D1C
330
A02
100
AcDbEntity
  8
Shape2DView006
100
AcDbCircle
 10
2.94333
 20
936.123
 30
0
 40
0.213333
100
AcDbArc
 50
0
 51
60
  0
ARC
  5
D1D
330
A02
100
AcDbEntity
  8
Shape2DView006
100
AcDbCircle
 10
2.94333
 20
936.123
 30
0
 40
0.213333
100
AcDbArc
 50
-150
 51
0
  0
LINE
  5
D1E
330
A02
100
AcDbEntity
  8
Shape2DView006
100
AcDbLine
 10
-1.33227e-15
 20
936.017
 30
0
 11
2.75858
 21
936.017
 31
0
  0
LINE
  5
D1F
330
A02
100
AcDbEntity
  8
Shape2DView006
100
AcDbLine
 10
0
 20
922.983
 30
0
 11
0
 21
936.017
 31
0
  0
LINE
  5
D20
330
A02
100
AcDbEntity
  8
Shape2DView006
100
AcDbLine
 10
-1.33227e-15
 20
922.983
 30
0
 11
2.75858
 21
922.983
 31
0
  0
ARC
  5
D21
330
A02
100
AcDbEntity
  8
Shape2DView006
100
AcDbCircle
 10
2.94333
 20
922.877
 30
0
 40
0.213333
100
AcDbArc
 50
0
 51
150
  0
ARC
  5
D22
330
A02
100
AcDbEntity
  8
Shape2DView006
100
AcDbCircle
 10
2.94333
 20
922.877
 30
0
 40
0.213333
100
AcDbArc
 50
-60
 51
0
  0
LINE
  5
D23
330
A02
100
AcDbEntity
  8
Shape2DView006
100
AcDbLine
 10
3.05
 20
922.692
 30
0
 11
3.05
 21
913.475
 31
0
  0
ARC
  5
D24
330
A02
100
AcDbEntity
  8
Shape2DView006
100
AcDbCircle
 10
2.94333
 20
913.29
 30
0
 40
0.213333
100
AcDbArc
 50
0
 51
60
  0
ARC
  5
D25
330
A02
100
AcDbEntity
  8
Shape2DView006
100
AcDbCircle
 10
2.94333
 20
913.29
 30
0
 40
0.213333
100
AcDbArc
 50
-150
 51
0
  0
LINE
  5
D26
330
A02
100
AcDbEntity
  8
Shape2DView006
100
AcDbLine
 10
-1.33227e-15
 20
913.183
 30
0
 11
2.75858
 21
913.183
 31
0
  0
LINE
  5
D27
330
A02
100
AcDbEntity
  8
Shape2DView006
100
AcDbLine
 10
0
 20
900.15
 30
0
 11
0
 21
913.183
 31
0
  0
LINE
  5
D28
330
A02
100
AcDbEntity
  8
Shape2DView006
100
AcDbLine
 10
-1.33227e-15
 20
900.15
 30
0
 11
2.75858
 21
900.15
 31
0
  0
ARC
  5
D29
330
A02
100
AcDbEntity
  8
Shape2DView006
100
AcDbCircle
 10
2.94333
 20
900.043
 30
0
 40
0.213333
100
AcDbArc
 50
0
 51
150
  0
ARC
  5
D2A
330
A02
100
AcDbEntity
  8
Shape2DView006
100
AcDbCircle
 10
2.94333
 20
900.043
 30
0
 40
0.213333
100
AcDbArc
 50
-60
 51
0
  0
LINE
  5
D2B
330
A02
100
AcDbEntity
  8
Shape2DView006
100
AcDbLine
 10
3.05
 20
899.859
 30
0
 11
3.05
 21
890.641
 31
0
  0
ARC
  5
D2C
330
A02
100
AcDbEntity
  8
Shape2DView006
100
AcDbCircle
 10
2.94333
 20
890.457
 30
0
 40
0.213333
100
AcDbArc
 50
0
 51
60
  0
ARC
  5
D2D
330
A02
100
AcDbEntity
  8
Shape2DView006
100
AcDbCircle
 10
2.94333
 20
890.457
 30
0
 40
0.213333
100
AcDbArc
 50
-150
 51
0
  0
LINE
  5
D2E
330
A02
100
AcDbEntity
  8
Shape2DView006
100
AcDbLine
 10
-1.33227e-15
 20
890.35
 30
0
 11
2.75858
 21
890.35
 31
0
  0
LINE
  5
D2F
330
A02
100
AcDbEntity
  8
Shape2DView006
100
AcDbLine
 10
0
 20
877.317
 30
0
 11
0
 21
890.35
 31
0
  0
LINE
  5
D30
330
A02
100
AcDbEntity
  8
Shape2DView006
100
AcDbLine
 10
-1.33227e-15
 20
877.317
 30
0
 11
2.75858
 21
877.317
 31
0
  0
ARC
  5
D31
330
A02
100
AcDbEntity
  8
Shape2DView006
100
AcDbCircle
 10
2.94333
 20
877.21
 30
0
 40
0.213333
100
AcDbArc
 50
0
 51
150
  0
ARC
  5
D32
330
A02
100
AcDbEntity
  8
Shape2DView006
100
AcDbCircle
 10
2.94333
 20
877.21
 30
0
 40
0.213333
100
AcDbArc
 50
-60
 51
0
  0
LINE
  5
D33
330
A02
100
AcDbEntity
  8
Shape2DView006
100
AcDbLine
 10
3.05
 20
877.025
 30
0
 11
3.05
 21
867.808
 31
0
  0
ARC
  5
D34
330
A02
100
AcDbEntity
  8
Shape2DView006
100
AcDbCircle
 10
2.94333
 20
867.623
 30
0
 40
0.213333
100
AcDbArc
 50
0
 51
60
  0
ARC
  5
D35
330
A02
100
AcDbEntity
  8
Shape2DView006
100
AcDbCircle
 10
2.94333
 20
867.623
 30
0
 40
0.213333
100
AcDbArc
 50
-150
 51
0
  0
LINE
  5
D36
330
A02
100
AcDbEntity
  8
Shape2DView006
100
AcDbLine
 10
68.1
 20
1000.77
 30
0
 11
68.1
 21
998.232
 31
0
  0
ARC
  5
D37
330
A02
100
AcDbEntity
  8
Shape2DView006
100
AcDbCircle
 10
68.2033
 20
1000.95
 30
0
 40
0.206667
100
AcDbArc
 50
30
 51
-120
  0
LINE
  5
D38
330
A02
100
AcDbEntity
  8
Shape2DView006
100
AcDbLine
 10
77.6177
 20
1001.05
 30
0
 11
68.3823
 21
1001.05
 31
0
  0
ARC
  5
D39
330
A02
100
AcDbEntity
  8
Shape2DView006
100
AcDbCircle
 10
77.7967
 20
1000.95
 30
0
 40
0.206667
100
AcDbArc
 50
-60
 51
150
  0
LINE
  5
D3A
330
A02
100
AcDbEntity
  8
Shape2DView006
100
AcDbLine
 10
77.9
 20
1000.77
 30
0
 11
77.9
 21
998.232
 31
0
  0
ARC
  5
D3B
330
A02
100
AcDbEntity
  8
Shape2DView006
100
AcDbCircle
 10
77.7967
 20
998.053
 30
0
 40
0.206667
100
AcDbArc
 50
-90
 51
60
  0
ARC
  5
D3C
330
A02
100
AcDbEntity
  8
Shape2DView006
100
AcDbCircle
 10
77.7967
 20
998.053
 30
0
 40
0.206667
100
AcDbArc
 50
-150
 51
-90
  0
LINE
  5
D3D
330
A02
100
AcDbEntity
  8
Shape2DView006
100
AcDbLine
 10
77.6177
 20
997.95
 30
0
 11
68.3823
 21
997.95
 31
0
  0
ARC
  5
D3E
330
A02
100
AcDbEntity
  8
Shape2DView006
100
AcDbCircle
 10
68.2033
 20
998.053
 30
0
 40
0.206667
100
AcDbArc
 50
-90
 51
-30
  0
ARC
  5
D3F
330
A02
100
AcDbEntity
  8
Shape2DView006
100
AcDbCircle
 10
68.2033
 20
998.053
 30
0
 40
0.206667
100
AcDbArc
 50
120
 51
-90
  0
LINE
  5
D40
330
A02
100
AcDbEntity
  8
Shape2DView006
100
AcDbLine
 10
12.1
 20
1000.77
 30
0
 11
12.1
 21
998.232
 31
0
  0
ARC
  5
D41
330
A02
100
AcDbEntity
  8
Shape2DView006
100
AcDbCircle
 10
12.2033
 20
1000.95
 30
0
 40
0.206667
100
AcDbArc
 50
30
 51
-120
  0
LINE
  5
D42
330
A02
100
AcDbEntity
  8
Shape2DView006
100
AcDbLine
 10
21.6177
 20
1001.05
 30
0
 11
12.3823
 21
1001.05
 31
0
  0
ARC
  5
D43
330
A02
100
AcDbEntity
  8
Shape2DView006
100
AcDbCircle
 10
21.7967
 20
1000.95
 30
0
 40
0.206667
100
AcDbArc
 50
-60
 51
150
  0
LINE
  5
D44
330
A02
100
AcDbEntity
  8
Shape2DView006
100
AcDbLine
 10
21.9
 20
1000.77
 30
0
 11
21.9
 21
998.232
 31
0
  0
ARC
  5
D45
330
A02
100
AcDbEntity
  8
Shape2DView006
100
AcDbCircle
 10
21.7967
 20
998.053
 30
0
 40
0.206667
100
AcDbArc
 50
-90
 51
60
  0
ARC
  5
D46
330
A02
100
AcDbEntity
  8
Shape2DView006
100
AcDbCircle
 10
21.7967
 20
998.053
 30
0
 40
0.206667
100
AcDbArc
 50
-150
 51
-90
  0
LINE
  5
D47
330
A02
100
AcDbEntity
  8
Shape2DView006
100
AcDbLine
 10
21.6177
 20
997.95
 30
0
 11
12.3823
 21
997.95
 31
0
  0
ARC
  5
D48
330
A02
100
AcDbEntity
  8
Shape2DView006
100
AcDbCircle
 10
12.2033
 20
998.053
 30
0
 40
0.206667
100
AcDbArc
 50
-90
 51
-30
  0
ARC
  5
D49
330
A02
100
AcDbEntity
  8
Shape2DView006
100
AcDbCircle
 10
12.2033
 20
998.053
 30
0
 40
0.206667
100
AcDbArc
 50
120
 51
-90
  0
LINE
  5
D4A
330
A02
100
AcDbEntity
  8
Shape2DView006
100
AcDbLine
 10
40.1
 20
1000.77
 30
0
 11
40.1
 21
998.232
 31
0
  0
ARC
  5
D4B
330
A02
100
AcDbEntity
  8
Shape2DView006
100
AcDbCircle
 10
40.2033
 20
1000.95
 30
0
 40
0.206667
100
AcDbArc
 50
30
 51
-120
  0
LINE
  5
D4C
330
A02
100
AcDbEntity
  8
Shape2DView006
100
AcDbLine
 10
49.6177
 20
1001.05
 30
0
 11
40.3823
 21
1001.05
 31
0
  0
ARC
  5
D4D
330
A02
100
AcDbEntity
  8
Shape2DView006
100
AcDbCircle
 10
49.7967
 20
1000.95
 30
0
 40
0.206667
100
AcDbArc
 50
-60
 51
150
  0
LINE
  5
D4E
330
A02
100
AcDbEntity
  8
Shape2DView006
100
AcDbLine
 10
49.9
 20
1000.77
 30
0
 11
49.9
 21
998.232
 31
0
  0
ARC
  5
D4F
330
A02
100
AcDbEntity
  8
Shape2DView006
100
AcDbCircle
 10
49.7967
 20
998.053
 30
0
 40
0.206667
100
AcDbArc
 50
-90
 51
60
  0
ARC
  5
D50
330
A02
100
AcDbEntity
  8
Shape2DView006
100
AcDbCircle
 10
49.7967
 20
998.053
 30
0
 40
0.206667
100
AcDbArc
 50
-150
 51
-90
  0
LINE
  5
D51
330
A02
100
AcDbEntity
  8
Shape2DView006
100
AcDbLine
 10
49.6177
 20
997.95
 30
0
 11
40.3823
 21
997.95
 31
0
  0
ARC
  5
D52
330
A02
100
AcDbEntity
  8
Shape2DView006
100
AcDbCircle
 10
40.2033
 20
998.053
 30
0
 40
0.206667
100
AcDbArc
 50
-90
 51
-30
  0
ARC
  5
D53
330
A02
100
AcDbEntity
  8
Shape2DView006
100
AcDbCircle
 10
40.2033
 20
998.053
 30
0
 40
0.206667
100
AcDbArc
 50
120
 51
-90
  0
LINE
  5
D54
330
A02
100
AcDbEntity
  8
Shape2DView006
100
AcDbLine
 10
68.1
 20
1070.77
 30
0
 11
68.1
 21
1068.23
 31
0
  0
ARC
  5
D55
330
A02
100
AcDbEntity
  8
Shape2DView006
100
AcDbCircle
 10
68.2033
 20
1070.95
 30
0
 40
0.206667
100
AcDbArc
 50
30
 51
-120
  0
LINE
  5
D56
330
A02
100
AcDbEntity
  8
Shape2DView006
100
AcDbLine
 10
77.6177
 20
1071.05
 30
0
 11
68.3823
 21
1071.05
 31
0
  0
ARC
  5
D57
330
A02
100
AcDbEntity
  8
Shape2DView006
100
AcDbCircle
 10
77.7967
 20
1070.95
 30
0
 40
0.206667
100
AcDbArc
 50
-60
 51
150
  0
LINE
  5
D58
330
A02
100
AcDbEntity
  8
Shape2DView006
100
AcDbLine
 10
77.9
 20
1070.77
 30
0
 11
77.9
 21
1068.23
 31
0
  0
ARC
  5
D59
330
A02
100
AcDbEntity
  8
Shape2DView006
100
AcDbCircle
 10
77.7967
 20
1068.05
 30
0
 40
0.206667
100
AcDbArc
 50
-90
 51
60
  0
ARC
  5
D5A
330
A02
100
AcDbEntity
  8
Shape2DView006
100
AcDbCircle
 10
77.7967
 20
1068.05
 30
0
 40
0.206667
100
AcDbArc
 50
-150
 51
-90
  0
LINE
  5
D5B
330
A02
100
AcDbEntity
  8
Shape2DView006
100
AcDbLine
 10
77.6177
 20
1067.95
 30
0
 11
68.3823
 21
1067.95
 31
0
  0
ARC
  5
D5C
330
A02
100
AcDbEntity
  8
Shape2DView006
100
AcDbCircle
 10
68.2033
 20
1068.05
 30
0
 40
0.206667
100
AcDbArc
 50
-90
 51
-30
  0
ARC
  5
D5D
330
A02
100
AcDbEntity
  8
Shape2DView006
100
AcDbCircle
 10
68.2033
 20
1068.05
 30
0
 40
0.206667
100
AcDbArc
 50
120
 51
-90
  0
LINE
  5
D5E
330
A02
100
AcDbEntity
  8
Shape2DView006
100
AcDbLine
 10
40.1
 20
1070.77
 30
0
 11
40.1
 21
1068.23
 31
0
  0
ARC
  5
D5F
330
A02
100
AcDbEntity
  8
Shape2DView006
100
AcDbCircle
 10
40.2033
 20
1070.95
 30
0
 40
0.206667
100
AcDbArc
 50
30
 51
-120
  0
LINE
  5
D60
330
A02
100
AcDbEntity
  8
Shape2DView006
100
AcDbLine
 10
49.6177
 20
1071.05
 30
0
 11
40.3823
 21
1071.05
 31
0
  0
ARC
  5
D61
330
A02
100
AcDbEntity
  8
Shape2DView006
100
AcDbCircle
 10
49.7967
 20
1070.95
 30
0
 40
0.206667
100
AcDbArc
 50
-60
 51
150
  0
LINE
  5
D62
330
A02
100
AcDbEntity
  8
Shape2DView006
100
AcDbLine
 10
49.9
 20
1070.77
 30
0
 11
49.9
 21
1068.23
 31
0
  0
ARC
  5
D63
330
A02
100
AcDbEntity
  8
Shape2DView006
100
AcDbCircle
 10
49.7967
 20
1068.05
 30
0
 40
0.206667
100
AcDbArc
 50
-90
 51
60
  0
ARC
  5
D64
330
A02
100
AcDbEntity
  8
Shape2DView006
100
AcDbCircle
 10
49.7967
 20
1068.05
 30
0
 40
0.206667
100
AcDbArc
 50
-150
 51
-90
  0
LINE
  5
D65
330
A02
100
AcDbEntity
  8
Shape2DView006
100
AcDbLine
 10
49.6177
 20
1067.95
 30
0
 11
40.3823
 21
1067.95
 31
0
  0
ARC
  5
D66
330
A02
100
AcDbEntity
  8
Shape2DView006
100
AcDbCircle
 10
40.2033
 20
1068.05
 30
0
 40
0.206667
100
AcDbArc
 50
-90
 51
-30
  0
ARC
  5
D67
330
A02
100
AcDbEntity
  8
Shape2DView006
100
AcDbCircle
 10
40.2033
 20
1068.05
 30
0
 40
0.206667
100
AcDbArc
 50
120
 51
-90
  0
LINE
  5
D68
330
A02
100
AcDbEntity
  8
Shape2DView006
100
AcDbLine
 10
12.1
 20
1070.77
 30
0
 11
12.1
 21
1068.23
 31
0
  0
ARC
  5
D69
330
A02
100
AcDbEntity
  8
Shape2DView006
100
AcDbCircle
 10
12.2033
 20
1070.95
 30
0
 40
0.206667
100
AcDbArc
 50
30
 51
-120
  0
LINE
  5
D6A
330
A02
100
AcDbEntity
  8
Shape2DView006
100
AcDbLine
 10
21.6177
 20
1071.05
 30
0
 11
12.3823
 21
1071.05
 31
0
  0
ARC
  5
D6B
330
A02
100
AcDbEntity
  8
Shape2DView006
100
AcDbCircle
 10
21.7967
 20
1070.95
 30
0
 40
0.206667
100
AcDbArc
 50
-60
 51
150
  0
LINE
  5
D6C
330
A02
100
AcDbEntity
  8
Shape2DView006
100
AcDbLine
 10
21.9
 20
1070.77
 30
0
 11
21.9
 21
1068.23
 31
0
  0
ARC
  5
D6D
330
A02
100
AcDbEntity
  8
Shape2DView006
100
AcDbCircle
 10
21.7967
 20
1068.05
 30
0
 40
0.206667
100
AcDbArc
 50
-90
 51
60
  0
ARC
  5
D6E
330
A02
100
AcDbEntity
  8
Shape2DView006
100
AcDbCircle
 10
21.7967
 20
1068.05
 30
0
 40
0.206667
100
AcDbArc
 50
-150
 51
-90
  0
LINE
  5
D6F
330
A02
100
AcDbEntity
  8
Shape2DView006
100
AcDbLine
 10
21.6177
 20
1067.95
 30
0
 11
12.3823
 21
1067.95
 31
0
  0
ARC
  5
D70
330
A02
100
AcDbEntity
  8
Shape2DView006
100
AcDbCircle
 10
12.2033
 20
1068.05
 30
0
 40
0.206667
100
AcDbArc
 50
-90
 51
-30
  0
ARC
  5
D71
330
A02
100
AcDbEntity
  8
Shape2DView006
100
AcDbCircle
 10
12.2033
 20
1068.05
 30
0
 40
0.206667
100
AcDbArc
 50
120
 51
-90
  0
LINE
  5
D72
330
A02
100
AcDbEntity
  8
Shape2DView007
100
AcDbLine
 10
100
 20
861
 30
0
 11
100
 21
867.517
 31
0
  0
LINE
  5
D73
330
A02
100
AcDbEntity
  8
Shape2DView007
100
AcDbLine
 10
100
 20
867.517
 30
0
 11
102.759
 21
867.517
 31
0
  0
LINE
  5
D74
330
A02
100
AcDbEntity
  8
Shape2DView007
100
AcDbLine
 10
109.9
 20
861
 30
0
 11
100
 21
861
 31
0
  0
LINE
  5
D75
330
A02
100
AcDbEntity
  8
Shape2DView007
100
AcDbLine
 10
109.9
 20
861
 30
0
 11
109.9
 21
858
 31
0
  0
LINE
  5
D76
330
A02
100
AcDbEntity
  8
Shape2DView007
100
AcDbLine
 10
109.9
 20
858
 30
0
 11
120.1
 21
858
 31
0
  0
LINE
  5
D77
330
A02
100
AcDbEntity
  8
Shape2DView007
100
AcDbLine
 10
139.9
 20
861
 30
0
 11
120.1
 21
861
 31
0
  0
LINE
  5
D78
330
A02
100
AcDbEntity
  8
Shape2DView007
100
AcDbLine
 10
120.1
 20
861
 30
0
 11
120.1
 21
858
 31
0
  0
LINE
  5
D79
330
A02
100
AcDbEntity
  8
Shape2DView007
100
AcDbLine
 10
139.9
 20
861
 30
0
 11
139.9
 21
858
 31
0
  0
LINE
  5
D7A
330
A02
100
AcDbEntity
  8
Shape2DView007
100
AcDbLine
 10
139.9
 20
858
 30
0
 11
150.1
 21
858
 31
0
  0
LINE
  5
D7B
330
A02
100
AcDbEntity
  8
Shape2DView007
100
AcDbLine
 10
169.9
 20
861
 30
0
 11
150.1
 21
861
 31
0
  0
LINE
  5
D7C
330
A02
100
AcDbEntity
  8
Shape2DView007
100
AcDbLine
 10
150.1
 20
861
 30
0
 11
150.1
 21
858
 31
0
  0
LINE
  5
D7D
330
A02
100
AcDbEntity
  8
Shape2DView007
100
AcDbLine
 10
169.9
 20
861
 30
0
 11
169.9
 21
858
 31
0
  0
LINE
  5
D7E
330
A02
100
AcDbEntity
  8
Shape2DView007
100
AcDbLine
 10
169.9
 20
858
 30
0
 11
180.1
 21
858
 31
0
  0
LINE
  5
D7F
330
A02
100
AcDbEntity
  8
Shape2DView007
100
AcDbLine
 10
190
 20
861
 30
0
 11
180.1
 21
861
 31
0
  0
LINE
  5
D80
330
A02
100
AcDbEntity
  8
Shape2DView007
100
AcDbLine
 10
190
 20
1135
 30
0
 11
190
 21
861
 31
0
  0
LINE
  5
D81
330
A02
100
AcDbEntity
  8
Shape2DView007
100
AcDbLine
 10
180.1
 20
1135
 30
0
 11
190
 21
1135
 31
0
  0
LINE
  5
D82
330
A02
100
AcDbEntity
  8
Shape2DView007
100
AcDbLine
 10
180.1
 20
861
 30
0
 11
180.1
 21
858
 31
0
  0
LINE
  5
D83
330
A02
100
AcDbEntity
  8
Shape2DView007
100
AcDbLine
 10
180.1
 20
1135
 30
0
 11
180.1
 21
1138
 31
0
  0
LINE
  5
D84
330
A02
100
AcDbEntity
  8
Shape2DView007
100
AcDbLine
 10
180.1
 20
1138
 30
0
 11
169.9
 21
1138
 31
0
  0
LINE
  5
D85
330
A02
100
AcDbEntity
  8
Shape2DView007
100
AcDbLine
 10
150.1
 20
1135
 30
0
 11
169.9
 21
1135
 31
0
  0
LINE
  5
D86
330
A02
100
AcDbEntity
  8
Shape2DView007
100
AcDbLine
 10
169.9
 20
1135
 30
0
 11
169.9
 21
1138
 31
0
  0
LINE
  5
D87
330
A02
100
AcDbEntity
  8
Shape2DView007
100
AcDbLine
 10
150.1
 20
1135
 30
0
 11
150.1
 21
1138
 31
0
  0
LINE
  5
D88
330
A02
100
AcDbEntity
  8
Shape2DView007
100
AcDbLine
 10
150.1
 20
1138
 30
0
 11
139.9
 21
1138
 31
0
  0
LINE
  5
D89
330
A02
100
AcDbEntity
  8
Shape2DView007
100
AcDbLine
 10
120.1
 20
1135
 30
0
 11
139.9
 21
1135
 31
0
  0
LINE
  5
D8A
330
A02
100
AcDbEntity
  8
Shape2DView007
100
AcDbLine
 10
139.9
 20
1135
 30
0
 11
139.9
 21
1138
 31
0
  0
LINE
  5
D8B
330
A02
100
AcDbEntity
  8
Shape2DView007
100
AcDbLine
 10
120.1
 20
1135
 30
0
 11
120.1
 21
1138
 31
0
  0
LINE
  5
D8C
330
A02
100
AcDbEntity
  8
Shape2DView007
100
AcDbLine
 10
120.1
 20
1138
 30
0
 11
109.9
 21
1138
 31
0
  0
LINE
  5
D8D
330
A02
100
AcDbEntity
  8
Shape2DView007
100
AcDbLine
 10
100
 20
1135
 30
0
 11
109.9
 21
1135
 31
0
  0
LINE
  5
D8E
330
A02
100
AcDbEntity
  8
Shape2DView007
100
AcDbLine
 10
100
 20
1128.48
 30
0
 11
100
 21
1135
 31
0
  0
LINE
  5
D8F
330
A02
100
AcDbEntity
  8
Shape2DView007
100
AcDbLine
 10
100
 20
1128.48
 30
0
 11
102.759
 21
1128.48
 31
0
  0
LINE
  5
D90
330
A02
100
AcDbEntity
  8
Shape2DView007
100
AcDbLine
 10
109.9
 20
1135
 30
0
 11
109.9
 21
1138
 31
0
  0
ARC
  5
D91
330
A02
100
AcDbEntity
  8
Shape2DView007
100
AcDbCircle
 10
102.943
 20
1128.38
 30
0
 40
0.213333
100
AcDbArc
 50
0
 51
150
  0
ARC
  5
D92
330
A02
100
AcDbEntity
  8
Shape2DView007
100
AcDbCircle
 10
102.943
 20
1128.38
 30
0
 40
0.213333
100
AcDbArc
 50
-60
 51
0
  0
LINE
  5
D93
330
A02
100
AcDbEntity
  8
Shape2DView007
100
AcDbLine
 10
103.05
 20
1118.97
 30
0
 11
103.05
 21
1128.19
 31
0
  0
ARC
  5
D94
330
A02
100
AcDbEntity
  8
Shape2DView007
100
AcDbCircle
 10
102.943
 20
1118.79
 30
0
 40
0.213333
100
AcDbArc
 50
0
 51
60
  0
ARC
  5
D95
330
A02
100
AcDbEntity
  8
Shape2DView007
100
AcDbCircle
 10
102.943
 20
1118.79
 30
0
 40
0.213333
100
AcDbArc
 50
-150
 51
0
  0
LINE
  5
D96
330
A02
100
AcDbEntity
  8
Shape2DView007
100
AcDbLine
 10
100
 20
1118.68
 30
0
 11
102.759
 21
1118.68
 31
0
  0
LINE
  5
D97
330
A02
100
AcDbEntity
  8
Shape2DView007
100
AcDbLine
 10
100
 20
1105.65
 30
0
 11
100
 21
1118.68
 31
0
  0
LINE
  5
D98
330
A02
100
AcDbEntity
  8
Shape2DView007
100
AcDbLine
 10
100
 20
1105.65
 30
0
 11
102.759
 21
1105.65
 31
0
  0
ARC
  5
D99
330
A02
100
AcDbEntity
  8
Shape2DView007
100
AcDbCircle
 10
102.943
 20
1105.54
 30
0
 40
0.213333
100
AcDbArc
 50
0
 51
150
  0
ARC
  5
D9A
330
A02
100
AcDbEntity
  8
Shape2DView007
100
AcDbCircle
 10
102.943
 20
1105.54
 30
0
 40
0.213333
100
AcDbArc
 50
-60
 51
0
  0
LINE
  5
D9B
330
A02
100
AcDbEntity
  8
Shape2DView007
100
AcDbLine
 10
103.05
 20
1096.14
 30
0
 11
103.05
 21
1105.36
 31
0
  0
ARC
  5
D9C
330
A02
100
AcDbEntity
  8
Shape2DView007
100
AcDbCircle
 10
102.943
 20
1095.96
 30
0
 40
0.213333
100
AcDbArc
 50
0
 51
60
  0
ARC
  5
D9D
330
A02
100
AcDbEntity
  8
Shape2DView007
100
AcDbCircle
 10
102.943
 20
1095.96
 30
0
 40
0.213333
100
AcDbArc
 50
-150
 51
0
  0
LINE
  5
D9E
330
A02
100
AcDbEntity
  8
Shape2DView007
100
AcDbLine
 10
100
 20
1095.85
 30
0
 11
102.759
 21
1095.85
 31
0
  0
LINE
  5
D9F
330
A02
100
AcDbEntity
  8
Shape2DView007
100
AcDbLine
 10
100
 20
1082.82
 30
0
 11
100
 21
1095.85
 31
0
  0
LINE
  5
DA0
330
A02
100
AcDbEntity
  8
Shape2DView007
100
AcDbLine
 10
100
 20
1082.82
 30
0
 11
102.759
 21
1082.82
 31
0
  0
ARC
  5
DA1
330
A02
100
AcDbEntity
  8
Shape2DView007
100
AcDbCircle
 10
102.943
 20
1082.71
 30
0
 40
0.213333
100
AcDbArc
 50
0
 51
150
  0
ARC
  5
DA2
330
A02
100
AcDbEntity
  8
Shape2DView007
100
AcDbCircle
 10
102.943
 20
1082.71
 30
0
 40
0.213333
100
AcDbArc
 50
-60
 51
0
  0
LINE
  5
DA3
330
A02
100
AcDbEntity
  8
Shape2DView007
100
AcDbLine
 10
103.05
 20
1073.31
 30
0
 11
103.05
 21
1082.53
 31
0
  0
ARC
  5
DA4
330
A02
100
AcDbEntity
  8
Shape2DView007
100
AcDbCircle
 10
102.943
 20
1073.12
 30
0
 40
0.213333
100
AcDbArc
 50
0
 51
60
  0
ARC
  5
DA5
330
A02
100
AcDbEntity
  8
Shape2DView007
100
AcDbCircle
 10
102.943
 20
1073.12
 30
0
 40
0.213333
100
AcDbArc
 50
-150
 51
0
  0
LINE
  5
DA6
330
A02
100
AcDbEntity
  8
Shape2DView007
100
AcDbLine
 10
100
 20
1073.02
 30
0
 11
102.759
 21
1073.02
 31
0
  0
LINE
  5
DA7
330
A02
100
AcDbEntity
  8
Shape2DView007
100
AcDbLine
 10
100
 20
1059.98
 30
0
 11
100
 21
1073.02
 31
0
  0
LINE
  5
DA8
330
A02
100
AcDbEntity
  8
Shape2DView007
100
AcDbLine
 10
100
 20
1059.98
 30
0
 11
102.759
 21
1059.98
 31
0
  0
ARC
  5
DA9
330
A02
100
AcDbEntity
  8
Shape2DView007
100
AcDbCircle
 10
102.943
 20
1059.88
 30
0
 40
0.213333
100
AcDbArc
 50
0
 51
150
  0
ARC
  5
DAA
330
A02
100
AcDbEntity
  8
Shape2DView007
100
AcDbCircle
 10
102.943
 20
1059.88
 30
0
 40
0.213333
100
AcDbArc
 50
-60
 51
0
  0
LINE
  5
DAB
330
A02
100
AcDbEntity
  8
Shape2DView007
100
AcDbLine
 10
103.05
 20
1050.47
 30
0
 11
103.05
 21
1059.69
 31
0
  0
ARC
  5
DAC
330
A02
100
AcDbEntity
  8
Shape2DView007
100
AcDbCircle
 10
102.943
 20
1050.29
 30
0
 40
0.213333
100
AcDbArc
 50
0
 51
60
  0
ARC
  5
DAD
330
A02
100
AcDbEntity
  8
Shape2DView007
100
AcDbCircle
 10
102.943
 20
1050.29
 30
0
 40
0.213333
100
AcDbArc
 50
-150
 51
0
  0
LINE
  5
DAE
330
A02
100
AcDbEntity
  8
Shape2DView007
100
AcDbLine
 10
100
 20
1050.18
 30
0
 11
102.759
 21
1050.18
 31
0
  0
LINE
  5
DAF
330
A02
100
AcDbEntity
  8
Shape2DView007
100
AcDbLine
 10
100
 20
1037.15
 30
0
 11
100
 21
1050.18
 31
0
  0
LINE
  5
DB0
330
A02
100
AcDbEntity
  8
Shape2DView007
100
AcDbLine
 10
100
 20
1037.15
 30
0
 11
102.759
 21
1037.15
 31
0
  0
ARC
  5
DB1
330
A02
100
AcDbEntity
  8
Shape2DView007
100
AcDbCircle
 10
102.943
 20
1037.04
 30
0
 40
0.213333
100
AcDbArc
 50
0
 51
150
  0
ARC
  5
DB2
330
A02
100
AcDbEntity
  8
Shape2DView007
100
AcDbCircle
 10
102.943
 20
1037.04
 30
0
 40
0.213333
100
AcDbArc
 50
-60
 51
0
  0
LINE
  5
DB3
330
A02
100
AcDbEntity
  8
Shape2DView007
100
AcDbLine
 10
103.05
 20
1027.64
 30
0
 11
103.05
 21
1036.86
 31
0
  0
ARC
  5
DB4
330
A02
100
AcDbEntity
  8
Shape2DView007
100
AcDbCircle
 10
102.943
 20
1027.46
 30
0
 40
0.213333
100
AcDbArc
 50
0
 51
60
  0
ARC
  5
DB5
330
A02
100
AcDbEntity
  8
Shape2DView007
100
AcDbCircle
 10
102.943
 20
1027.46
 30
0
 40
0.213333
100
AcDbArc
 50
-150
 51
0
  0
LINE
  5
DB6
330
A02
100
AcDbEntity
  8
Shape2DView007
100
AcDbLine
 10
100
 20
1027.35
 30
0
 11
102.759
 21
1027.35
 31
0
  0
LINE
  5
DB7
330
A02
100
AcDbEntity
  8
Shape2DView007
100
AcDbLine
 10
100
 20
1014.32
 30
0
 11
100
 21
1027.35
 31
0
  0
LINE
  5
DB8
330
A02
100
AcDbEntity
  8
Shape2DView007
100
AcDbLine
 10
100
 20
1014.32
 30
0
 11
102.759
 21
1014.32
 31
0
  0
ARC
  5
DB9
330
A02
100
AcDbEntity
  8
Shape2DView007
100
AcDbCircle
 10
102.943
 20
1014.21
 30
0
 40
0.213333
100
AcDbArc
 50
0
 51
150
  0
ARC
  5
DBA
330
A02
100
AcDbEntity
  8
Shape2DView007
100
AcDbCircle
 10
102.943
 20
1014.21
 30
0
 40
0.213333
100
AcDbArc
 50
-60
 51
0
  0
LINE
  5
DBB
330
A02
100
AcDbEntity
  8
Shape2DView007
100
AcDbLine
 10
103.05
 20
1004.81
 30
0
 11
103.05
 21
1014.03
 31
0
  0
ARC
  5
DBC
330
A02
100
AcDbEntity
  8
Shape2DView007
100
AcDbCircle
 10
102.943
 20
1004.62
 30
0
 40
0.213333
100
AcDbArc
 50
0
 51
60
  0
ARC
  5
DBD
330
A02
100
AcDbEntity
  8
Shape2DView007
100
AcDbCircle
 10
102.943
 20
1004.62
 30
0
 40
0.213333
100
AcDbArc
 50
-150
 51
0
  0
LINE
  5
DBE
330
A02
100
AcDbEntity
  8
Shape2DView007
100
AcDbLine
 10
100
 20
1004.52
 30
0
 11
102.759
 21
1004.52
 31
0
  0
LINE
  5
DBF
330
A02
100
AcDbEntity
  8
Shape2DView007
100
AcDbLine
 10
100
 20
991.483
 30
0
 11
100
 21
1004.52
 31
0
  0
LINE
  5
DC0
330
A02
100
AcDbEntity
  8
Shape2DView007
100
AcDbLine
 10
100
 20
991.483
 30
0
 11
102.759
 21
991.483
 31
0
  0
ARC
  5
DC1
330
A02
100
AcDbEntity
  8
Shape2DView007
100
AcDbCircle
 10
102.943
 20
991.377
 30
0
 40
0.213333
100
AcDbArc
 50
0
 51
150
  0
ARC
  5
DC2
330
A02
100
AcDbEntity
  8
Shape2DView007
100
AcDbCircle
 10
102.943
 20
991.377
 30
0
 40
0.213333
100
AcDbArc
 50
-60
 51
0
  0
LINE
  5
DC3
330
A02
100
AcDbEntity
  8
Shape2DView007
100
AcDbLine
 10
103.05
 20
981.975
 30
0
 11
103.05
 21
991.192
 31
0
  0
ARC
  5
DC4
330
A02
100
AcDbEntity
  8
Shape2DView007
100
AcDbCircle
 10
102.943
 20
981.79
 30
0
 40
0.213333
100
AcDbArc
 50
0
 51
60
  0
ARC
  5
DC5
330
A02
100
AcDbEntity
  8
Shape2DView007
100
AcDbCircle
 10
102.943
 20
981.79
 30
0
 40
0.213333
100
AcDbArc
 50
-150
 51
0
  0
LINE
  5
DC6
330
A02
100
AcDbEntity
  8
Shape2DView007
100
AcDbLine
 10
100
 20
981.683
 30
0
 11
102.759
 21
981.683
 31
0
  0
LINE
  5
DC7
330
A02
100
AcDbEntity
  8
Shape2DView007
100
AcDbLine
 10
100
 20
968.65
 30
0
 11
100
 21
981.683
 31
0
  0
LINE
  5
DC8
330
A02
100
AcDbEntity
  8
Shape2DView007
100
AcDbLine
 10
100
 20
968.65
 30
0
 11
102.759
 21
968.65
 31
0
  0
ARC
  5
DC9
330
A02
100
AcDbEntity
  8
Shape2DView007
100
AcDbCircle
 10
102.943
 20
968.543
 30
0
 40
0.213333
100
AcDbArc
 50
0
 51
150
  0
ARC
  5
DCA
330
A02
100
AcDbEntity
  8
Shape2DView007
100
AcDbCircle
 10
102.943
 20
968.543
 30
0
 40
0.213333
100
AcDbArc
 50
-60
 51
0
  0
LINE
  5
DCB
330
A02
100
AcDbEntity
  8
Shape2DView007
100
AcDbLine
 10
103.05
 20
959.141
 30
0
 11
103.05
 21
968.359
 31
0
  0
ARC
  5
DCC
330
A02
100
AcDbEntity
  8
Shape2DView007
100
AcDbCircle
 10
102.943
 20
958.957
 30
0
 40
0.213333
100
AcDbArc
 50
0
 51
60
  0
ARC
  5
DCD
330
A02
100
AcDbEntity
  8
Shape2DView007
100
AcDbCircle
 10
102.943
 20
958.957
 30
0
 40
0.213333
100
AcDbArc
 50
-150
 51
0
  0
LINE
  5
DCE
330
A02
100
AcDbEntity
  8
Shape2DView007
100
AcDbLine
 10
100
 20
958.85
 30
0
 11
102.759
 21
958.85
 31
0
  0
LINE
  5
DCF
330
A02
100
AcDbEntity
  8
Shape2DView007
100
AcDbLine
 10
100
 20
945.817
 30
0
 11
100
 21
958.85
 31
0
  0
LINE
  5
DD0
330
A02
100
AcDbEntity
  8
Shape2DView007
100
AcDbLine
 10
100
 20
945.817
 30
0
 11
102.759
 21
945.817
 31
0
  0
ARC
  5
DD1
330
A02
100
AcDbEntity
  8
Shape2DView007
100
AcDbCircle
 10
102.943
 20
945.71
 30
0
 40
0.213333
100
AcDbArc
 50
0
 51
150
  0
ARC
  5
DD2
330
A02
100
AcDbEntity
  8
Shape2DView007
100
AcDbCircle
 10
102.943
 20
945.71
 30
0
 40
0.213333
100
AcDbArc
 50
-60
 51
0
  0
LINE
  5
DD3
330
A02
100
AcDbEntity
  8
Shape2DView007
100
AcDbLine
 10
103.05
 20
936.308
 30
0
 11
103.05
 21
945.525
 31
0
  0
ARC
  5
DD4
330
A02
100
AcDbEntity
  8
Shape2DView007
100
AcDbCircle
 10
102.943
 20
936.123
 30
0
 40
0.213333
100
AcDbArc
 50
0
 51
60
  0
ARC
  5
DD5
330
A02
100
AcDbEntity
  8
Shape2DView007
100
AcDbCircle
 10
102.943
 20
936.123
 30
0
 40
0.213333
100
AcDbArc
 50
-150
 51
0
  0
LINE
  5
DD6
330
A02
100
AcDbEntity
  8
Shape2DView007
100
AcDbLine
 10
100
 20
936.017
 30
0
 11
102.759
 21
936.017
 31
0
  0
LINE
  5
DD7
330
A02
100
AcDbEntity
  8
Shape2DView007
100
AcDbLine
 10
100
 20
922.983
 30
0
 11
100
 21
936.017
 31
0
  0
LINE
  5
DD8
330
A02
100
AcDbEntity
  8
Shape2DView007
100
AcDbLine
 10
100
 20
922.983
 30
0
 11
102.759
 21
922.983
 31
0
  0
ARC
  5
DD9
330
A02
100
AcDbEntity
  8
Shape2DView007
100
AcDbCircle
 10
102.943
 20
922.877
 30
0
 40
0.213333
100
AcDbArc
 50
0
 51
150
  0
ARC
  5
DDA
330
A02
100
AcDbEntity
  8
Shape2DView007
100
AcDbCircle
 10
102.943
 20
922.877
 30
0
 40
0.213333
100
AcDbArc
 50
-60
 51
0
  0
LINE
  5
DDB
330
A02
100
AcDbEntity
  8
Shape2DView007
100
AcDbLine
 10
103.05
 20
913.475
 30
0
 11
103.05
 21
922.692
 31
0
  0
ARC
  5
DDC
330
A02
100
AcDbEntity
  8
Shape2DView007
100
AcDbCircle
 10
102.943
 20
913.29
 30
0
 40
0.213333
100
AcDbArc
 50
0
 51
60
  0
ARC
  5
DDD
330
A02
100
AcDbEntity
  8
Shape2DView007
100
AcDbCircle
 10
102.943
 20
913.29
 30
0
 40
0.213333
100
AcDbArc
 50
-150
 51
0
  0
LINE
  5
DDE
330
A02
100
AcDbEntity
  8
Shape2DView007
100
AcDbLine
 10
100
 20
913.183
 30
0
 11
102.759
 21
913.183
 31
0
  0
LINE
  5
DDF
330
A02
100
AcDbEntity
  8
Shape2DView007
100
AcDbLine
 10
100
 20
900.15
 30
0
 11
100
 21
913.183
 31
0
  0
LINE
  5
DE0
330
A02
100
AcDbEntity
  8
Shape2DView007
100
AcDbLine
 10
100
 20
900.15
 30
0
 11
102.759
 21
900.15
 31
0
  0
ARC
  5
DE1
330
A02
100
AcDbEntity
  8
Shape2DView007
100
AcDbCircle
 10
102.943
 20
900.043
 30
0
 40
0.213333
100
AcDbArc
 50
0
 51
150
  0
ARC
  5
DE2
330
A02
100
AcDbEntity
  8
Shape2DView007
100
AcDbCircle
 10
102.943
 20
900.043
 30
0
 40
0.213333
100
AcDbArc
 50
-60
 51
0
  0
LINE
  5
DE3
330
A02
100
AcDbEntity
  8
Shape2DView007
100
AcDbLine
 10
103.05
 20
890.641
 30
0
 11
103.05
 21
899.859
 31
0
  0
ARC
  5
DE4
330
A02
100
AcDbEntity
  8
Shape2DView007
100
AcDbCircle
 10
102.943
 20
890.457
 30
0
 40
0.213333
100
AcDbArc
 50
0
 51
60
  0
ARC
  5
DE5
330
A02
100
AcDbEntity
  8
Shape2DView007
100
AcDbCircle
 10
102.943
 20
890.457
 30
0
 40
0.213333
100
AcDbArc
 50
-150
 51
0
  0
LINE
  5
DE6
330
A02
100
AcDbEntity
  8
Shape2DView007
100
AcDbLine
 10
100
 20
890.35
 30
0
 11
102.759
 21
890.35
 31
0
  0
LINE
  5
DE7
330
A02
100
AcDbEntity
  8
Shape2DView007
100
AcDbLine
 10
100
 20
877.317
 30
0
 11
100
 21
890.35
 31
0
  0
LINE
  5
DE8
330
A02
100
AcDbEntity
  8
Shape2DView007
100
AcDbLine
 10
100
 20
877.317
 30
0
 11
102.759
 21
877.317
 31
0
  0
ARC
  5
DE9
330
A02
100
AcDbEntity
  8
Shape2DView007
100
AcDbCircle
 10
102.943
 20
877.21
 30
0
 40
0.213333
100
AcDbArc
 50
0
 51
150
  0
ARC
  5
DEA
330
A02
100
AcDbEntity
  8
Shape2DView007
100
AcDbCircle
 10
102.943
 20
877.21
 30
0
 40
0.213333
100
AcDbArc
 50
-60
 51
0
  0
LINE
  5
DEB
330
A02
100
AcDbEntity
  8
Shape2DView007
100
AcDbLine
 10
103.05
 20
867.808
 30
0
 11
103.05
 21
877.025
 31
0
  0
ARC
  5
DEC
330
A02
100
AcDbEntity
  8
Shape2DView007
100
AcDbCircle
 10
102.943
 20
867.623
 30
0
 40
0.213333
100
AcDbArc
 50
0
 51
60
  0
ARC
  5
DED
330
A02
100
AcDbEntity
  8
Shape2DView007
100
AcDbCircle
 10
102.943
 20
867.623
 30
0
 40
0.213333
100
AcDbArc
 50
-150
 51
0
  0
ENDSEC
  0
SECTION
  2
OBJECTS
  0
DICTIONARY
  5
F000
330
0
100
AcDbDictionary
  3
ACAD_GROUP
350
F001
  0
DICTIONARY
  5
F001
330
F000
100
AcDbDictionary
  0
ENDSEC
  0
EOF